<svg xmlns="http://www.w3.org/2000/svg" xmlns:xlink="http://www.w3.org/1999/xlink" width="188" zoomAndPan="magnify" viewBox="0 0 141.12 141.750002" height="188" preserveAspectRatio="xMidYMid meet" version="1.0"><defs><clipPath id="id1"><path d="M 0 0.316406 L 140.125 0.316406 L 140.125 141.1875 L 0 141.1875 Z M 0 0.316406 " clip-rule="nonzero"/></clipPath><clipPath id="id2"><path d="M 0 0.316406 L 140.125 0.316406 L 140.125 141 L 0 141 Z M 0 0.316406 " clip-rule="nonzero"/></clipPath><clipPath id="id3"><path d="M 0 0.316406 L 140.125 0.316406 L 140.125 140.441406 L 0 140.441406 Z M 0 0.316406 " clip-rule="nonzero"/></clipPath><clipPath id="id4"><path d="M 43.613281 19.132812 L 106.632812 19.132812 L 106.632812 61 L 43.613281 61 Z M 43.613281 19.132812 " clip-rule="nonzero"/></clipPath><clipPath id="id5"><path d="M 43.613281 53 L 106.632812 53 L 106.632812 57 L 43.613281 57 Z M 43.613281 53 " clip-rule="nonzero"/></clipPath><clipPath id="id6"><path d="M 54 64 L 96 64 L 96 70.289062 L 54 70.289062 Z M 54 64 " clip-rule="nonzero"/></clipPath></defs><g clip-path="url(#id1)"><path fill="#ffffff" d="M 0 0.316406 L 140.125 0.316406 L 140.125 147.855469 L 0 147.855469 Z M 0 0.316406 " fill-opacity="1" fill-rule="nonzero"/></g><g clip-path="url(#id2)"><path fill="#ffffff" d="M 0 0.316406 L 140.125 0.316406 L 140.125 140.441406 L 0 140.441406 Z M 0 0.316406 " fill-opacity="1" fill-rule="nonzero"/></g><g clip-path="url(#id3)"><path fill="#ffffff" d="M 0 0.316406 L 140.125 0.316406 L 140.125 140.441406 L 0 140.441406 Z M 0 0.316406 " fill-opacity="1" fill-rule="nonzero"/><path fill="#ffffff" d="M 0 0.316406 L 140.125 0.316406 L 140.125 140.441406 L 0 140.441406 Z M 0 0.316406 " fill-opacity="1" fill-rule="nonzero"/></g><path fill="#000000" d="M 50.726562 55.003906 L 50.726562 26.511719 C 50.726562 26.207031 50.84375 25.945312 51.042969 25.742188 C 51.242188 25.546875 51.503906 25.425781 51.808594 25.425781 L 98.433594 25.425781 C 98.738281 25.425781 99 25.546875 99.203125 25.742188 C 99.398438 25.945312 99.519531 26.207031 99.519531 26.511719 L 99.519531 56.085938 L 101.683594 56.085938 L 101.683594 26.511719 C 101.683594 25.617188 101.316406 24.796875 100.730469 24.210938 C 100.148438 23.625 99.328125 23.257812 98.433594 23.257812 L 51.808594 23.257812 C 50.914062 23.257812 50.097656 23.625 49.511719 24.210938 C 48.925781 24.796875 48.558594 25.617188 48.5625 26.511719 L 48.5625 56.085938 L 50.726562 56.085938 L 50.726562 55.003906 " fill-opacity="1" fill-rule="nonzero"/><path fill="#000000" d="M 82.351562 60.203125 L 80.183594 60.203125 L 80.183594 64.535156 L 82.351562 64.535156 L 82.351562 60.203125 " fill-opacity="1" fill-rule="nonzero"/><path fill="#000000" d="M 70.058594 60.203125 L 67.894531 60.203125 L 67.894531 64.535156 L 70.058594 64.535156 L 70.058594 60.203125 " fill-opacity="1" fill-rule="nonzero"/><g clip-path="url(#id4)"><path fill="#000000" d="M 106.589844 56.085938 L 104.421875 56.085938 L 104.421875 56.304688 L 106.589844 56.304688 L 106.589844 56.085938 M 102.695312 19.140625 C 102.695312 19.140625 102.691406 19.140625 102.691406 19.140625 L 47.550781 19.140625 C 46.476562 19.140625 45.496094 19.582031 44.796875 20.285156 C 44.09375 20.988281 43.65625 21.96875 43.65625 23.042969 L 43.65625 56.304688 C 43.65625 57.375 44.09375 58.359375 44.796875 59.0625 C 45.496094 59.765625 46.476562 60.203125 47.546875 60.203125 C 47.550781 60.203125 47.550781 60.203125 47.550781 60.203125 L 67.894531 60.203125 L 67.894531 58.035156 L 70.058594 58.035156 L 70.058594 60.203125 L 80.183594 60.203125 L 80.183594 58.035156 L 82.351562 58.035156 L 82.351562 60.203125 L 102.691406 60.203125 C 103.765625 60.203125 104.746094 59.765625 105.445312 59.0625 C 106.148438 58.359375 106.589844 57.375 106.589844 56.304688 L 104.425781 56.304688 C 104.421875 56.785156 104.230469 57.210938 103.917969 57.527344 C 103.601562 57.84375 103.175781 58.035156 102.691406 58.035156 L 47.550781 58.035156 C 47.070312 58.035156 46.644531 57.84375 46.324219 57.527344 C 46.011719 57.210938 45.820312 56.785156 45.820312 56.304688 L 45.820312 56.085938 L 43.65625 56.085938 L 43.65625 53.917969 L 45.820312 53.917969 L 45.820312 23.042969 C 45.820312 22.558594 46.011719 22.132812 46.324219 21.816406 C 46.644531 21.5 47.070312 21.308594 47.550781 21.308594 L 102.691406 21.308594 C 103.175781 21.308594 103.601562 21.5 103.917969 21.816406 C 104.230469 22.132812 104.421875 22.5625 104.425781 23.042969 L 104.425781 53.917969 L 106.589844 53.917969 L 106.589844 23.042969 C 106.589844 21.96875 106.148438 20.988281 105.445312 20.285156 C 104.746094 19.582031 103.765625 19.140625 102.695312 19.140625 " fill-opacity="1" fill-rule="nonzero"/></g><path fill="#000000" d="M 82.351562 58.035156 L 80.183594 58.035156 L 80.183594 60.203125 L 82.351562 60.203125 L 82.351562 58.035156 " fill-opacity="1" fill-rule="nonzero"/><path fill="#000000" d="M 70.058594 58.035156 L 67.894531 58.035156 L 67.894531 60.203125 L 70.058594 60.203125 L 70.058594 58.035156 " fill-opacity="1" fill-rule="nonzero"/><path fill="#000000" d="M 48.5625 53.917969 L 45.820312 53.917969 L 45.820312 56.085938 L 48.5625 56.085938 L 48.5625 53.917969 M 99.519531 53.917969 L 50.726562 53.917969 L 50.726562 56.085938 L 99.519531 56.085938 L 99.519531 53.917969 M 104.421875 53.917969 L 101.683594 53.917969 L 101.683594 56.085938 L 104.421875 56.085938 L 104.421875 53.917969 " fill-opacity="1" fill-rule="nonzero"/><path fill="#000000" d="M 50.726562 53.917969 L 48.5625 53.917969 L 48.5625 56.085938 L 50.726562 56.085938 L 50.726562 53.917969 M 101.683594 53.917969 L 99.519531 53.917969 L 99.519531 56.085938 L 101.683594 56.085938 L 101.683594 53.917969 " fill-opacity="1" fill-rule="nonzero"/><g clip-path="url(#id5)"><path fill="#000000" d="M 45.820312 53.917969 L 43.65625 53.917969 L 43.65625 56.085938 L 45.820312 56.085938 L 45.820312 53.917969 M 106.589844 53.917969 L 104.421875 53.917969 L 104.421875 56.085938 L 106.589844 56.085938 L 106.589844 53.917969 " fill-opacity="1" fill-rule="nonzero"/></g><g clip-path="url(#id6)"><path fill="#000000" d="M 80.183594 64.535156 L 70.058594 64.535156 L 70.058594 66.703125 L 80.183594 66.703125 L 80.183594 64.535156 M 94.707031 64.535156 L 82.351562 64.535156 L 82.351562 66.703125 L 93.625 66.703125 L 93.625 68.132812 L 56.617188 68.132812 L 56.617188 66.703125 L 67.894531 66.703125 L 67.894531 64.535156 L 55.535156 64.535156 C 55.25 64.535156 54.972656 64.652344 54.769531 64.855469 C 54.570312 65.054688 54.453125 65.335938 54.453125 65.621094 L 54.453125 69.21875 C 54.453125 69.503906 54.570312 69.78125 54.769531 69.984375 C 54.972656 70.183594 55.25 70.300781 55.535156 70.300781 L 94.707031 70.300781 C 94.992188 70.300781 95.269531 70.183594 95.472656 69.984375 C 95.671875 69.78125 95.789062 69.503906 95.789062 69.21875 L 94.707031 69.21875 L 94.707031 68.132812 L 94.707031 69.21875 L 95.789062 69.21875 L 95.789062 65.621094 C 95.789062 65.335938 95.671875 65.054688 95.472656 64.855469 C 95.269531 64.652344 94.992188 64.535156 94.707031 64.535156 " fill-opacity="1" fill-rule="nonzero"/></g><path fill="#000000" d="M 82.351562 64.535156 L 80.183594 64.535156 L 80.183594 66.703125 L 82.351562 66.703125 L 82.351562 64.535156 " fill-opacity="1" fill-rule="nonzero"/><path fill="#000000" d="M 70.058594 64.535156 L 67.894531 64.535156 L 67.894531 66.703125 L 70.058594 66.703125 L 70.058594 64.535156 " fill-opacity="1" fill-rule="nonzero"/></svg>