<svg xmlns="http://www.w3.org/2000/svg" xmlns:xlink="http://www.w3.org/1999/xlink" width="1080" zoomAndPan="magnify" viewBox="0 0 810 809.999993" height="1080" preserveAspectRatio="xMidYMid meet" version="1.0"><defs><clipPath id="id1"><path d="M 296 322 L 514.234375 322 L 514.234375 428 L 296 428 Z M 296 322 " clip-rule="nonzero"/></clipPath><clipPath id="id2"><path d="M 347 263.378906 L 463 263.378906 L 463 331 L 347 331 Z M 347 263.378906 " clip-rule="nonzero"/></clipPath><clipPath id="id3"><path d="M 358 394 L 452 394 L 452 480.128906 L 358 480.128906 Z M 358 394 " clip-rule="nonzero"/></clipPath></defs><g clip-path="url(#id1)"><path fill="#ffffff" d="M 347.539062 322.367188 L 326.039062 322.367188 C 317.765625 322.363281 310.242188 325.730469 304.820312 331.160156 C 299.398438 336.582031 296.03125 344.109375 296.035156 352.386719 L 296.035156 397.832031 C 296.03125 406.109375 299.398438 413.640625 304.820312 419.058594 C 310.238281 424.484375 317.761719 427.851562 326.035156 427.851562 C 326.035156 427.851562 326.039062 427.851562 326.039062 427.851562 L 358.972656 427.851562 L 358.972656 420.347656 L 326.039062 420.347656 C 319.8125 420.34375 314.210938 417.832031 310.128906 413.753906 C 306.046875 409.664062 303.535156 404.058594 303.535156 397.832031 L 303.535156 352.386719 C 303.535156 346.15625 306.050781 340.550781 310.128906 336.464844 C 314.210938 332.386719 319.8125 329.871094 326.039062 329.871094 L 347.539062 329.871094 L 347.539062 322.367188 M 455.179688 322.367188 L 355.039062 322.367188 L 355.039062 329.871094 L 455.179688 329.871094 L 455.179688 322.367188 M 484.1875 322.367188 C 484.1875 322.367188 484.183594 322.367188 484.179688 322.367188 L 462.683594 322.367188 L 462.683594 329.871094 L 484.179688 329.871094 C 490.40625 329.871094 496.011719 332.386719 500.09375 336.464844 C 504.171875 340.554688 506.683594 346.15625 506.6875 352.386719 L 506.6875 397.832031 C 506.683594 404.058594 504.171875 409.667969 500.09375 413.753906 C 496.007812 417.832031 490.40625 420.34375 484.179688 420.347656 L 451.25 420.347656 L 451.25 427.851562 L 484.179688 427.851562 C 492.457031 427.851562 499.980469 424.488281 505.398438 419.058594 C 510.824219 413.640625 514.191406 406.109375 514.1875 397.832031 L 514.1875 352.386719 C 514.191406 344.109375 510.824219 336.578125 505.398438 331.160156 C 499.984375 325.734375 492.460938 322.367188 484.1875 322.367188 " fill-opacity="1" fill-rule="nonzero"/></g><g clip-path="url(#id2)"><path fill="#ffffff" d="M 355.039062 329.871094 L 347.539062 329.871094 L 347.539062 330.027344 L 355.039062 330.027344 L 355.039062 329.871094 M 462.683594 329.871094 L 455.179688 329.871094 L 455.179688 330.027344 L 462.683594 330.027344 L 462.683594 329.871094 M 458.933594 263.375 L 351.289062 263.375 C 350.300781 263.375 349.335938 263.773438 348.636719 264.472656 C 347.9375 265.171875 347.539062 266.140625 347.539062 267.128906 L 347.539062 322.367188 L 355.039062 322.367188 L 355.039062 270.878906 L 455.179688 270.878906 L 455.179688 322.367188 L 462.683594 322.367188 L 462.683594 267.128906 C 462.683594 266.140625 462.28125 265.171875 461.582031 264.472656 C 460.886719 263.773438 459.917969 263.375 458.933594 263.375 " fill-opacity="1" fill-rule="nonzero"/></g><path fill="#ffffff" d="M 355.039062 322.367188 L 347.539062 322.367188 L 347.539062 329.871094 L 355.039062 329.871094 L 355.039062 322.367188 M 462.683594 322.367188 L 455.179688 322.367188 L 455.179688 329.871094 L 462.683594 329.871094 L 462.683594 322.367188 " fill-opacity="1" fill-rule="nonzero"/><path fill="#ffffff" d="M 479.375 339.214844 C 479.375 339.214844 479.375 339.214844 479.371094 339.214844 C 475.757812 339.214844 472.453125 340.691406 470.089844 343.0625 C 467.71875 345.429688 466.242188 348.734375 466.242188 352.351562 C 466.242188 355.964844 467.71875 359.273438 470.089844 361.636719 C 472.449219 364.007812 475.753906 365.484375 479.363281 365.484375 C 479.367188 365.484375 479.367188 365.484375 479.371094 365.484375 C 482.984375 365.484375 486.292969 364.007812 488.65625 361.636719 C 491.027344 359.273438 492.5 355.964844 492.5 352.351562 L 485 352.351562 C 484.996094 353.914062 484.375 355.300781 483.351562 356.332031 C 482.320312 357.355469 480.9375 357.976562 479.371094 357.980469 C 477.804688 357.976562 476.421875 357.355469 475.394531 356.332031 C 474.367188 355.300781 473.746094 353.917969 473.746094 352.351562 C 473.746094 350.785156 474.367188 349.402344 475.394531 348.371094 C 476.421875 347.34375 477.804688 346.722656 479.371094 346.722656 C 480.9375 346.722656 482.320312 347.34375 483.351562 348.371094 C 484.375 349.402344 484.996094 350.78125 485 352.351562 L 492.5 352.351562 C 492.5 348.734375 491.027344 345.429688 488.65625 343.0625 C 486.292969 340.691406 482.988281 339.214844 479.375 339.214844 " fill-opacity="1" fill-rule="nonzero"/><path fill="#ffffff" d="M 453.503906 342.597656 C 453.5 342.597656 453.5 342.597656 453.496094 342.597656 C 450.816406 342.597656 448.355469 343.695312 446.601562 345.457031 C 444.84375 347.207031 443.746094 349.671875 443.746094 352.351562 C 443.746094 355.03125 444.84375 357.492188 446.601562 359.246094 C 448.351562 361.003906 450.8125 362.101562 453.492188 362.101562 C 453.492188 362.101562 453.496094 362.101562 453.496094 362.101562 C 456.175781 362.105469 458.636719 361.003906 460.386719 359.246094 C 462.148438 357.492188 463.246094 355.03125 463.242188 352.351562 L 455.742188 352.351562 C 455.738281 352.984375 455.496094 353.519531 455.085938 353.9375 C 454.667969 354.351562 454.128906 354.597656 453.496094 354.597656 C 452.863281 354.597656 452.328125 354.351562 451.910156 353.9375 C 451.496094 353.519531 451.253906 352.984375 451.253906 352.351562 C 451.253906 351.71875 451.496094 351.179688 451.910156 350.761719 C 452.328125 350.351562 452.863281 350.105469 453.496094 350.105469 C 454.128906 350.105469 454.667969 350.351562 455.085938 350.761719 C 455.496094 351.179688 455.742188 351.71875 455.742188 352.351562 L 463.242188 352.351562 C 463.246094 349.671875 462.148438 347.207031 460.386719 345.457031 C 458.636719 343.699219 456.179688 342.597656 453.503906 342.597656 " fill-opacity="1" fill-rule="nonzero"/><g clip-path="url(#id3)"><path fill="#ffffff" d="M 451.25 394.613281 L 443.75 394.613281 L 443.75 472.628906 L 366.472656 472.628906 L 366.472656 394.613281 L 358.972656 394.613281 L 358.972656 420.347656 L 366.453125 420.347656 L 366.453125 427.851562 L 358.972656 427.851562 L 358.972656 476.382812 C 358.972656 477.371094 359.371094 478.335938 360.070312 479.035156 C 360.769531 479.734375 361.734375 480.136719 362.722656 480.136719 L 447.5 480.136719 C 448.488281 480.136719 449.453125 479.734375 450.152344 479.035156 C 450.851562 478.335938 451.25 477.371094 451.25 476.382812 L 451.25 427.851562 L 444.222656 427.851562 L 444.222656 420.347656 L 451.25 420.347656 L 451.25 394.613281 " fill-opacity="1" fill-rule="nonzero"/></g><path fill="#ffffff" d="M 366.453125 420.347656 L 358.972656 420.347656 L 358.972656 427.851562 L 366.453125 427.851562 L 366.453125 420.347656 M 451.25 420.347656 L 444.222656 420.347656 L 444.222656 427.851562 L 451.25 427.851562 L 451.25 420.347656 " fill-opacity="1" fill-rule="nonzero"/><path fill="#ffffff" d="M 458.933594 387.109375 L 351.289062 387.109375 L 351.289062 394.613281 L 358.972656 394.613281 L 358.972656 387.316406 L 366.472656 387.316406 L 366.472656 394.613281 L 443.75 394.613281 L 443.75 387.316406 L 451.25 387.316406 L 451.25 394.613281 L 458.933594 394.613281 L 458.933594 387.109375 " fill-opacity="1" fill-rule="nonzero"/><path fill="#ffffff" d="M 366.472656 387.316406 L 358.972656 387.316406 L 358.972656 394.613281 L 366.472656 394.613281 L 366.472656 387.316406 M 451.25 387.316406 L 443.75 387.316406 L 443.75 394.613281 L 451.25 394.613281 L 451.25 387.316406 " fill-opacity="1" fill-rule="nonzero"/><path fill="#ffffff" d="M 430.242188 403.601562 L 379.980469 403.601562 L 379.980469 411.105469 L 430.242188 411.105469 L 430.242188 403.601562 " fill-opacity="1" fill-rule="nonzero"/><path fill="#ffffff" d="M 430.242188 416.734375 L 379.980469 416.734375 L 379.980469 424.242188 L 430.242188 424.242188 L 430.242188 416.734375 " fill-opacity="1" fill-rule="nonzero"/><path fill="#ffffff" d="M 430.242188 429.867188 L 379.980469 429.867188 L 379.980469 437.375 L 430.242188 437.375 L 430.242188 429.867188 " fill-opacity="1" fill-rule="nonzero"/><path fill="#ffffff" d="M 430.242188 443.003906 L 379.980469 443.003906 L 379.980469 450.507812 L 430.242188 450.507812 L 430.242188 443.003906 " fill-opacity="1" fill-rule="nonzero"/><path fill="#ffffff" d="M 430.242188 456.136719 L 379.980469 456.136719 L 379.980469 463.644531 L 430.242188 463.644531 L 430.242188 456.136719 " fill-opacity="1" fill-rule="nonzero"/></svg>