<svg xmlns="http://www.w3.org/2000/svg" xmlns:xlink="http://www.w3.org/1999/xlink" width="1080" zoomAndPan="magnify" viewBox="0 0 810 809.999993" height="1080" preserveAspectRatio="xMidYMid meet" version="1.0"><defs><clipPath id="id1"><path d="M 481 363 L 523.292969 363 L 523.292969 382 L 481 382 Z M 481 363 " clip-rule="nonzero"/></clipPath><clipPath id="id2"><path d="M 287.042969 363 L 330 363 L 330 382 L 287.042969 382 Z M 287.042969 363 " clip-rule="nonzero"/></clipPath></defs><path fill="#ffffff" d="M 437.699219 263.917969 C 436.605469 263.917969 435.605469 263.199219 435.292969 262.097656 C 434.839844 260.46875 434.449219 258.792969 434.128906 257.113281 C 434.117188 257.027344 434.105469 256.945312 434.097656 256.855469 C 433.6875 251.894531 420.984375 248.015625 405.175781 248.015625 C 389.363281 248.015625 376.660156 251.898438 376.25 256.855469 C 376.242188 256.945312 376.230469 257.027344 376.210938 257.113281 C 375.898438 258.792969 375.507812 260.46875 375.054688 262.089844 C 374.683594 263.421875 373.308594 264.191406 371.980469 263.824219 C 370.648438 263.453125 369.875 262.078125 370.246094 260.753906 C 370.648438 259.304688 371 257.808594 371.285156 256.300781 C 372.265625 246.511719 390.125 243.03125 405.175781 243.03125 C 420.226562 243.03125 438.082031 246.511719 439.054688 256.300781 C 439.347656 257.808594 439.699219 259.300781 440.101562 260.753906 C 440.472656 262.082031 439.699219 263.453125 438.367188 263.824219 C 438.144531 263.886719 437.917969 263.921875 437.699219 263.917969 Z M 405.175781 438.714844 C 393.683594 438.714844 382.195312 438.410156 374.820312 437.808594 C 362.761719 436.808594 354.066406 432.949219 348.222656 426.003906 C 337.195312 412.890625 339.140625 391.75 341.015625 371.308594 C 342.6875 353.160156 344.265625 336.011719 336.371094 327.53125 C 336.308594 327.457031 336.242188 327.386719 336.1875 327.308594 C 326.265625 313.8125 335.585938 305.027344 346.378906 294.851562 C 351.15625 290.34375 356.582031 285.230469 361.160156 279.027344 C 361.980469 277.917969 363.539062 277.683594 364.652344 278.5 C 365.757812 279.316406 365.996094 280.882812 365.175781 281.984375 C 360.332031 288.546875 354.734375 293.820312 349.804688 298.472656 C 338.429688 309.191406 333.246094 314.792969 340.128906 324.246094 C 349.425781 334.382812 347.757812 352.542969 345.988281 371.765625 C 344.203125 391.191406 342.355469 411.273438 352.050781 422.804688 C 356.984375 428.675781 364.566406 431.960938 375.230469 432.835938 C 389.5 434.019531 420.839844 434.019531 435.117188 432.835938 C 445.78125 431.960938 453.363281 428.679688 458.296875 422.804688 C 467.992188 411.273438 466.144531 391.191406 464.359375 371.765625 C 462.59375 352.542969 460.921875 334.382812 470.222656 324.246094 C 477.101562 314.792969 471.921875 309.207031 460.566406 298.492188 C 455.625 293.832031 450.023438 288.558594 445.171875 281.984375 C 444.351562 280.875 444.59375 279.316406 445.695312 278.5 C 446.808594 277.683594 448.375 277.921875 449.1875 279.027344 C 453.773438 285.242188 459.199219 290.355469 463.988281 294.871094 C 474.769531 305.03125 484.082031 313.8125 474.160156 327.308594 C 474.109375 327.386719 474.042969 327.457031 473.976562 327.53125 C 466.082031 336.011719 467.660156 353.160156 469.332031 371.308594 C 471.210938 391.75 473.152344 412.890625 462.125 426.003906 C 456.285156 432.949219 447.585938 436.808594 435.527344 437.808594 C 428.152344 438.410156 416.664062 438.714844 405.175781 438.714844 Z M 405.175781 438.714844 " fill-opacity="1" fill-rule="evenodd"/><path fill="#ffffff" d="M 405.175781 411.40625 C 395.746094 411.40625 386.550781 411.347656 377.738281 410.621094 C 377.003906 410.554688 375.152344 410.375 373.859375 409.996094 C 373.234375 409.816406 372.707031 409.402344 372.390625 408.84375 C 370.105469 404.851562 369.628906 394.585938 370.992188 378.320312 C 371.164062 376.300781 371.351562 374.25 371.539062 372.175781 C 373.136719 354.738281 374.949219 334.972656 366.640625 319.152344 C 366.003906 317.933594 366.46875 316.429688 367.691406 315.785156 C 368.914062 315.148438 370.421875 315.617188 371.066406 316.835938 C 380.050781 333.96875 378.171875 354.503906 376.511719 372.628906 C 376.324219 374.691406 376.132812 376.730469 375.964844 378.734375 C 374.476562 396.535156 375.5625 403.113281 376.328125 405.4375 C 376.921875 405.527344 377.582031 405.605469 378.148438 405.648438 C 386.773438 406.363281 395.847656 406.421875 405.171875 406.421875 C 414.5 406.421875 423.578125 406.363281 432.199219 405.648438 C 432.765625 405.605469 433.429688 405.527344 434.019531 405.4375 C 434.789062 403.113281 435.871094 396.535156 434.382812 378.734375 C 434.214844 376.730469 434.027344 374.691406 433.835938 372.628906 C 432.175781 354.503906 430.296875 333.96875 439.28125 316.835938 C 439.925781 315.617188 441.433594 315.148438 442.65625 315.785156 C 443.878906 316.429688 444.34375 317.933594 443.707031 319.152344 C 435.398438 334.980469 437.210938 354.738281 438.808594 372.175781 C 439 374.25 439.183594 376.300781 439.355469 378.320312 C 440.71875 394.585938 440.246094 404.851562 437.957031 408.84375 C 437.640625 409.398438 437.113281 409.816406 436.488281 409.996094 C 435.203125 410.375 433.34375 410.554688 432.609375 410.621094 C 423.796875 411.347656 414.601562 411.40625 405.175781 411.40625 Z M 405.175781 411.40625 " fill-opacity="1" fill-rule="evenodd"/><path fill="#ffffff" d="M 359.441406 310.476562 C 356.679688 314.480469 357.125 315.660156 357.132812 315.667969 C 357.140625 315.679688 357.976562 316.8125 364.234375 316.136719 C 368.828125 315.636719 374.585938 314.382812 380.683594 313.054688 C 389.671875 311.101562 398.949219 309.070312 405.171875 309.445312 C 411.378906 309.074219 420.679688 311.101562 429.664062 313.054688 C 435.761719 314.382812 441.519531 315.636719 446.113281 316.136719 C 452.371094 316.8125 453.207031 315.683594 453.214844 315.667969 C 453.222656 315.660156 453.667969 314.480469 450.90625 310.476562 C 438.035156 294.8125 445.234375 276.183594 449.535156 265.050781 C 450.375 262.875 451.375 260.285156 451.71875 258.789062 C 451.449219 258.859375 451.109375 258.957031 450.6875 259.105469 C 423.023438 271.941406 387.324219 271.941406 359.660156 259.105469 C 359.238281 258.957031 358.898438 258.859375 358.628906 258.789062 C 358.972656 260.285156 359.972656 262.875 360.8125 265.050781 C 365.113281 276.183594 372.3125 294.8125 359.441406 310.476562 Z M 360.738281 321.320312 C 356.964844 321.320312 354.359375 320.496094 352.980469 318.4375 C 350.71875 315.058594 353.273438 310.605469 355.390625 307.558594 C 355.429688 307.5 355.476562 307.441406 355.519531 307.390625 C 366.628906 293.949219 360.324219 277.636719 356.152344 266.839844 C 353.8125 260.777344 352.394531 257.121094 354.636719 254.824219 C 356.4375 252.980469 359.21875 253.65625 361.449219 254.453125 C 361.519531 254.480469 361.589844 254.503906 361.65625 254.539062 C 388.089844 266.839844 422.257812 266.839844 448.691406 254.539062 C 448.757812 254.503906 448.828125 254.480469 448.898438 254.453125 C 451.128906 253.65625 453.910156 252.980469 455.710938 254.824219 C 457.953125 257.121094 456.535156 260.78125 454.195312 266.839844 C 450.023438 277.636719 443.722656 293.949219 454.828125 307.390625 C 454.871094 307.441406 454.917969 307.5 454.957031 307.558594 C 457.074219 310.605469 459.628906 315.058594 457.367188 318.4375 C 454.171875 323.214844 444.351562 321.351562 428.605469 317.925781 C 419.875 316.023438 410.847656 314.058594 405.34375 314.429688 C 405.234375 314.433594 405.117188 314.4375 405.003906 314.429688 C 399.507812 314.058594 390.476562 316.027344 381.742188 317.925781 C 372.773438 319.878906 365.730469 321.320312 360.738281 321.320312 Z M 360.738281 321.320312 " fill-opacity="1" fill-rule="evenodd"/><path fill="#ffffff" d="M 328.515625 468.703125 L 481.832031 468.703125 L 481.832031 453.707031 C 481.832031 445.4375 475.09375 438.710938 466.816406 438.710938 L 343.53125 438.710938 C 335.253906 438.710938 328.515625 445.4375 328.515625 453.707031 Z M 484.328125 473.683594 L 326.019531 473.683594 C 324.640625 473.683594 323.523438 472.570312 323.523438 471.191406 L 323.523438 453.707031 C 323.523438 442.695312 332.5 433.734375 343.53125 433.734375 L 466.816406 433.734375 C 477.84375 433.734375 486.824219 442.695312 486.824219 453.707031 L 486.824219 471.191406 C 486.824219 472.570312 485.707031 473.683594 484.328125 473.683594 Z M 484.328125 473.683594 " fill-opacity="1" fill-rule="evenodd"/><path fill="#ffffff" d="M 445.039062 491.171875 L 365.308594 491.171875 C 359.101562 491.171875 354.050781 486.132812 354.050781 479.941406 L 354.054688 471.191406 C 354.054688 469.816406 355.171875 468.703125 356.546875 468.703125 C 357.933594 468.703125 359.042969 469.816406 359.042969 471.195312 L 359.042969 479.941406 C 359.042969 483.386719 361.855469 486.1875 365.308594 486.1875 L 445.039062 486.1875 C 448.492188 486.1875 451.304688 483.386719 451.304688 479.941406 L 451.304688 471.191406 C 451.304688 469.816406 452.421875 468.703125 453.800781 468.703125 C 455.175781 468.703125 456.292969 469.816406 456.292969 471.195312 L 456.296875 479.941406 C 456.296875 486.128906 451.246094 491.171875 445.039062 491.171875 Z M 445.039062 491.171875 " fill-opacity="1" fill-rule="evenodd"/><path fill="#ffffff" d="M 449.265625 534.226562 C 448.898438 534.226562 448.523438 534.140625 448.171875 533.972656 L 409.242188 514.933594 C 408.382812 514.515625 407.835938 513.648438 407.835938 512.703125 L 407.835938 488.679688 C 407.835938 487.304688 408.957031 486.1875 410.332031 486.1875 C 411.71875 486.1875 412.828125 487.304688 412.828125 488.679688 L 412.828125 511.144531 L 450.367188 529.496094 C 451.605469 530.097656 452.117188 531.589844 451.511719 532.828125 C 451.078125 533.710938 450.1875 534.226562 449.265625 534.226562 Z M 361.019531 534.257812 C 360.097656 534.257812 359.207031 533.746094 358.777344 532.863281 C 358.164062 531.621094 358.679688 530.128906 359.917969 529.527344 L 397.519531 511.144531 L 397.519531 488.679688 C 397.519531 487.304688 398.628906 486.1875 400.015625 486.1875 C 401.390625 486.1875 402.507812 487.304688 402.507812 488.679688 L 402.507812 512.703125 C 402.507812 513.648438 401.964844 514.519531 401.105469 514.933594 L 362.109375 534.003906 C 361.761719 534.171875 361.382812 534.257812 361.019531 534.257812 Z M 399.996094 551.304688 C 398.609375 551.304688 397.5 550.1875 397.5 548.8125 L 397.5 526.757812 L 367.191406 541.570312 C 365.957031 542.179688 364.460938 541.667969 363.851562 540.429688 C 363.25 539.195312 363.761719 537.703125 364.996094 537.09375 L 398.898438 520.519531 C 399.671875 520.144531 400.585938 520.191406 401.3125 520.644531 C 402.042969 521.097656 402.488281 521.902344 402.488281 522.757812 L 402.492188 548.8125 C 402.492188 550.1875 401.371094 551.304688 399.996094 551.304688 Z M 410.273438 551.308594 C 408.898438 551.308594 407.777344 550.195312 407.777344 548.816406 L 407.777344 522.71875 C 407.777344 521.855469 408.222656 521.058594 408.949219 520.605469 C 409.683594 520.152344 410.59375 520.105469 411.367188 520.480469 L 445.234375 537.039062 C 446.476562 537.644531 446.988281 539.136719 446.386719 540.375 C 445.773438 541.609375 444.28125 542.121094 443.042969 541.519531 L 412.769531 526.710938 L 412.769531 548.816406 C 412.769531 550.195312 411.652344 551.308594 410.273438 551.308594 Z M 410.273438 551.308594 " fill-opacity="1" fill-rule="evenodd"/><path fill="#ffffff" d="M 405.125 550.097656 C 401.007812 550.097656 397.65625 552.765625 397.65625 556.042969 C 397.65625 559.316406 401.007812 561.984375 405.121094 561.984375 C 409.242188 561.984375 412.589844 559.316406 412.589844 556.042969 C 412.589844 552.765625 409.242188 550.097656 405.125 550.097656 Z M 405.125 566.96875 C 398.253906 566.96875 392.664062 562.070312 392.664062 556.042969 C 392.667969 550.019531 398.253906 545.113281 405.121094 545.113281 C 411.992188 545.113281 417.578125 550.019531 417.578125 556.042969 C 417.582031 562.070312 411.992188 566.96875 405.125 566.96875 Z M 405.125 566.96875 " fill-opacity="1" fill-rule="evenodd"/><path fill="#ffffff" d="M 454.097656 533.167969 C 449.984375 533.167969 446.632812 535.835938 446.632812 539.113281 C 446.632812 542.386719 449.984375 545.054688 454.097656 545.054688 C 458.21875 545.054688 461.566406 542.390625 461.566406 539.113281 C 461.566406 535.835938 458.21875 533.167969 454.097656 533.167969 Z M 454.097656 550.039062 C 447.230469 550.039062 441.640625 545.140625 441.640625 539.113281 C 441.640625 533.089844 447.230469 528.183594 454.097656 528.183594 C 460.96875 528.183594 466.554688 533.089844 466.554688 539.113281 C 466.554688 545.140625 460.964844 550.039062 454.097656 550.039062 Z M 454.097656 550.039062 " fill-opacity="1" fill-rule="evenodd"/><path fill="#ffffff" d="M 343.863281 438.707031 C 343.863281 438.707031 343.863281 438.710938 343.855469 438.710938 C 321.769531 438.652344 312.289062 438.105469 307.394531 432.851562 C 302.984375 428.105469 303.496094 420.800781 304.4375 407.53125 C 304.964844 400.082031 305.621094 390.808594 305.621094 379.078125 C 305.621094 377.699219 306.738281 376.585938 308.117188 376.585938 C 309.496094 376.585938 310.613281 377.703125 310.613281 379.078125 C 310.613281 390.984375 309.949219 400.355469 309.417969 407.886719 C 308.605469 419.367188 308.109375 426.300781 311.046875 429.457031 C 314.695312 433.367188 325.882812 433.679688 343.871094 433.726562 C 345.253906 433.726562 346.367188 434.84375 346.359375 436.222656 C 346.359375 437.59375 345.242188 438.710938 343.863281 438.707031 Z M 343.863281 438.707031 " fill-opacity="1" fill-rule="evenodd"/><path fill="#ffffff" d="M 465.074219 438.707031 C 463.699219 438.707031 462.578125 437.601562 462.578125 436.222656 C 462.574219 434.847656 463.691406 433.726562 465.066406 433.726562 C 485.660156 433.691406 495.753906 433.257812 499.292969 429.457031 C 502.238281 426.300781 501.742188 419.371094 500.933594 407.886719 C 500.398438 400.351562 499.734375 390.984375 499.734375 379.078125 C 499.738281 377.703125 500.855469 376.585938 502.230469 376.585938 C 503.609375 376.585938 504.726562 377.703125 504.726562 379.078125 C 504.726562 390.808594 505.382812 400.082031 505.910156 407.53125 C 506.851562 420.800781 507.363281 428.113281 502.953125 432.851562 C 498.007812 438.15625 488.636719 438.671875 465.074219 438.707031 Z M 465.074219 438.707031 " fill-opacity="1" fill-rule="evenodd"/><g clip-path="url(#id1)"><path fill="#ffffff" d="M 486.148438 376.585938 L 518.3125 376.585938 L 518.3125 372.664062 C 518.3125 370.503906 516.550781 368.746094 514.382812 368.746094 L 490.074219 368.746094 C 487.910156 368.746094 486.148438 370.507812 486.148438 372.667969 Z M 520.808594 381.570312 L 483.652344 381.570312 C 482.273438 381.570312 481.15625 380.453125 481.15625 379.078125 L 481.15625 372.664062 C 481.15625 367.761719 485.152344 363.765625 490.070312 363.765625 L 514.382812 363.765625 C 519.300781 363.765625 523.304688 367.761719 523.304688 372.667969 L 523.304688 379.078125 C 523.304688 380.453125 522.1875 381.570312 520.808594 381.570312 Z M 520.808594 381.570312 " fill-opacity="1" fill-rule="evenodd"/></g><g clip-path="url(#id2)"><path fill="#ffffff" d="M 292.035156 376.585938 L 324.199219 376.585938 L 324.199219 372.664062 C 324.199219 370.503906 322.4375 368.746094 320.273438 368.746094 L 295.964844 368.746094 C 293.792969 368.746094 292.035156 370.507812 292.035156 372.667969 Z M 326.695312 381.570312 L 289.546875 381.570312 C 288.160156 381.570312 287.050781 380.453125 287.050781 379.078125 L 287.050781 372.664062 C 287.050781 367.761719 291.046875 363.765625 295.964844 363.765625 L 320.277344 363.765625 C 325.195312 363.765625 329.191406 367.761719 329.191406 372.667969 L 329.191406 379.078125 C 329.191406 380.453125 328.074219 381.570312 326.695312 381.570312 Z M 326.695312 381.570312 " fill-opacity="1" fill-rule="evenodd"/></g><path fill="#ffffff" d="M 356.125 533.167969 C 352.007812 533.167969 348.660156 535.835938 348.660156 539.113281 C 348.660156 542.386719 352.003906 545.054688 356.125 545.054688 C 360.238281 545.054688 363.59375 542.390625 363.59375 539.113281 C 363.59375 535.835938 360.238281 533.167969 356.125 533.167969 Z M 356.125 550.039062 C 349.257812 550.039062 343.667969 545.140625 343.667969 539.113281 C 343.671875 533.089844 349.257812 528.183594 356.125 528.183594 C 362.996094 528.183594 368.578125 533.089844 368.578125 539.113281 C 368.578125 545.140625 362.992188 550.039062 356.125 550.039062 Z M 356.125 550.039062 " fill-opacity="1" fill-rule="evenodd"/></svg>