<svg xmlns="http://www.w3.org/2000/svg" xmlns:xlink="http://www.w3.org/1999/xlink" width="188" zoomAndPan="magnify" viewBox="0 0 141.12 141.750002" height="188" preserveAspectRatio="xMidYMid meet" version="1.0"><defs><clipPath id="id1"><path d="M 0 0.316406 L 140.125 0.316406 L 140.125 141.1875 L 0 141.1875 Z M 0 0.316406 " clip-rule="nonzero"/></clipPath><clipPath id="id2"><path d="M 0 0.316406 L 140.125 0.316406 L 140.125 141 L 0 141 Z M 0 0.316406 " clip-rule="nonzero"/></clipPath><clipPath id="id3"><path d="M 0 0.316406 L 140.125 0.316406 L 140.125 140.441406 L 0 140.441406 Z M 0 0.316406 " clip-rule="nonzero"/></clipPath><clipPath id="id4"><path d="M 45.414062 60 L 73 60 L 73 102.703125 L 45.414062 102.703125 Z M 45.414062 60 " clip-rule="nonzero"/></clipPath><clipPath id="id5"><path d="M 57 44.875 L 88 44.875 L 88 87 L 57 87 Z M 57 44.875 " clip-rule="nonzero"/></clipPath><clipPath id="id6"><path d="M 45.414062 76 L 48 76 L 48 79 L 45.414062 79 Z M 45.414062 76 " clip-rule="nonzero"/></clipPath><clipPath id="id7"><path d="M 81 96 L 92 96 L 92 102.703125 L 81 102.703125 Z M 81 96 " clip-rule="nonzero"/></clipPath><clipPath id="id8"><path d="M 78 86 L 94.347656 86 L 94.347656 97 L 78 97 Z M 78 86 " clip-rule="nonzero"/></clipPath></defs><g clip-path="url(#id1)"><path fill="#ffffff" d="M 0 0.316406 L 140.125 0.316406 L 140.125 147.855469 L 0 147.855469 Z M 0 0.316406 " fill-opacity="1" fill-rule="nonzero"/></g><g clip-path="url(#id2)"><path fill="#ffffff" d="M 0 0.316406 L 140.125 0.316406 L 140.125 140.441406 L 0 140.441406 Z M 0 0.316406 " fill-opacity="1" fill-rule="nonzero"/></g><g clip-path="url(#id3)"><path fill="#ffffff" d="M 0 0.316406 L 140.125 0.316406 L 140.125 140.441406 L 0 140.441406 Z M 0 0.316406 " fill-opacity="1" fill-rule="nonzero"/><path fill="#ffffff" d="M 0 0.316406 L 140.125 0.316406 L 140.125 140.441406 L 0 140.441406 Z M 0 0.316406 " fill-opacity="1" fill-rule="nonzero"/></g><g clip-path="url(#id4)"><path fill="#000000" d="M 72.074219 78.128906 L 70.078125 78.128906 L 70.078125 89.019531 L 72.074219 89.019531 L 72.074219 78.128906 M 57.792969 60.023438 C 54.523438 60.269531 51.578125 61.703125 49.394531 63.890625 C 46.992188 66.300781 45.503906 69.640625 45.503906 73.316406 L 45.503906 89.019531 C 45.503906 92.699219 46.992188 96.035156 49.394531 98.445312 C 51.796875 100.855469 55.121094 102.351562 58.785156 102.351562 C 58.789062 102.351562 58.789062 102.351562 58.789062 102.351562 C 62.453125 102.351562 65.78125 100.855469 68.183594 98.445312 C 70.585938 96.035156 72.074219 92.699219 72.074219 89.019531 L 70.078125 89.019531 C 70.078125 92.152344 68.816406 94.976562 66.773438 97.03125 C 64.726562 99.082031 61.910156 100.351562 58.789062 100.351562 C 55.667969 100.351562 52.851562 99.082031 50.804688 97.03125 C 48.761719 94.976562 47.5 92.152344 47.496094 89.019531 L 47.496094 78.128906 L 45.503906 78.128906 L 45.503906 76.128906 L 47.496094 76.128906 L 47.496094 73.316406 C 47.5 70.1875 48.761719 67.359375 50.804688 65.304688 C 52.628906 63.476562 55.070312 62.269531 57.792969 62.03125 L 57.792969 60.023438 M 59.785156 60.023438 L 59.785156 62.03125 C 62.507812 62.269531 64.945312 63.476562 66.773438 65.304688 C 68.816406 67.359375 70.078125 70.1875 70.078125 73.316406 L 70.078125 76.128906 L 72.074219 76.128906 L 72.074219 73.316406 C 72.074219 69.640625 70.585938 66.300781 68.183594 63.890625 C 66 61.703125 63.054688 60.269531 59.785156 60.023438 " fill-opacity="1" fill-rule="nonzero"/></g><g clip-path="url(#id5)"><path fill="#000000" d="M 58.789062 61.988281 C 58.453125 61.988281 58.121094 62.003906 57.792969 62.03125 L 57.792969 68.277344 C 58.113281 68.195312 58.445312 68.152344 58.789062 68.152344 C 58.789062 68.152344 58.789062 68.152344 58.792969 68.152344 C 59.132812 68.152344 59.46875 68.195312 59.785156 68.277344 L 59.785156 62.03125 C 59.457031 62.003906 59.125 61.988281 58.789062 61.988281 M 74.796875 44.867188 L 70.550781 44.867188 C 67.03125 44.863281 63.835938 46.300781 61.527344 48.613281 C 59.222656 50.929688 57.792969 54.136719 57.792969 57.667969 L 57.792969 60.023438 C 58.121094 60 58.453125 59.988281 58.789062 59.988281 C 59.125 59.988281 59.457031 60 59.785156 60.023438 L 59.785156 57.667969 C 59.785156 54.679688 60.988281 51.988281 62.9375 50.027344 C 64.890625 48.074219 67.574219 46.867188 70.550781 46.867188 L 74.796875 46.867188 C 77.773438 46.867188 80.460938 48.074219 82.410156 50.011719 C 84.363281 51.953125 85.5625 54.613281 85.5625 57.515625 L 85.5625 86.050781 L 87.554688 86.050781 L 87.554688 57.515625 C 87.554688 54.054688 86.121094 50.886719 83.8125 48.59375 C 81.507812 46.300781 78.316406 44.867188 74.796875 44.867188 " fill-opacity="1" fill-rule="nonzero"/></g><path fill="#000000" d="M 58.789062 59.988281 C 58.453125 59.988281 58.121094 60 57.792969 60.023438 L 57.792969 62.03125 C 58.121094 62.003906 58.453125 61.988281 58.789062 61.988281 C 59.125 61.988281 59.457031 62.003906 59.785156 62.03125 L 59.785156 60.023438 C 59.457031 60 59.125 59.988281 58.789062 59.988281 " fill-opacity="1" fill-rule="nonzero"/><path fill="#000000" d="M 56.777344 78.128906 L 54.785156 78.128906 L 54.785156 78.628906 C 54.785156 79.738281 55.234375 80.746094 55.957031 81.472656 C 56.679688 82.195312 57.683594 82.648438 58.785156 82.648438 C 58.789062 82.648438 58.789062 82.648438 58.789062 82.648438 C 59.890625 82.648438 60.898438 82.195312 61.621094 81.472656 C 62.34375 80.746094 62.792969 79.738281 62.792969 78.628906 L 60.800781 78.628906 C 60.796875 79.191406 60.574219 79.6875 60.210938 80.054688 C 59.84375 80.421875 59.347656 80.648438 58.789062 80.648438 C 58.230469 80.648438 57.734375 80.421875 57.367188 80.054688 C 57.003906 79.6875 56.78125 79.191406 56.777344 78.628906 L 56.777344 78.128906 M 59.785156 68.277344 L 59.785156 70.152344 L 58.789062 70.152344 C 59.347656 70.152344 59.84375 70.378906 60.210938 70.746094 C 60.574219 71.113281 60.796875 71.609375 60.800781 72.171875 L 60.800781 78.628906 L 62.792969 78.628906 L 62.792969 78.128906 L 60.800781 78.128906 L 60.800781 76.128906 L 62.792969 76.128906 L 62.792969 72.171875 C 62.792969 71.066406 62.34375 70.054688 61.621094 69.328125 C 61.121094 68.832031 60.492188 68.460938 59.785156 68.277344 M 57.792969 68.277344 C 57.085938 68.460938 56.453125 68.832031 55.957031 69.328125 C 55.234375 70.054688 54.785156 71.0625 54.785156 72.171875 L 54.785156 76.128906 L 56.777344 76.128906 L 56.777344 72.171875 C 56.78125 71.609375 57.003906 71.113281 57.367188 70.746094 C 57.734375 70.378906 58.230469 70.15625 58.789062 70.152344 L 57.792969 70.152344 L 57.792969 68.277344 " fill-opacity="1" fill-rule="nonzero"/><path fill="#000000" d="M 58.789062 68.152344 C 58.445312 68.152344 58.113281 68.195312 57.792969 68.28125 L 57.792969 70.152344 L 59.785156 70.152344 L 59.785156 68.28125 C 59.46875 68.195312 59.132812 68.152344 58.789062 68.152344 " fill-opacity="1" fill-rule="nonzero"/><path fill="#000000" d="M 54.785156 76.128906 L 47.496094 76.128906 L 47.496094 78.128906 L 54.785156 78.128906 L 54.785156 76.128906 " fill-opacity="1" fill-rule="nonzero"/><g clip-path="url(#id6)"><path fill="#000000" d="M 47.496094 76.128906 L 45.503906 76.128906 L 45.503906 78.128906 L 47.496094 78.128906 L 47.496094 76.128906 " fill-opacity="1" fill-rule="nonzero"/></g><path fill="#000000" d="M 56.777344 76.128906 L 54.785156 76.128906 L 54.785156 78.128906 L 56.777344 78.128906 L 56.777344 76.128906 " fill-opacity="1" fill-rule="nonzero"/><path fill="#000000" d="M 70.078125 76.128906 L 62.792969 76.128906 L 62.792969 78.128906 L 70.078125 78.128906 L 70.078125 76.128906 M 72.074219 76.128906 L 72.074219 78.128906 L 72.074219 76.128906 " fill-opacity="1" fill-rule="nonzero"/><path fill="#000000" d="M 72.074219 76.128906 L 70.078125 76.128906 L 70.078125 78.128906 L 72.074219 78.128906 L 72.074219 76.128906 " fill-opacity="1" fill-rule="nonzero"/><path fill="#000000" d="M 62.792969 76.128906 L 60.800781 76.128906 L 60.800781 78.128906 L 62.792969 78.128906 L 62.792969 76.128906 " fill-opacity="1" fill-rule="nonzero"/><g clip-path="url(#id7)"><path fill="#000000" d="M 81.824219 96.070312 L 81.824219 101.691406 C 81.824219 101.957031 81.929688 102.214844 82.117188 102.398438 C 82.300781 102.585938 82.558594 102.691406 82.820312 102.691406 L 90.292969 102.691406 C 90.554688 102.691406 90.8125 102.585938 90.996094 102.398438 C 91.183594 102.214844 91.289062 101.957031 91.289062 101.691406 L 91.289062 96.070312 C 90.953125 96.164062 90.601562 96.210938 90.242188 96.210938 L 89.296875 96.210938 L 89.296875 100.691406 L 83.820312 100.691406 L 83.820312 96.210938 L 82.875 96.210938 C 82.875 96.210938 82.871094 96.210938 82.871094 96.210938 C 82.511719 96.210938 82.160156 96.164062 81.824219 96.070312 " fill-opacity="1" fill-rule="nonzero"/></g><g clip-path="url(#id8)"><path fill="#000000" d="M 90.242188 86.050781 L 87.554688 86.050781 L 87.554688 88.050781 L 90.242188 88.050781 C 90.796875 88.050781 91.289062 88.273438 91.65625 88.636719 C 92.019531 89.003906 92.242188 89.5 92.242188 90.058594 L 92.242188 92.203125 C 92.242188 92.761719 92.019531 93.257812 91.65625 93.625 C 91.289062 93.988281 90.796875 94.210938 90.242188 94.210938 L 82.875 94.210938 C 82.320312 94.210938 81.824219 93.988281 81.460938 93.625 C 81.097656 93.257812 80.875 92.761719 80.875 92.203125 L 80.875 90.058594 C 80.875 89.5 81.097656 89.003906 81.460938 88.636719 C 81.824219 88.273438 82.320312 88.050781 82.875 88.050781 L 85.5625 88.050781 L 85.5625 86.050781 L 82.875 86.050781 C 81.773438 86.050781 80.769531 86.5 80.050781 87.222656 C 79.328125 87.945312 78.878906 88.953125 78.878906 90.058594 L 80.875 90.058594 L 78.878906 90.058594 L 78.878906 92.203125 C 78.878906 93.308594 79.328125 94.316406 80.050781 95.039062 C 80.53125 95.523438 81.144531 95.886719 81.824219 96.070312 L 81.824219 94.210938 L 83.820312 94.210938 L 83.820312 96.210938 L 89.296875 96.210938 L 89.296875 94.210938 L 91.289062 94.210938 L 91.289062 96.070312 C 91.972656 95.886719 92.582031 95.523438 93.066406 95.039062 C 93.785156 94.316406 94.234375 93.308594 94.234375 92.203125 L 94.234375 90.058594 C 94.234375 88.953125 93.785156 87.945312 93.066406 87.222656 C 92.347656 86.5 91.339844 86.050781 90.242188 86.050781 " fill-opacity="1" fill-rule="nonzero"/></g><path fill="#000000" d="M 87.554688 86.050781 L 85.5625 86.050781 L 85.5625 88.050781 L 87.554688 88.050781 L 87.554688 86.050781 " fill-opacity="1" fill-rule="nonzero"/><path fill="#000000" d="M 83.820312 94.210938 L 81.824219 94.210938 L 81.824219 96.070312 C 82.160156 96.164062 82.511719 96.210938 82.871094 96.210938 C 82.871094 96.210938 82.875 96.210938 82.875 96.210938 L 83.820312 96.210938 L 83.820312 94.210938 M 91.289062 94.210938 L 89.296875 94.210938 L 89.296875 96.210938 L 90.242188 96.210938 C 90.601562 96.210938 90.953125 96.164062 91.289062 96.070312 L 91.289062 94.210938 " fill-opacity="1" fill-rule="nonzero"/><path fill="#000000" d="M 88.296875 96.847656 L 86.914062 96.847656 L 86.914062 99.976562 L 88.296875 99.976562 L 88.296875 96.847656 " fill-opacity="1" fill-rule="nonzero"/><path fill="#000000" d="M 86.203125 96.847656 L 84.816406 96.847656 L 84.816406 99.976562 L 86.203125 99.976562 L 86.203125 96.847656 " fill-opacity="1" fill-rule="nonzero"/></svg>