<svg xmlns="http://www.w3.org/2000/svg" xmlns:xlink="http://www.w3.org/1999/xlink" width="1080" zoomAndPan="magnify" viewBox="0 0 810 809.999993" height="1080" preserveAspectRatio="xMidYMid meet" version="1.0"><defs><clipPath id="id1"><path d="M 315 216.683594 L 502 216.683594 L 502 364 L 315 364 Z M 315 216.683594 " clip-rule="nonzero"/></clipPath><clipPath id="id2"><path d="M 501 363 L 526.300781 363 L 526.300781 421 L 501 421 Z M 501 363 " clip-rule="nonzero"/></clipPath><clipPath id="id3"><path d="M 290.800781 363 L 316 363 L 316 421 L 290.800781 421 Z M 290.800781 363 " clip-rule="nonzero"/></clipPath><clipPath id="id4"><path d="M 453 339 L 502 339 L 502 447.683594 L 453 447.683594 Z M 453 339 " clip-rule="nonzero"/></clipPath><clipPath id="id5"><path d="M 315 339 L 364 339 L 364 447.683594 L 315 447.683594 Z M 315 339 " clip-rule="nonzero"/></clipPath></defs><rect x="-81" width="972" fill="#ffffff" y="-80.999999" height="971.999992" fill-opacity="1"/><rect x="-81" width="972" fill="#000000" y="-80.999999" height="971.999992" fill-opacity="1"/><rect x="-81" width="972" fill="#ffffff" y="-80.999999" height="971.999992" fill-opacity="1"/><rect x="-81" width="972" fill="#000000" y="-80.999999" height="971.999992" fill-opacity="1"/><g clip-path="url(#id1)"><path fill="#ffffff" d="M 408.605469 216.78125 C 408.601562 216.78125 408.597656 216.78125 408.59375 216.78125 C 382.96875 216.78125 359.726562 227.152344 342.933594 243.902344 C 326.140625 260.648438 315.734375 283.828125 315.738281 309.382812 L 315.738281 363.046875 C 315.785156 356.589844 318.445312 350.710938 322.699219 346.472656 C 323.328125 345.847656 323.992188 345.253906 324.6875 344.699219 L 324.6875 309.382812 C 324.691406 286.261719 334.074219 265.371094 349.265625 250.214844 C 364.464844 235.066406 385.414062 225.710938 408.597656 225.707031 C 431.78125 225.710938 452.730469 235.066406 467.929688 250.214844 C 483.121094 265.371094 492.503906 286.261719 492.507812 309.382812 L 492.507812 344.699219 C 493.203125 345.253906 493.867188 345.847656 494.492188 346.472656 C 498.746094 350.710938 501.40625 356.589844 501.457031 363.046875 L 501.457031 309.382812 C 501.457031 283.828125 491.054688 260.648438 474.257812 243.902344 C 457.46875 227.15625 434.230469 216.78125 408.605469 216.78125 " fill-opacity="1" fill-rule="nonzero"/></g><g clip-path="url(#id2)"><path fill="#ffffff" d="M 501.457031 363.046875 L 501.457031 372.125 C 505.296875 372.980469 508.71875 374.914062 511.414062 377.597656 C 515.117188 381.296875 517.390625 386.359375 517.394531 391.996094 C 517.394531 397.632812 515.117188 402.695312 511.414062 406.390625 C 508.71875 409.078125 505.296875 411.011719 501.457031 411.863281 L 501.457031 420.941406 C 507.769531 419.976562 513.441406 417.003906 517.746094 412.703125 C 523.050781 407.417969 526.347656 400.066406 526.347656 391.996094 C 526.347656 383.921875 523.050781 376.574219 517.746094 371.289062 C 513.441406 366.988281 507.769531 364.011719 501.457031 363.046875 " fill-opacity="1" fill-rule="nonzero"/></g><path fill="#ffffff" d="M 501.453125 363.046875 C 501.453125 363.109375 501.457031 363.171875 501.457031 363.234375 L 501.453125 363.046875 " fill-opacity="1" fill-rule="nonzero"/><g clip-path="url(#id3)"><path fill="#ffffff" d="M 315.738281 363.046875 C 309.421875 364.011719 303.75 366.988281 299.445312 371.289062 C 294.140625 376.574219 290.84375 383.921875 290.84375 391.996094 C 290.84375 400.066406 294.140625 407.417969 299.445312 412.703125 C 303.75 417.003906 309.421875 419.976562 315.738281 420.941406 L 315.738281 411.863281 C 311.894531 411.007812 308.472656 409.078125 305.777344 406.390625 C 302.074219 402.695312 299.800781 397.632812 299.796875 391.996094 C 299.796875 386.359375 302.074219 381.296875 305.777344 377.597656 C 308.476562 374.914062 311.894531 372.980469 315.738281 372.125 L 315.738281 363.046875 " fill-opacity="1" fill-rule="nonzero"/></g><g clip-path="url(#id4)"><path fill="#ffffff" d="M 501.457031 420.945312 C 499.996094 421.167969 498.5 421.28125 496.980469 421.28125 L 492.503906 421.28125 L 492.503906 423.882812 L 501.457031 423.882812 L 501.457031 420.945312 M 501.457031 372.125 L 501.457031 372.628906 L 492.503906 372.628906 L 492.503906 412.355469 L 496.980469 412.355469 C 498.519531 412.355469 500.015625 412.1875 501.453125 411.867188 L 501.453125 372.125 L 501.457031 372.125 M 477.691406 339.53125 C 477.6875 339.53125 477.6875 339.53125 477.683594 339.53125 C 471.132812 339.53125 465.164062 342.191406 460.878906 346.472656 C 456.582031 350.75 453.914062 356.703125 453.914062 363.234375 L 453.914062 423.882812 C 453.914062 430.414062 456.582031 436.367188 460.878906 440.644531 C 465.164062 444.925781 471.128906 447.585938 477.675781 447.585938 C 477.679688 447.585938 477.683594 447.585938 477.683594 447.585938 C 484.234375 447.589844 490.203125 444.925781 494.492188 440.644531 C 498.785156 436.367188 501.457031 430.414062 501.453125 423.882812 L 492.503906 423.882812 C 492.5 427.976562 490.851562 431.644531 488.164062 434.332031 C 485.46875 437.011719 481.792969 438.65625 477.683594 438.660156 C 473.578125 438.65625 469.902344 437.011719 467.207031 434.332031 C 464.515625 431.644531 462.867188 427.976562 462.867188 423.882812 L 462.867188 363.234375 C 462.867188 359.140625 464.515625 355.476562 467.207031 352.785156 C 469.902344 350.105469 473.578125 348.460938 477.683594 348.457031 C 481.792969 348.460938 485.46875 350.105469 488.164062 352.785156 C 490.851562 355.476562 492.5 359.140625 492.503906 363.234375 L 492.503906 344.699219 C 488.445312 341.46875 483.277344 339.53125 477.691406 339.53125 " fill-opacity="1" fill-rule="nonzero"/></g><path fill="#ffffff" d="M 496.980469 371.636719 L 492.503906 371.636719 L 492.503906 372.625 L 501.457031 372.625 L 501.457031 372.125 C 500.015625 371.804688 498.519531 371.636719 496.980469 371.636719 M 492.503906 344.699219 L 492.503906 363.234375 L 492.503906 362.710938 L 496.980469 362.710938 C 496.984375 362.710938 496.984375 362.710938 496.988281 362.710938 C 498.503906 362.710938 499.996094 362.824219 501.453125 363.050781 C 501.40625 356.589844 498.746094 350.710938 494.492188 346.476562 C 493.863281 345.847656 493.199219 345.253906 492.503906 344.699219 " fill-opacity="1" fill-rule="nonzero"/><path fill="#ffffff" d="M 501.457031 411.867188 C 500.015625 412.1875 498.519531 412.355469 496.980469 412.355469 L 492.503906 412.355469 L 492.503906 421.28125 L 496.980469 421.28125 C 498.5 421.28125 499.996094 421.167969 501.457031 420.945312 L 501.457031 411.867188 " fill-opacity="1" fill-rule="nonzero"/><path fill="#ffffff" d="M 496.988281 362.710938 C 496.984375 362.710938 496.984375 362.710938 496.980469 362.710938 L 492.503906 362.710938 L 492.503906 371.636719 L 496.980469 371.636719 C 498.519531 371.636719 500.015625 371.804688 501.457031 372.125 L 501.457031 363.234375 C 501.457031 363.171875 501.457031 363.109375 501.453125 363.046875 C 499.996094 362.824219 498.503906 362.710938 496.988281 362.710938 " fill-opacity="1" fill-rule="nonzero"/><g clip-path="url(#id5)"><path fill="#ffffff" d="M 339.511719 339.53125 C 339.511719 339.53125 339.507812 339.53125 339.507812 339.53125 C 333.917969 339.53125 328.75 341.46875 324.6875 344.699219 L 324.6875 372.625 L 315.738281 372.625 L 315.738281 411.867188 C 317.175781 412.183594 318.671875 412.355469 320.210938 412.355469 L 324.6875 412.355469 L 324.6875 421.28125 L 320.210938 421.28125 C 320.210938 421.28125 320.210938 421.28125 320.207031 421.28125 C 318.6875 421.28125 317.195312 421.167969 315.734375 420.945312 L 315.734375 423.882812 C 315.734375 430.414062 318.402344 436.367188 322.699219 440.644531 C 326.984375 444.925781 332.949219 447.585938 339.496094 447.585938 C 339.5 447.585938 339.503906 447.585938 339.507812 447.585938 C 346.054688 447.589844 352.027344 444.925781 356.3125 440.644531 C 360.609375 436.367188 363.277344 430.414062 363.277344 423.882812 L 354.324219 423.882812 C 354.324219 427.976562 352.675781 431.644531 349.984375 434.332031 C 347.289062 437.011719 343.613281 438.65625 339.507812 438.660156 C 335.402344 438.65625 331.722656 437.011719 329.027344 434.332031 C 326.339844 431.644531 324.691406 427.976562 324.6875 423.882812 L 324.6875 363.234375 C 324.6875 359.140625 326.339844 355.476562 329.027344 352.785156 C 331.722656 350.105469 335.402344 348.460938 339.507812 348.457031 C 343.613281 348.460938 347.289062 350.105469 349.984375 352.785156 C 352.671875 355.476562 354.324219 359.140625 354.324219 363.234375 L 354.324219 423.882812 L 363.277344 423.882812 L 363.277344 363.234375 C 363.277344 356.703125 360.609375 350.75 356.3125 346.476562 C 352.027344 342.191406 346.058594 339.53125 339.511719 339.53125 " fill-opacity="1" fill-rule="nonzero"/></g><path fill="#ffffff" d="M 324.6875 371.636719 L 320.210938 371.636719 C 318.671875 371.636719 317.175781 371.804688 315.738281 372.125 L 315.738281 372.625 L 324.6875 372.625 L 324.6875 371.636719 M 324.6875 344.699219 C 323.992188 345.253906 323.328125 345.847656 322.699219 346.472656 C 318.445312 350.710938 315.785156 356.589844 315.738281 363.046875 C 317.199219 362.824219 318.691406 362.710938 320.214844 362.710938 L 324.6875 362.710938 L 324.6875 344.699219 " fill-opacity="1" fill-rule="nonzero"/><path fill="#ffffff" d="M 315.738281 411.867188 L 315.738281 420.945312 C 317.195312 421.167969 318.691406 421.28125 320.207031 421.28125 C 320.210938 421.28125 320.210938 421.28125 320.214844 421.28125 L 324.6875 421.28125 L 324.6875 412.355469 L 320.214844 412.355469 C 318.671875 412.355469 317.175781 412.1875 315.738281 411.867188 " fill-opacity="1" fill-rule="nonzero"/><path fill="#ffffff" d="M 324.6875 362.710938 L 320.210938 362.710938 C 318.691406 362.710938 317.199219 362.824219 315.738281 363.046875 C 315.738281 363.109375 315.734375 363.171875 315.734375 363.234375 L 315.734375 372.125 C 317.175781 371.804688 318.671875 371.636719 320.210938 371.636719 L 324.6875 371.636719 L 324.6875 362.710938 " fill-opacity="1" fill-rule="nonzero"/></svg>