<svg xmlns="http://www.w3.org/2000/svg" xmlns:xlink="http://www.w3.org/1999/xlink" width="188" zoomAndPan="magnify" viewBox="0 0 141.12 141.750002" height="188" preserveAspectRatio="xMidYMid meet" version="1.0"><defs><clipPath id="id1"><path d="M 42.03125 43.59375 L 109 43.59375 L 109 89.558594 L 42.03125 89.558594 Z M 42.03125 43.59375 " clip-rule="nonzero"/></clipPath></defs><g clip-path="url(#id1)"><path fill="#100f0d" d="M 46.488281 66.070312 L 49.664062 54.449219 C 50.328125 52.019531 52.558594 50.320312 55.082031 50.320312 L 65.777344 50.320312 L 66.566406 57.417969 C 66.753906 59.121094 68.195312 60.410156 69.914062 60.410156 L 81.621094 60.410156 C 83.339844 60.410156 84.777344 59.121094 84.964844 57.417969 L 85.757812 50.320312 L 96.453125 50.320312 C 98.976562 50.320312 101.203125 52.019531 101.871094 54.449219 L 105.046875 66.070312 C 106.476562 71.308594 106.992188 76.714844 106.574219 82.132812 C 106.351562 85.039062 103.882812 87.316406 100.964844 87.316406 C 98.480469 87.316406 96.320312 85.722656 95.59375 83.351562 L 92.566406 73.535156 C 92.421875 73.0625 91.984375 72.742188 91.492188 72.742188 L 88.089844 72.742188 C 88.804688 71.800781 89.246094 70.644531 89.246094 69.378906 C 89.246094 66.285156 86.726562 63.773438 83.628906 63.773438 C 80.53125 63.773438 78.011719 66.285156 78.011719 69.378906 C 78.011719 70.644531 78.453125 71.800781 79.167969 72.742188 L 72.367188 72.742188 C 73.082031 71.800781 73.519531 70.644531 73.519531 69.378906 C 73.519531 66.285156 71.003906 63.773438 67.90625 63.773438 C 64.808594 63.773438 62.289062 66.285156 62.289062 69.378906 C 62.289062 70.644531 62.726562 71.800781 63.441406 72.742188 L 60.042969 72.742188 C 59.546875 72.742188 59.113281 73.0625 58.96875 73.535156 L 55.941406 83.351562 C 55.210938 85.722656 53.054688 87.316406 50.566406 87.316406 C 47.644531 87.316406 45.183594 85.039062 44.960938 82.132812 C 44.542969 76.714844 45.054688 71.308594 46.488281 66.070312 Z M 55.550781 46.957031 C 55.550781 46.335938 56.054688 45.835938 56.671875 45.835938 L 61.167969 45.835938 C 61.785156 45.835938 62.289062 46.335938 62.289062 46.957031 L 62.289062 48.078125 L 55.550781 48.078125 Z M 83.496094 50.320312 L 82.734375 57.167969 C 82.671875 57.738281 82.191406 58.167969 81.621094 58.167969 L 69.914062 58.167969 C 69.34375 58.167969 68.859375 57.738281 68.800781 57.167969 L 68.035156 50.320312 Z M 89.246094 46.957031 C 89.246094 46.335938 89.75 45.835938 90.367188 45.835938 L 94.859375 45.835938 C 95.476562 45.835938 95.984375 46.335938 95.984375 46.957031 L 95.984375 48.078125 L 89.246094 48.078125 Z M 80.257812 69.378906 C 80.257812 67.523438 81.769531 66.015625 83.628906 66.015625 C 85.488281 66.015625 86.996094 67.523438 86.996094 69.378906 C 86.996094 71.234375 85.488281 72.742188 83.628906 72.742188 C 81.769531 72.742188 80.257812 71.234375 80.257812 69.378906 Z M 64.535156 69.378906 C 64.535156 67.523438 66.042969 66.015625 67.90625 66.015625 C 69.765625 66.015625 71.273438 67.523438 71.273438 69.378906 C 71.273438 71.234375 69.765625 72.742188 67.90625 72.742188 C 66.042969 72.742188 64.535156 71.234375 64.535156 69.378906 Z M 50.566406 89.558594 C 54.046875 89.558594 57.070312 87.328125 58.089844 84.015625 L 60.871094 74.984375 L 90.660156 74.984375 L 93.441406 84.015625 C 94.464844 87.328125 97.488281 89.558594 100.964844 89.558594 C 105.050781 89.558594 108.5 86.371094 108.8125 82.308594 C 109.25 76.632812 108.710938 70.96875 107.210938 65.480469 L 104.039062 53.859375 C 103.265625 51.042969 100.992188 48.953125 98.230469 48.304688 L 98.230469 46.957031 C 98.230469 45.097656 96.71875 43.59375 94.859375 43.59375 L 90.367188 43.59375 C 88.507812 43.59375 86.996094 45.097656 86.996094 46.957031 L 86.996094 48.078125 L 64.535156 48.078125 L 64.535156 46.957031 C 64.535156 45.097656 63.027344 43.59375 61.167969 43.59375 L 56.671875 43.59375 C 54.8125 43.59375 53.304688 45.097656 53.304688 46.957031 L 53.304688 48.304688 C 50.539062 48.953125 48.261719 51.042969 47.496094 53.859375 L 44.320312 65.480469 C 42.824219 70.96875 42.285156 76.632812 42.71875 82.308594 C 43.035156 86.371094 46.480469 89.558594 50.566406 89.558594 " fill-opacity="1" fill-rule="nonzero"/></g><path fill="#100f0d" d="M 94.296875 53.683594 C 94.609375 53.683594 94.859375 53.933594 94.859375 54.242188 C 94.859375 54.554688 94.609375 54.804688 94.296875 54.804688 C 93.988281 54.804688 93.738281 54.554688 93.738281 54.242188 C 93.738281 53.933594 93.988281 53.683594 94.296875 53.683594 Z M 94.296875 57.046875 C 95.847656 57.046875 97.105469 55.789062 97.105469 54.242188 C 97.105469 52.695312 95.847656 51.441406 94.296875 51.441406 C 92.75 51.441406 91.492188 52.695312 91.492188 54.242188 C 91.492188 55.789062 92.75 57.046875 94.296875 57.046875 " fill-opacity="1" fill-rule="nonzero"/><path fill="#100f0d" d="M 94.296875 64.332031 C 93.988281 64.332031 93.738281 64.082031 93.738281 63.773438 C 93.738281 63.460938 93.988281 63.210938 94.296875 63.210938 C 94.609375 63.210938 94.859375 63.460938 94.859375 63.773438 C 94.859375 64.082031 94.609375 64.332031 94.296875 64.332031 Z M 94.296875 60.96875 C 92.75 60.96875 91.492188 62.226562 91.492188 63.773438 C 91.492188 65.320312 92.75 66.574219 94.296875 66.574219 C 95.847656 66.574219 97.105469 65.320312 97.105469 63.773438 C 97.105469 62.226562 95.847656 60.96875 94.296875 60.96875 " fill-opacity="1" fill-rule="nonzero"/><path fill="#100f0d" d="M 89.804688 58.726562 C 90.117188 58.726562 90.367188 58.976562 90.367188 59.289062 C 90.367188 59.597656 90.117188 59.847656 89.804688 59.847656 C 89.496094 59.847656 89.246094 59.597656 89.246094 59.289062 C 89.246094 58.976562 89.496094 58.726562 89.804688 58.726562 Z M 89.804688 62.089844 C 91.355469 62.089844 92.613281 60.835938 92.613281 59.289062 C 92.613281 57.742188 91.355469 56.484375 89.804688 56.484375 C 88.257812 56.484375 86.996094 57.742188 86.996094 59.289062 C 86.996094 60.835938 88.257812 62.089844 89.804688 62.089844 " fill-opacity="1" fill-rule="nonzero"/><path fill="#100f0d" d="M 98.789062 58.726562 C 99.101562 58.726562 99.351562 58.976562 99.351562 59.289062 C 99.351562 59.597656 99.101562 59.847656 98.789062 59.847656 C 98.480469 59.847656 98.230469 59.597656 98.230469 59.289062 C 98.230469 58.976562 98.480469 58.726562 98.789062 58.726562 Z M 95.984375 59.289062 C 95.984375 60.835938 97.242188 62.089844 98.789062 62.089844 C 100.339844 62.089844 101.597656 60.835938 101.597656 59.289062 C 101.597656 57.742188 100.339844 56.484375 98.789062 56.484375 C 97.242188 56.484375 95.984375 57.742188 95.984375 59.289062 " fill-opacity="1" fill-rule="nonzero"/><path fill="#100f0d" d="M 53.304688 58.167969 L 55.550781 58.167969 C 56.167969 58.167969 56.671875 57.664062 56.671875 57.046875 L 56.671875 54.804688 L 58.917969 54.804688 L 58.917969 57.046875 C 58.917969 57.664062 59.425781 58.167969 60.042969 58.167969 L 62.289062 58.167969 L 62.289062 60.410156 L 60.042969 60.410156 C 59.425781 60.410156 58.917969 60.914062 58.917969 61.53125 L 58.917969 63.773438 L 56.671875 63.773438 L 56.671875 61.53125 C 56.671875 60.914062 56.167969 60.410156 55.550781 60.410156 L 53.304688 60.410156 Z M 52.179688 62.652344 L 54.425781 62.652344 L 54.425781 64.894531 C 54.425781 65.511719 54.933594 66.015625 55.550781 66.015625 L 60.042969 66.015625 C 60.660156 66.015625 61.167969 65.511719 61.167969 64.894531 L 61.167969 62.652344 L 63.414062 62.652344 C 64.03125 62.652344 64.535156 62.148438 64.535156 61.53125 L 64.535156 57.046875 C 64.535156 56.429688 64.03125 55.925781 63.414062 55.925781 L 61.167969 55.925781 L 61.167969 53.683594 C 61.167969 53.066406 60.660156 52.5625 60.042969 52.5625 L 55.550781 52.5625 C 54.933594 52.5625 54.425781 53.066406 54.425781 53.683594 L 54.425781 55.925781 L 52.179688 55.925781 C 51.5625 55.925781 51.058594 56.429688 51.058594 57.046875 L 51.058594 61.53125 C 51.058594 62.148438 51.5625 62.652344 52.179688 62.652344 " fill-opacity="1" fill-rule="nonzero"/><path fill="#100f0d" d="M 72.398438 52.5625 L 70.152344 52.5625 L 70.152344 54.804688 L 72.398438 54.804688 L 72.398438 52.5625 " fill-opacity="1" fill-rule="nonzero"/><path fill="#100f0d" d="M 76.890625 52.5625 L 74.644531 52.5625 L 74.644531 54.804688 L 76.890625 54.804688 L 76.890625 52.5625 " fill-opacity="1" fill-rule="nonzero"/><path fill="#100f0d" d="M 81.382812 52.5625 L 79.136719 52.5625 L 79.136719 54.804688 L 81.382812 54.804688 L 81.382812 52.5625 " fill-opacity="1" fill-rule="nonzero"/></svg>