<svg xmlns="http://www.w3.org/2000/svg" xmlns:xlink="http://www.w3.org/1999/xlink" width="1080" zoomAndPan="magnify" viewBox="0 0 810 809.999993" height="1080" preserveAspectRatio="xMidYMid meet" version="1.0"><defs><clipPath id="id1"><path d="M 294.546875 214.507812 L 560.046875 214.507812 L 560.046875 538.507812 L 294.546875 538.507812 Z M 294.546875 214.507812 " clip-rule="nonzero"/></clipPath></defs><g clip-path="url(#id1)"><path fill="#ffffff" d="M 383.402344 215.820312 C 380.730469 216.738281 378.289062 218.414062 375.242188 221.394531 C 368.453125 228.195312 368.53125 227.582031 368.53125 269.128906 L 368.53125 304.414062 L 349.3125 304.871094 C 326.886719 305.40625 315.214844 306.554688 310.945312 308.460938 C 307.054688 310.140625 301.414062 315.871094 298.742188 320.832031 C 294.546875 328.546875 294.546875 327.785156 294.546875 389.648438 C 294.546875 457.316406 294.929688 462.28125 301.105469 481.066406 C 311.78125 513.144531 335.042969 531.472656 367.839844 533.539062 C 403.382812 535.753906 431.984375 515.894531 443.578125 481.066406 C 449.757812 462.355469 450.136719 457.699219 450.136719 389.648438 C 450.136719 335.574219 450.058594 331.984375 448.683594 327.632812 C 447.921875 325.113281 446.398438 321.523438 445.328125 319.765625 C 442.964844 315.640625 436.480469 309.527344 433.050781 308.078125 C 429.234375 306.472656 416.804688 305.40625 395.445312 304.871094 L 376.152344 304.410156 L 376.152344 269.046875 C 376.152344 245.90625 376.453125 233 376.988281 231.550781 C 378.132812 228.496094 381.335938 225.285156 384.921875 223.605469 C 387.742188 222.308594 390.566406 222.152344 424.429688 222.152344 C 455.546875 222.152344 461.269531 222.304688 463.632812 223.296875 C 467.0625 224.746094 468.96875 226.429688 470.648438 229.410156 C 471.792969 231.472656 471.867188 243.921875 472.25 376.429688 L 472.632812 521.160156 L 474.234375 524.671875 C 476.601562 529.714844 480.183594 533.378906 485.066406 535.824219 C 489.339844 537.886719 489.71875 537.957031 505.203125 538.191406 C 518.09375 538.417969 521.832031 538.191406 525.339844 537.195312 C 530.527344 535.742188 535.5625 531.316406 538.460938 525.738281 L 540.523438 521.917969 L 540.75 423.703125 L 540.902344 325.484375 L 544.027344 324.949219 C 550.050781 323.953125 555.011719 320.441406 557.910156 314.941406 C 559.511719 312.117188 559.585938 310.667969 559.816406 293.328125 L 560.042969 274.847656 L 552.335938 274.847656 L 552.335938 248.878906 L 521.828125 248.878906 L 521.828125 274.847656 L 514.199219 274.847656 L 514.199219 292.109375 C 514.199219 303.484375 514.507812 310.515625 515.117188 312.574219 C 515.726562 314.558594 517.480469 317.160156 519.996094 319.679688 C 523.351562 323.117188 524.574219 323.726562 528.617188 324.566406 L 533.269531 325.558594 L 533.269531 422.25 C 533.269531 514.054688 533.191406 519.015625 531.816406 521.917969 C 530.0625 525.738281 525.636719 529.707031 522.4375 530.320312 C 521.066406 530.628906 513.132812 530.703125 504.894531 530.550781 L 489.949219 530.320312 L 486.667969 528.03125 C 484.914062 526.734375 482.625 524.210938 481.632812 522.378906 L 479.878906 519.015625 L 479.878906 376.4375 C 479.878906 219.105469 480.183594 229.492188 475.074219 222.84375 C 473.777344 221.089844 470.722656 218.570312 468.4375 217.269531 L 464.242188 214.902344 L 425.726562 214.75 C 391.5625 214.597656 386.757812 214.75 383.402344 215.820312 Z M 544.714844 265.691406 L 544.714844 274.859375 L 529.460938 274.859375 L 529.460938 256.527344 L 544.714844 256.527344 Z M 552.339844 296.015625 C 552.339844 311.210938 551.804688 313.042969 546.847656 316.097656 C 543.1875 318.316406 530.984375 318.316406 527.324219 316.097656 C 522.367188 313.042969 521.832031 311.210938 521.832031 296.015625 L 521.832031 282.496094 L 552.339844 282.496094 Z M 368.53125 318.617188 L 368.53125 324.957031 L 365.480469 326.332031 C 359.378906 329.003906 355.949219 336.644531 357.777344 343.363281 C 359 348.097656 361.59375 351.382812 365.40625 353.140625 L 368.53125 354.511719 L 368.53125 363.910156 L 351.980469 364.828125 C 337.71875 365.589844 318.726562 367.421875 305.839844 369.257812 L 302.179688 369.792969 L 302.179688 351.007812 C 302.179688 329.007812 302.710938 326.640625 309.121094 319.617188 C 312.167969 316.253906 313.621094 315.339844 316.746094 314.574219 C 321.78125 313.351562 335.507812 312.511719 353.890625 312.433594 L 368.535156 312.28125 L 368.535156 318.617188 Z M 413.453125 313.042969 C 429.242188 314.039062 430.917969 314.496094 435.648438 319.6875 C 441.976562 326.636719 442.511719 329.003906 442.511719 350.925781 L 442.511719 369.714844 L 439.691406 369.253906 C 430.917969 367.804688 408.191406 365.667969 393.242188 364.824219 L 376.15625 363.910156 L 376.15625 354.667969 L 379.589844 352.835938 C 383.785156 350.621094 385.691406 348.101562 386.988281 343.289062 C 388.742188 336.644531 385.234375 329.003906 379.210938 326.335938 L 376.160156 324.960938 L 376.160156 312.28125 L 388.589844 312.28125 C 395.378906 312.28125 406.589844 312.660156 413.453125 313.042969 Z M 376.078125 333.210938 C 381.1875 335.882812 381.039062 344.132812 375.773438 346.5 C 371.882812 348.253906 367.613281 347.035156 365.785156 343.519531 C 362.199219 336.566406 369.140625 329.617188 376.078125 333.210938 Z M 413.148438 373.6875 C 419.476562 374.371094 428.476562 375.367188 433.285156 376.054688 C 438.085938 376.664062 442.128906 377.199219 442.359375 377.199219 C 442.507812 377.199219 442.507812 394.996094 442.359375 416.6875 C 442.054688 454.109375 441.976562 456.707031 440.296875 464.496094 C 436.484375 482.980469 430.078125 496.347656 419.703125 507.265625 C 405.519531 522.234375 382.257812 529.03125 359.070312 524.984375 C 345.648438 522.613281 334.96875 517.039062 325.433594 507.492188 C 315.136719 497.105469 308.578125 483.96875 304.613281 465.792969 C 302.707031 457.164062 302.707031 456.398438 302.398438 417.066406 C 302.171875 395.144531 302.324219 377.195312 302.707031 377.195312 C 303.011719 377.195312 308.503906 376.507812 314.757812 375.746094 C 321.089844 374.90625 331.003906 373.914062 336.875 373.453125 C 342.75 372.996094 349.078125 372.460938 350.984375 372.308594 C 358.917969 371.621094 402.46875 372.617188 413.148438 373.6875 Z M 413.148438 373.6875 " fill-opacity="1" fill-rule="nonzero"/></g></svg>