<svg xmlns="http://www.w3.org/2000/svg" xmlns:xlink="http://www.w3.org/1999/xlink" width="1080" zoomAndPan="magnify" viewBox="0 0 810 809.999993" height="1080" preserveAspectRatio="xMidYMid meet" version="1.0"><defs><clipPath id="id1"><path d="M 361 502 L 394 502 L 394 534.511719 L 361 534.511719 Z M 361 502 " clip-rule="nonzero"/></clipPath><clipPath id="id2"><path d="M 494 502 L 527 502 L 527 534.511719 L 494 534.511719 Z M 494 502 " clip-rule="nonzero"/></clipPath><clipPath id="id3"><path d="M 318 315 L 566.195312 315 L 566.195312 454 L 318 454 Z M 318 315 " clip-rule="nonzero"/></clipPath></defs><g clip-path="url(#id1)"><path fill="#ffffff" d="M 377.558594 523.328125 C 374.789062 523.328125 372.539062 521.082031 372.539062 518.296875 C 372.539062 515.527344 374.789062 513.28125 377.558594 513.28125 C 380.324219 513.28125 382.582031 515.527344 382.582031 518.296875 C 382.582031 521.082031 380.324219 523.328125 377.558594 523.328125 Z M 377.558594 502.089844 C 368.625 502.089844 361.375 509.34375 361.375 518.296875 C 361.375 527.246094 368.625 534.511719 377.558594 534.511719 C 386.503906 534.511719 393.75 527.246094 393.75 518.296875 C 393.75 509.34375 386.503906 502.089844 377.558594 502.089844 " fill-opacity="1" fill-rule="nonzero"/></g><g clip-path="url(#id2)"><path fill="#ffffff" d="M 510.5625 523.328125 C 507.789062 523.328125 505.542969 521.082031 505.542969 518.296875 C 505.542969 515.527344 507.789062 513.28125 510.5625 513.28125 C 513.335938 513.28125 515.589844 515.527344 515.589844 518.296875 C 515.589844 521.082031 513.335938 523.328125 510.5625 523.328125 Z M 510.5625 502.089844 C 501.625 502.089844 494.378906 509.34375 494.378906 518.296875 C 494.378906 527.246094 501.625 534.511719 510.5625 534.511719 C 519.5 534.511719 526.753906 527.246094 526.753906 518.296875 C 526.753906 509.34375 519.5 502.089844 510.5625 502.089844 " fill-opacity="1" fill-rule="nonzero"/></g><path fill="#ffffff" d="M 271.992188 297.507812 L 300.832031 302.941406 C 301.550781 303.039062 303.230469 303.84375 304.523438 305.128906 C 305.855469 306.375 306.714844 308.015625 306.839844 308.738281 L 336.667969 440.140625 L 336.675781 440.148438 C 336.867188 440.960938 337.019531 442.347656 337.011719 443.894531 C 337.019531 445.824219 336.800781 448.019531 336.398438 449.988281 C 336.015625 451.953125 335.417969 453.71875 334.949219 454.644531 L 326.648438 471.382812 C 325.4375 473.839844 324.667969 476.554688 324.667969 479.449219 C 324.660156 481.496094 325.070312 483.621094 325.953125 485.589844 C 327.261719 488.5625 329.679688 491.015625 332.386719 492.464844 C 335.113281 493.933594 338.070312 494.523438 340.984375 494.523438 L 551.148438 494.523438 C 556.207031 494.523438 560.316406 490.410156 560.316406 485.335938 C 560.316406 480.269531 556.207031 476.152344 551.148438 476.152344 L 340.984375 476.152344 L 340.703125 476.136719 L 340.695312 476.136719 L 340.125 478.777344 L 342.070312 477.105469 C 341.433594 476.351562 340.722656 476.128906 340.695312 476.136719 L 340.125 478.777344 L 342.070312 477.105469 L 339.34375 479.449219 L 343.003906 479.449219 C 343.046875 478.941406 342.734375 477.824219 342.070312 477.105469 L 339.34375 479.449219 L 343.003906 479.449219 L 341.554688 479.449219 L 342.972656 479.808594 L 343.003906 479.449219 L 341.554688 479.449219 L 342.972656 479.808594 L 343.085938 479.546875 L 351.378906 462.808594 C 352.820312 459.875 353.738281 456.789062 354.382812 453.601562 C 355.011719 450.414062 355.355469 447.132812 355.355469 443.894531 C 355.347656 441.265625 355.136719 438.667969 354.554688 436.066406 L 324.71875 304.664062 L 324.726562 304.671875 C 323.507812 299.472656 320.714844 295.285156 317.25 291.90625 C 313.738281 288.5625 309.449219 285.925781 304.234375 284.898438 L 274.316406 279.695312 C 269.339844 278.757812 265.613281 281.792969 264.671875 286.777344 C 263.742188 291.761719 267.015625 296.5625 271.992188 297.507812 " fill-opacity="1" fill-rule="nonzero"/><g clip-path="url(#id3)"><path fill="#ffffff" d="M 318.5625 324.425781 L 552.964844 347.167969 C 554.445312 347.324219 555.386719 347.863281 556.019531 348.527344 C 556.648438 349.207031 557.015625 350.058594 557.027344 351.199219 C 557.027344 351.691406 556.953125 352.25 556.761719 352.855469 L 531.09375 436.984375 C 530.578125 438.730469 529.144531 440.683594 527.246094 442.078125 C 525.355469 443.496094 523.078125 444.296875 521.253906 444.273438 L 349.527344 444.273438 L 349.527344 453.453125 L 521.253906 453.453125 C 525.484375 453.4375 529.4375 451.863281 532.695312 449.460938 C 535.953125 447.035156 538.605469 443.714844 539.859375 439.667969 L 539.671875 440.296875 L 565.53125 355.535156 L 565.53125 355.527344 C 565.972656 354.101562 566.195312 352.644531 566.195312 351.199219 C 566.203125 347.847656 564.957031 344.632812 562.714844 342.25 C 560.496094 339.863281 557.335938 338.355469 553.847656 338.027344 L 319.445312 315.285156 L 318.5625 324.425781 " fill-opacity="1" fill-rule="nonzero"/></g><path fill="#ffffff" d="M 515.039062 341.878906 L 493.820312 447.960938 L 502.808594 449.773438 L 524.027344 343.683594 L 515.039062 341.878906 " fill-opacity="1" fill-rule="nonzero"/><path fill="#ffffff" d="M 464.140625 336.304688 L 457.140625 448.585938 L 466.300781 449.152344 L 473.292969 336.878906 L 464.140625 336.304688 " fill-opacity="1" fill-rule="nonzero"/><path fill="#ffffff" d="M 413.328125 330.671875 L 420.542969 449.144531 L 429.695312 448.585938 L 422.472656 330.117188 L 413.328125 330.671875 " fill-opacity="1" fill-rule="nonzero"/><path fill="#ffffff" d="M 362.570312 324.984375 L 384.007812 449.652344 L 393.035156 448.09375 L 371.605469 323.425781 L 362.570312 324.984375 " fill-opacity="1" fill-rule="nonzero"/><path fill="#ffffff" d="M 333.960938 392.171875 L 548.121094 400.851562 L 548.496094 391.671875 L 334.328125 382.988281 L 333.960938 392.171875 " fill-opacity="1" fill-rule="nonzero"/><path fill="#ffffff" d="M 302.527344 293.589844 C 301.707031 298.546875 296.15625 301.785156 290.1875 300.792969 L 253.84375 294.800781 C 247.882812 293.816406 243.660156 288.964844 244.472656 284.023438 C 245.289062 279.070312 250.839844 275.824219 256.816406 276.808594 L 293.152344 282.800781 C 299.121094 283.792969 303.34375 288.644531 302.527344 293.589844 " fill-opacity="1" fill-rule="nonzero"/><path fill="#000000" d="M 520.019531 290.140625 C 489.726562 259.6875 449.386719 243 406.457031 243 C 318.007812 243 245.914062 315.089844 245.914062 403.542969 C 245.914062 431.890625 253.367188 459.433594 267.300781 483.730469 L 244.621094 567 L 329.671875 544.644531 C 353.160156 557.441406 379.566406 564.246094 406.457031 564.246094 C 494.910156 564.246094 567 492.15625 567 403.703125 C 567 360.773438 550.3125 320.4375 520.019531 290.140625 Z M 406.457031 537.03125 C 382.480469 537.03125 358.992188 530.550781 338.417969 518.398438 L 333.558594 515.484375 L 283.015625 528.769531 L 296.460938 479.519531 L 293.21875 474.496094 C 279.9375 453.277344 272.808594 428.652344 272.808594 403.542969 C 272.808594 329.992188 332.746094 270.054688 406.296875 270.054688 C 441.9375 270.054688 475.46875 283.984375 500.578125 309.257812 C 525.851562 334.53125 539.621094 368.0625 539.621094 403.703125 C 539.945312 477.253906 480.007812 537.03125 406.457031 537.03125 Z M 479.683594 437.238281 C 475.632812 435.292969 455.867188 425.574219 452.304688 424.117188 C 448.578125 422.820312 445.984375 422.171875 443.230469 426.058594 C 440.476562 430.109375 432.863281 439.183594 430.597656 441.773438 C 428.328125 444.527344 425.898438 444.851562 421.847656 442.746094 C 417.796875 440.800781 404.839844 436.429688 389.609375 422.820312 C 377.621094 412.128906 369.683594 399.007812 367.253906 394.957031 C 364.984375 390.90625 366.929688 388.800781 369.035156 386.695312 C 370.816406 384.910156 373.085938 381.996094 375.03125 379.726562 C 376.972656 377.460938 377.785156 375.679688 379.078125 373.085938 C 380.375 370.332031 379.726562 368.0625 378.757812 366.121094 C 377.785156 364.175781 369.683594 344.410156 366.445312 336.3125 C 363.203125 328.535156 359.800781 329.507812 357.371094 329.347656 C 354.941406 329.347656 352.351562 329.347656 349.597656 329.347656 C 346.84375 329.347656 342.628906 330.316406 338.902344 334.367188 C 335.339844 338.417969 324.972656 348.136719 324.972656 367.902344 C 324.972656 387.664062 339.390625 406.78125 341.335938 409.375 C 343.277344 412.128906 369.683594 452.628906 409.859375 469.960938 C 419.417969 474.175781 426.871094 476.605469 432.703125 478.386719 C 442.261719 481.464844 451.007812 480.976562 457.972656 480.007812 C 465.75 478.871094 481.789062 470.285156 485.027344 460.890625 C 488.429688 451.492188 488.429688 443.554688 487.296875 441.773438 C 486.160156 439.992188 483.730469 439.183594 479.683594 437.238281 Z M 479.683594 437.238281 " fill-opacity="1" fill-rule="nonzero"/></svg>