<svg xmlns="http://www.w3.org/2000/svg" xmlns:xlink="http://www.w3.org/1999/xlink" width="188" zoomAndPan="magnify" viewBox="0 0 141.12 141.750002" height="188" preserveAspectRatio="xMidYMid meet" version="1.0"><defs><clipPath id="id1"><path d="M 0 0.316406 L 140.125 0.316406 L 140.125 141.1875 L 0 141.1875 Z M 0 0.316406 " clip-rule="nonzero"/></clipPath><clipPath id="id2"><path d="M 0 0.316406 L 140.125 0.316406 L 140.125 141 L 0 141 Z M 0 0.316406 " clip-rule="nonzero"/></clipPath><clipPath id="id3"><path d="M 0 0.316406 L 140.125 0.316406 L 140.125 140.441406 L 0 140.441406 Z M 0 0.316406 " clip-rule="nonzero"/></clipPath><clipPath id="id4"><path d="M 50 72 L 55 72 L 55 94.070312 L 50 94.070312 Z M 50 72 " clip-rule="nonzero"/></clipPath><clipPath id="id5"><path d="M 42.03125 46.621094 L 98.378906 46.621094 L 98.378906 94.070312 L 42.03125 94.070312 Z M 42.03125 46.621094 " clip-rule="nonzero"/></clipPath><clipPath id="id6"><path d="M 85 72 L 90 72 L 90 94.070312 L 85 94.070312 Z M 85 72 " clip-rule="nonzero"/></clipPath></defs><g clip-path="url(#id1)"><path fill="#ffffff" d="M 0 0.316406 L 140.125 0.316406 L 140.125 147.855469 L 0 147.855469 Z M 0 0.316406 " fill-opacity="1" fill-rule="nonzero"/></g><g clip-path="url(#id2)"><path fill="#ffffff" d="M 0 0.316406 L 140.125 0.316406 L 140.125 140.441406 L 0 140.441406 Z M 0 0.316406 " fill-opacity="1" fill-rule="nonzero"/></g><g clip-path="url(#id3)"><path fill="#ffffff" d="M 0 0.316406 L 140.125 0.316406 L 140.125 140.441406 L 0 140.441406 Z M 0 0.316406 " fill-opacity="1" fill-rule="nonzero"/><path fill="#ffffff" d="M 0 0.316406 L 140.125 0.316406 L 140.125 140.441406 L 0 140.441406 Z M 0 0.316406 " fill-opacity="1" fill-rule="nonzero"/></g><g clip-path="url(#id4)"><path fill="#000000" d="M 50.542969 72.417969 L 54.886719 72.417969 L 54.886719 94.066406 L 50.542969 94.066406 Z M 50.542969 72.417969 " fill-opacity="1" fill-rule="nonzero"/></g><g clip-path="url(#id5)"><path fill="#000000" d="M 95.824219 74.109375 C 95.910156 73.433594 95.910156 72.757812 95.910156 72.078125 C 95.910156 58.042969 84.335938 46.625 70.207031 46.625 C 56.078125 46.625 44.5 58.042969 44.5 72.078125 C 44.5 72.757812 44.5 73.433594 44.585938 74.109375 L 42.03125 74.953125 L 42.03125 91.445312 L 49.949219 94.066406 L 49.949219 72.417969 L 48.757812 72.757812 C 48.757812 72.503906 48.757812 72.332031 48.757812 72.078125 C 48.757812 60.324219 58.375 50.855469 70.207031 50.855469 C 82.039062 50.855469 91.65625 60.410156 91.65625 72.164062 C 91.65625 72.417969 91.65625 72.585938 91.65625 72.839844 L 90.464844 72.417969 L 90.464844 93.980469 L 98.378906 91.359375 L 98.378906 74.953125 Z M 95.824219 74.109375 " fill-opacity="1" fill-rule="nonzero"/></g><g clip-path="url(#id6)"><path fill="#000000" d="M 85.527344 72.417969 L 89.867188 72.417969 L 89.867188 94.066406 L 85.527344 94.066406 Z M 85.527344 72.417969 " fill-opacity="1" fill-rule="nonzero"/></g></svg>