<svg xmlns="http://www.w3.org/2000/svg" xmlns:xlink="http://www.w3.org/1999/xlink" width="1080" zoomAndPan="magnify" viewBox="0 0 810 809.999993" height="1080" preserveAspectRatio="xMidYMid meet" version="1.0"><defs><clipPath id="id1"><path d="M 325 311 L 460.296875 311 L 460.296875 566 L 325 566 Z M 325 311 " clip-rule="nonzero"/></clipPath></defs><g clip-path="url(#id1)"><path fill="#ffffff" d="M 435.375 311.414062 L 350.832031 311.414062 C 334.351562 311.414062 325.957031 319.816406 325.957031 336.324219 L 325.957031 540.578125 C 325.957031 557.089844 334.355469 565.488281 350.832031 565.488281 L 435.375 565.484375 C 451.855469 565.488281 460.242188 557.089844 460.242188 540.578125 L 460.242188 336.324219 C 460.242188 319.816406 451.855469 311.414062 435.375 311.414062 Z M 370.347656 326.347656 L 415.867188 326.347656 C 418.703125 326.347656 421 328.644531 421 331.488281 C 421 334.335938 418.703125 336.644531 415.867188 336.644531 L 370.347656 336.644531 C 367.507812 336.644531 365.195312 334.335938 365.195312 331.488281 C 365.195312 328.644531 367.507812 326.347656 370.347656 326.347656 Z M 451.125 530.132812 L 334.457031 530.132812 L 334.457031 351.542969 L 451.125 351.542969 Z M 451.125 530.132812 " fill-opacity="1" fill-rule="nonzero"/></g><path fill="#ffffff" d="M 342.628906 291.019531 C 345.980469 292.265625 349.707031 290.554688 350.953125 287.199219 C 352.199219 283.839844 350.492188 280.105469 347.140625 278.859375 C 333.21875 273.675781 316.085938 277.761719 303.488281 289.261719 C 289.46875 302.0625 284.207031 321.4375 290.6875 336.386719 C 291.746094 338.828125 294.132812 340.289062 296.628906 340.289062 C 297.492188 340.289062 298.371094 340.113281 299.210938 339.75 C 302.488281 338.320312 303.992188 334.5 302.570312 331.214844 C 298.257812 321.28125 302.226562 307.972656 312.214844 298.851562 C 321.265625 290.585938 333.203125 287.511719 342.628906 291.019531 Z M 342.628906 291.019531 " fill-opacity="1" fill-rule="nonzero"/><path fill="#ffffff" d="M 289.511719 276.503906 C 303.933594 263.335938 323.082031 258.484375 338.292969 264.144531 C 341.644531 265.390625 345.375 263.679688 346.621094 260.320312 C 347.863281 256.960938 346.15625 253.230469 342.800781 251.980469 C 323.097656 244.648438 298.753906 250.507812 280.785156 266.910156 C 260.816406 285.144531 253.265625 312.621094 262.425781 333.734375 C 263.488281 336.179688 265.871094 337.636719 268.367188 337.636719 C 269.230469 337.636719 270.105469 337.460938 270.945312 337.097656 C 274.226562 335.667969 275.730469 331.847656 274.304688 328.5625 C 267.320312 312.464844 273.574219 291.054688 289.511719 276.503906 Z M 289.511719 276.503906 " fill-opacity="1" fill-rule="nonzero"/></svg>