<svg xmlns="http://www.w3.org/2000/svg" xmlns:xlink="http://www.w3.org/1999/xlink" width="1080" zoomAndPan="magnify" viewBox="0 0 810 809.999993" height="1080" preserveAspectRatio="xMidYMid meet" version="1.0"><defs><clipPath id="id1"><path d="M 361 502 L 394 502 L 394 534.511719 L 361 534.511719 Z M 361 502 " clip-rule="nonzero"/></clipPath><clipPath id="id2"><path d="M 494 502 L 527 502 L 527 534.511719 L 494 534.511719 Z M 494 502 " clip-rule="nonzero"/></clipPath><clipPath id="id3"><path d="M 318 315 L 566.195312 315 L 566.195312 454 L 318 454 Z M 318 315 " clip-rule="nonzero"/></clipPath><clipPath id="id4"><path d="M 252 279 L 535 279 L 535 562.3125 L 252 562.3125 Z M 252 279 " clip-rule="nonzero"/></clipPath><clipPath id="id5"><path d="M 404 248.0625 L 566 248.0625 L 566 410 L 404 410 Z M 404 248.0625 " clip-rule="nonzero"/></clipPath></defs><g clip-path="url(#id1)"><path fill="#ffffff" d="M 377.558594 523.328125 C 374.789062 523.328125 372.539062 521.082031 372.539062 518.296875 C 372.539062 515.527344 374.789062 513.28125 377.558594 513.28125 C 380.324219 513.28125 382.582031 515.527344 382.582031 518.296875 C 382.582031 521.082031 380.324219 523.328125 377.558594 523.328125 Z M 377.558594 502.089844 C 368.625 502.089844 361.375 509.34375 361.375 518.296875 C 361.375 527.246094 368.625 534.511719 377.558594 534.511719 C 386.503906 534.511719 393.75 527.246094 393.75 518.296875 C 393.75 509.34375 386.503906 502.089844 377.558594 502.089844 " fill-opacity="1" fill-rule="nonzero"/></g><g clip-path="url(#id2)"><path fill="#ffffff" d="M 510.5625 523.328125 C 507.789062 523.328125 505.542969 521.082031 505.542969 518.296875 C 505.542969 515.527344 507.789062 513.28125 510.5625 513.28125 C 513.335938 513.28125 515.589844 515.527344 515.589844 518.296875 C 515.589844 521.082031 513.335938 523.328125 510.5625 523.328125 Z M 510.5625 502.089844 C 501.625 502.089844 494.378906 509.34375 494.378906 518.296875 C 494.378906 527.246094 501.625 534.511719 510.5625 534.511719 C 519.5 534.511719 526.753906 527.246094 526.753906 518.296875 C 526.753906 509.34375 519.5 502.089844 510.5625 502.089844 " fill-opacity="1" fill-rule="nonzero"/></g><path fill="#ffffff" d="M 271.992188 297.507812 L 300.832031 302.941406 C 301.550781 303.039062 303.230469 303.84375 304.523438 305.128906 C 305.855469 306.375 306.714844 308.015625 306.839844 308.738281 L 336.667969 440.140625 L 336.675781 440.148438 C 336.867188 440.960938 337.019531 442.347656 337.011719 443.894531 C 337.019531 445.824219 336.800781 448.019531 336.398438 449.988281 C 336.015625 451.953125 335.417969 453.71875 334.949219 454.644531 L 326.648438 471.382812 C 325.4375 473.839844 324.667969 476.554688 324.667969 479.449219 C 324.660156 481.496094 325.070312 483.621094 325.953125 485.589844 C 327.261719 488.5625 329.679688 491.015625 332.386719 492.464844 C 335.113281 493.933594 338.070312 494.523438 340.984375 494.523438 L 551.148438 494.523438 C 556.207031 494.523438 560.316406 490.410156 560.316406 485.335938 C 560.316406 480.269531 556.207031 476.152344 551.148438 476.152344 L 340.984375 476.152344 L 340.703125 476.136719 L 340.695312 476.136719 L 340.125 478.777344 L 342.070312 477.105469 C 341.433594 476.351562 340.722656 476.128906 340.695312 476.136719 L 340.125 478.777344 L 342.070312 477.105469 L 339.34375 479.449219 L 343.003906 479.449219 C 343.046875 478.941406 342.734375 477.824219 342.070312 477.105469 L 339.34375 479.449219 L 343.003906 479.449219 L 341.554688 479.449219 L 342.972656 479.808594 L 343.003906 479.449219 L 341.554688 479.449219 L 342.972656 479.808594 L 343.085938 479.546875 L 351.378906 462.808594 C 352.820312 459.875 353.738281 456.789062 354.382812 453.601562 C 355.011719 450.414062 355.355469 447.132812 355.355469 443.894531 C 355.347656 441.265625 355.136719 438.667969 354.554688 436.066406 L 324.71875 304.664062 L 324.726562 304.671875 C 323.507812 299.472656 320.714844 295.285156 317.25 291.90625 C 313.738281 288.5625 309.449219 285.925781 304.234375 284.898438 L 274.316406 279.695312 C 269.339844 278.757812 265.613281 281.792969 264.671875 286.777344 C 263.742188 291.761719 267.015625 296.5625 271.992188 297.507812 " fill-opacity="1" fill-rule="nonzero"/><g clip-path="url(#id3)"><path fill="#ffffff" d="M 318.5625 324.425781 L 552.964844 347.167969 C 554.445312 347.324219 555.386719 347.863281 556.019531 348.527344 C 556.648438 349.207031 557.015625 350.058594 557.027344 351.199219 C 557.027344 351.691406 556.953125 352.25 556.761719 352.855469 L 531.09375 436.984375 C 530.578125 438.730469 529.144531 440.683594 527.246094 442.078125 C 525.355469 443.496094 523.078125 444.296875 521.253906 444.273438 L 349.527344 444.273438 L 349.527344 453.453125 L 521.253906 453.453125 C 525.484375 453.4375 529.4375 451.863281 532.695312 449.460938 C 535.953125 447.035156 538.605469 443.714844 539.859375 439.667969 L 539.671875 440.296875 L 565.53125 355.535156 L 565.53125 355.527344 C 565.972656 354.101562 566.195312 352.644531 566.195312 351.199219 C 566.203125 347.847656 564.957031 344.632812 562.714844 342.25 C 560.496094 339.863281 557.335938 338.355469 553.847656 338.027344 L 319.445312 315.285156 L 318.5625 324.425781 " fill-opacity="1" fill-rule="nonzero"/></g><path fill="#ffffff" d="M 515.039062 341.878906 L 493.820312 447.960938 L 502.808594 449.773438 L 524.027344 343.683594 L 515.039062 341.878906 " fill-opacity="1" fill-rule="nonzero"/><path fill="#ffffff" d="M 464.140625 336.304688 L 457.140625 448.585938 L 466.300781 449.152344 L 473.292969 336.878906 L 464.140625 336.304688 " fill-opacity="1" fill-rule="nonzero"/><path fill="#ffffff" d="M 413.328125 330.671875 L 420.542969 449.144531 L 429.695312 448.585938 L 422.472656 330.117188 L 413.328125 330.671875 " fill-opacity="1" fill-rule="nonzero"/><path fill="#ffffff" d="M 362.570312 324.984375 L 384.007812 449.652344 L 393.035156 448.09375 L 371.605469 323.425781 L 362.570312 324.984375 " fill-opacity="1" fill-rule="nonzero"/><path fill="#ffffff" d="M 333.960938 392.171875 L 548.121094 400.851562 L 548.496094 391.671875 L 334.328125 382.988281 L 333.960938 392.171875 " fill-opacity="1" fill-rule="nonzero"/><path fill="#ffffff" d="M 302.527344 293.589844 C 301.707031 298.546875 296.15625 301.785156 290.1875 300.792969 L 253.84375 294.800781 C 247.882812 293.816406 243.660156 288.964844 244.472656 284.023438 C 245.289062 279.070312 250.839844 275.824219 256.816406 276.808594 L 293.152344 282.800781 C 299.121094 283.792969 303.34375 288.644531 302.527344 293.589844 " fill-opacity="1" fill-rule="nonzero"/><g clip-path="url(#id4)"><path fill="#000000" d="M 370.460938 533.269531 C 389.433594 552.269531 414.535156 562.316406 440.132812 562.316406 C 453.078125 562.308594 466.160156 559.742188 478.625 554.460938 L 510.902344 540.863281 C 522.914062 535.796875 531.578125 525.128906 534.085938 512.324219 C 536.589844 499.523438 532.582031 486.375 523.367188 477.148438 L 496.546875 450.285156 C 488.980469 442.726562 477.652344 440.328125 467.664062 444.136719 L 449.984375 450.921875 C 442.382812 453.84375 433.726562 452.003906 427.964844 446.222656 L 368.058594 386.246094 C 362.296875 380.472656 360.453125 371.816406 363.375 364.195312 L 370.144531 346.492188 C 373.964844 336.5 371.554688 325.152344 363.992188 317.578125 L 337.171875 290.730469 C 327.957031 281.5 314.8125 277.496094 302.035156 280 C 289.25 282.507812 278.589844 291.183594 273.53125 303.214844 L 259.964844 335.496094 C 244.242188 372.699219 252.546875 415.21875 281.117188 443.820312 Z M 287.949219 347.316406 L 301.523438 315.007812 C 303.148438 311.148438 306.503906 310.109375 307.875 309.835938 C 308.28125 309.757812 308.867188 309.679688 309.578125 309.679688 C 311.265625 309.679688 313.613281 310.144531 315.699219 312.226562 L 341.03125 337.589844 L 335.015625 353.3125 C 327.808594 372.128906 332.351562 393.496094 346.585938 407.746094 L 406.492188 467.722656 C 420.71875 481.96875 442.050781 486.523438 460.855469 479.3125 L 476.5625 473.285156 L 501.894531 498.648438 C 504.851562 501.613281 504.550781 505.117188 504.285156 506.480469 C 504.011719 507.851562 502.972656 511.210938 499.121094 512.835938 L 466.820312 526.445312 C 441.101562 537.332031 411.714844 531.570312 391.933594 511.773438 L 302.589844 422.320312 C 282.808594 402.515625 277.058594 373.085938 287.949219 347.316406 Z M 287.949219 347.316406 " fill-opacity="1" fill-rule="nonzero"/></g><path fill="#000000" d="M 419.535156 366.601562 C 426.964844 366.601562 433.988281 369.539062 439.324219 374.875 C 444.652344 380.214844 447.585938 387.246094 447.585938 394.6875 C 447.585938 403.082031 454.382812 409.886719 462.773438 409.886719 C 471.160156 409.886719 477.957031 403.082031 477.957031 394.6875 C 477.957031 379.125 471.863281 364.457031 460.796875 353.378906 C 449.726562 342.296875 435.078125 336.195312 419.535156 336.195312 C 411.148438 336.195312 404.351562 343 404.351562 351.398438 C 404.351562 359.796875 411.148438 366.601562 419.535156 366.601562 Z M 419.535156 366.601562 " fill-opacity="1" fill-rule="nonzero"/><path fill="#000000" d="M 419.535156 322.605469 C 438.804688 322.605469 456.894531 330.09375 470.472656 343.683594 C 484.050781 357.28125 491.53125 375.394531 491.53125 394.6875 C 491.53125 403.082031 498.328125 409.886719 506.714844 409.886719 C 515.105469 409.886719 521.902344 403.082031 521.902344 394.6875 C 521.902344 367.273438 511.261719 341.523438 491.949219 322.179688 C 472.632812 302.847656 446.914062 292.199219 419.535156 292.199219 C 411.148438 292.199219 404.351562 299.003906 404.351562 307.402344 C 404.351562 315.800781 411.148438 322.605469 419.535156 322.605469 Z M 419.535156 322.605469 " fill-opacity="1" fill-rule="nonzero"/><g clip-path="url(#id5)"><path fill="#000000" d="M 419.535156 278.464844 C 419.546875 278.464844 419.554688 278.464844 419.566406 278.464844 C 450.855469 278.109375 479.652344 290.488281 501.632812 312.488281 C 523.609375 334.496094 535.683594 363.675781 535.617188 394.65625 C 535.601562 403.050781 542.382812 409.867188 550.773438 409.886719 C 550.78125 409.886719 550.792969 409.886719 550.800781 409.886719 C 559.175781 409.886719 565.972656 403.105469 565.988281 394.714844 C 566.066406 355.59375 550.84375 318.753906 523.105469 290.992188 C 495.449219 263.296875 458.777344 248.058594 419.8125 248.058594 C 419.710938 248.058594 419.605469 248.058594 419.507812 248.058594 C 411.117188 248.078125 404.335938 254.898438 404.351562 263.292969 C 404.371094 271.679688 411.164062 278.464844 419.535156 278.464844 Z M 419.535156 278.464844 " fill-opacity="1" fill-rule="nonzero"/></g></svg>