<svg xmlns="http://www.w3.org/2000/svg" xmlns:xlink="http://www.w3.org/1999/xlink" width="188" zoomAndPan="magnify" viewBox="0 0 141.12 141.750002" height="188" preserveAspectRatio="xMidYMid meet" version="1.0"><defs><clipPath id="id1"><path d="M 64 50 L 87.707031 50 L 87.707031 94.792969 L 64 94.792969 Z M 64 50 " clip-rule="nonzero"/></clipPath></defs><g clip-path="url(#id1)"><path fill="#000000" d="M 83.421875 50.339844 L 68.890625 50.339844 C 66.054688 50.339844 64.613281 51.800781 64.613281 54.671875 L 64.613281 90.199219 C 64.613281 93.074219 66.054688 94.535156 68.890625 94.535156 L 83.421875 94.53125 C 86.257812 94.535156 87.699219 93.074219 87.699219 90.199219 L 87.699219 54.671875 C 87.699219 51.800781 86.257812 50.339844 83.421875 50.339844 Z M 72.242188 52.9375 L 80.070312 52.9375 C 80.558594 52.9375 80.953125 53.339844 80.953125 53.832031 C 80.953125 54.328125 80.558594 54.730469 80.070312 54.730469 L 72.242188 54.730469 C 71.757812 54.730469 71.359375 54.328125 71.359375 53.832031 C 71.359375 53.339844 71.757812 52.9375 72.242188 52.9375 Z M 86.132812 88.382812 L 66.074219 88.382812 L 66.074219 57.320312 L 86.132812 57.320312 Z M 86.132812 88.382812 " fill-opacity="1" fill-rule="nonzero"/></g><path fill="#000000" d="M 67.476562 46.792969 C 68.054688 47.011719 68.695312 46.714844 68.910156 46.128906 C 69.125 45.546875 68.832031 44.894531 68.253906 44.679688 C 65.859375 43.777344 62.914062 44.488281 60.75 46.488281 C 58.339844 48.714844 57.433594 52.085938 58.546875 54.683594 C 58.730469 55.109375 59.140625 55.363281 59.570312 55.363281 C 59.71875 55.363281 59.871094 55.332031 60.015625 55.269531 C 60.578125 55.019531 60.835938 54.355469 60.589844 53.785156 C 59.851562 52.058594 60.53125 49.742188 62.25 48.15625 C 63.804688 46.71875 65.859375 46.183594 67.476562 46.792969 Z M 67.476562 46.792969 " fill-opacity="1" fill-rule="nonzero"/><path fill="#000000" d="M 58.347656 44.269531 C 60.824219 41.976562 64.117188 41.136719 66.734375 42.117188 C 67.308594 42.335938 67.949219 42.039062 68.164062 41.453125 C 68.378906 40.871094 68.085938 40.21875 67.507812 40.003906 C 64.121094 38.726562 59.933594 39.746094 56.847656 42.601562 C 53.414062 45.769531 52.117188 50.550781 53.691406 54.222656 C 53.871094 54.648438 54.28125 54.902344 54.710938 54.902344 C 54.859375 54.902344 55.011719 54.871094 55.15625 54.808594 C 55.71875 54.558594 55.976562 53.894531 55.734375 53.324219 C 54.53125 50.523438 55.605469 46.800781 58.347656 44.269531 Z M 58.347656 44.269531 " fill-opacity="1" fill-rule="nonzero"/></svg>