<svg xmlns="http://www.w3.org/2000/svg" xmlns:xlink="http://www.w3.org/1999/xlink" width="1080" zoomAndPan="magnify" viewBox="0 0 810 809.999993" height="1080" preserveAspectRatio="xMidYMid meet" version="1.0"><defs><clipPath id="id1"><path d="M 361 502 L 394 502 L 394 534.511719 L 361 534.511719 Z M 361 502 " clip-rule="nonzero"/></clipPath><clipPath id="id2"><path d="M 494 502 L 527 502 L 527 534.511719 L 494 534.511719 Z M 494 502 " clip-rule="nonzero"/></clipPath><clipPath id="id3"><path d="M 318 315 L 566.195312 315 L 566.195312 454 L 318 454 Z M 318 315 " clip-rule="nonzero"/></clipPath></defs><g clip-path="url(#id1)"><path fill="#ffffff" d="M 377.558594 523.328125 C 374.789062 523.328125 372.539062 521.082031 372.539062 518.296875 C 372.539062 515.527344 374.789062 513.28125 377.558594 513.28125 C 380.324219 513.28125 382.582031 515.527344 382.582031 518.296875 C 382.582031 521.082031 380.324219 523.328125 377.558594 523.328125 Z M 377.558594 502.089844 C 368.625 502.089844 361.375 509.34375 361.375 518.296875 C 361.375 527.246094 368.625 534.511719 377.558594 534.511719 C 386.503906 534.511719 393.75 527.246094 393.75 518.296875 C 393.75 509.34375 386.503906 502.089844 377.558594 502.089844 " fill-opacity="1" fill-rule="nonzero"/></g><g clip-path="url(#id2)"><path fill="#ffffff" d="M 510.5625 523.328125 C 507.789062 523.328125 505.542969 521.082031 505.542969 518.296875 C 505.542969 515.527344 507.789062 513.28125 510.5625 513.28125 C 513.335938 513.28125 515.589844 515.527344 515.589844 518.296875 C 515.589844 521.082031 513.335938 523.328125 510.5625 523.328125 Z M 510.5625 502.089844 C 501.625 502.089844 494.378906 509.34375 494.378906 518.296875 C 494.378906 527.246094 501.625 534.511719 510.5625 534.511719 C 519.5 534.511719 526.753906 527.246094 526.753906 518.296875 C 526.753906 509.34375 519.5 502.089844 510.5625 502.089844 " fill-opacity="1" fill-rule="nonzero"/></g><path fill="#ffffff" d="M 271.992188 297.507812 L 300.832031 302.941406 C 301.550781 303.039062 303.230469 303.84375 304.523438 305.128906 C 305.855469 306.375 306.714844 308.015625 306.839844 308.738281 L 336.667969 440.140625 L 336.675781 440.148438 C 336.867188 440.960938 337.019531 442.347656 337.011719 443.894531 C 337.019531 445.824219 336.800781 448.019531 336.398438 449.988281 C 336.015625 451.953125 335.417969 453.71875 334.949219 454.644531 L 326.648438 471.382812 C 325.4375 473.839844 324.667969 476.554688 324.667969 479.449219 C 324.660156 481.496094 325.070312 483.621094 325.953125 485.589844 C 327.261719 488.5625 329.679688 491.015625 332.386719 492.464844 C 335.113281 493.933594 338.070312 494.523438 340.984375 494.523438 L 551.148438 494.523438 C 556.207031 494.523438 560.316406 490.410156 560.316406 485.335938 C 560.316406 480.269531 556.207031 476.152344 551.148438 476.152344 L 340.984375 476.152344 L 340.703125 476.136719 L 340.695312 476.136719 L 340.125 478.777344 L 342.070312 477.105469 C 341.433594 476.351562 340.722656 476.128906 340.695312 476.136719 L 340.125 478.777344 L 342.070312 477.105469 L 339.34375 479.449219 L 343.003906 479.449219 C 343.046875 478.941406 342.734375 477.824219 342.070312 477.105469 L 339.34375 479.449219 L 343.003906 479.449219 L 341.554688 479.449219 L 342.972656 479.808594 L 343.003906 479.449219 L 341.554688 479.449219 L 342.972656 479.808594 L 343.085938 479.546875 L 351.378906 462.808594 C 352.820312 459.875 353.738281 456.789062 354.382812 453.601562 C 355.011719 450.414062 355.355469 447.132812 355.355469 443.894531 C 355.347656 441.265625 355.136719 438.667969 354.554688 436.066406 L 324.71875 304.664062 L 324.726562 304.671875 C 323.507812 299.472656 320.714844 295.285156 317.25 291.90625 C 313.738281 288.5625 309.449219 285.925781 304.234375 284.898438 L 274.316406 279.695312 C 269.339844 278.757812 265.613281 281.792969 264.671875 286.777344 C 263.742188 291.761719 267.015625 296.5625 271.992188 297.507812 " fill-opacity="1" fill-rule="nonzero"/><g clip-path="url(#id3)"><path fill="#ffffff" d="M 318.5625 324.425781 L 552.964844 347.167969 C 554.445312 347.324219 555.386719 347.863281 556.019531 348.527344 C 556.648438 349.207031 557.015625 350.058594 557.027344 351.199219 C 557.027344 351.691406 556.953125 352.25 556.761719 352.855469 L 531.09375 436.984375 C 530.578125 438.730469 529.144531 440.683594 527.246094 442.078125 C 525.355469 443.496094 523.078125 444.296875 521.253906 444.273438 L 349.527344 444.273438 L 349.527344 453.453125 L 521.253906 453.453125 C 525.484375 453.4375 529.4375 451.863281 532.695312 449.460938 C 535.953125 447.035156 538.605469 443.714844 539.859375 439.667969 L 539.671875 440.296875 L 565.53125 355.535156 L 565.53125 355.527344 C 565.972656 354.101562 566.195312 352.644531 566.195312 351.199219 C 566.203125 347.847656 564.957031 344.632812 562.714844 342.25 C 560.496094 339.863281 557.335938 338.355469 553.847656 338.027344 L 319.445312 315.285156 L 318.5625 324.425781 " fill-opacity="1" fill-rule="nonzero"/></g><path fill="#ffffff" d="M 515.039062 341.878906 L 493.820312 447.960938 L 502.808594 449.773438 L 524.027344 343.683594 L 515.039062 341.878906 " fill-opacity="1" fill-rule="nonzero"/><path fill="#ffffff" d="M 464.140625 336.304688 L 457.140625 448.585938 L 466.300781 449.152344 L 473.292969 336.878906 L 464.140625 336.304688 " fill-opacity="1" fill-rule="nonzero"/><path fill="#ffffff" d="M 413.328125 330.671875 L 420.542969 449.144531 L 429.695312 448.585938 L 422.472656 330.117188 L 413.328125 330.671875 " fill-opacity="1" fill-rule="nonzero"/><path fill="#ffffff" d="M 362.570312 324.984375 L 384.007812 449.652344 L 393.035156 448.09375 L 371.605469 323.425781 L 362.570312 324.984375 " fill-opacity="1" fill-rule="nonzero"/><path fill="#ffffff" d="M 333.960938 392.171875 L 548.121094 400.851562 L 548.496094 391.671875 L 334.328125 382.988281 L 333.960938 392.171875 " fill-opacity="1" fill-rule="nonzero"/><path fill="#ffffff" d="M 302.527344 293.589844 C 301.707031 298.546875 296.15625 301.785156 290.1875 300.792969 L 253.84375 294.800781 C 247.882812 293.816406 243.660156 288.964844 244.472656 284.023438 C 245.289062 279.070312 250.839844 275.824219 256.816406 276.808594 L 293.152344 282.800781 C 299.121094 283.792969 303.34375 288.644531 302.527344 293.589844 " fill-opacity="1" fill-rule="nonzero"/><path fill="#ffffff" d="M 248.0625 283.5 C 250.847656 283.5 253.125 281.222656 253.125 278.4375 L 253.125 253.125 L 283.5 253.125 C 286.285156 253.125 288.5625 250.847656 288.5625 248.0625 C 288.5625 245.277344 286.285156 243 283.5 243 L 248.0625 243 C 245.277344 243 243 245.277344 243 248.0625 L 243 278.4375 C 243 281.222656 245.277344 283.5 248.0625 283.5 Z M 248.0625 283.5 " fill-opacity="1" fill-rule="nonzero"/><path fill="#ffffff" d="M 561.9375 243 L 526.5 243 C 523.714844 243 521.4375 245.277344 521.4375 248.0625 C 521.4375 250.847656 523.714844 253.125 526.5 253.125 L 556.875 253.125 L 556.875 278.4375 C 556.875 281.222656 559.152344 283.5 561.9375 283.5 C 564.722656 283.5 567 281.222656 567 278.4375 L 567 248.0625 C 567 245.277344 564.722656 243 561.9375 243 Z M 561.9375 243 " fill-opacity="1" fill-rule="nonzero"/><path fill="#ffffff" d="M 283.5 556.875 L 253.125 556.875 L 253.125 531.5625 C 253.125 528.777344 250.847656 526.5 248.0625 526.5 C 245.277344 526.5 243 528.777344 243 531.5625 L 243 561.9375 C 243 564.722656 245.277344 567 248.0625 567 L 283.5 567 C 286.285156 567 288.5625 564.722656 288.5625 561.9375 C 288.5625 559.152344 286.285156 556.875 283.5 556.875 Z M 283.5 556.875 " fill-opacity="1" fill-rule="nonzero"/><path fill="#ffffff" d="M 561.9375 526.5 C 559.152344 526.5 556.875 528.777344 556.875 531.5625 L 556.875 556.875 L 526.5 556.875 C 523.714844 556.875 521.4375 559.152344 521.4375 561.9375 C 521.4375 564.722656 523.714844 567 526.5 567 L 561.9375 567 C 564.722656 567 567 564.722656 567 561.9375 L 567 531.5625 C 567 528.777344 564.722656 526.5 561.9375 526.5 Z M 561.9375 526.5 " fill-opacity="1" fill-rule="nonzero"/><path fill="#ffffff" d="M 379.6875 303.75 L 379.6875 283.5 C 379.6875 280.714844 377.410156 278.4375 374.625 278.4375 C 371.839844 278.4375 369.5625 280.714844 369.5625 283.5 L 369.5625 303.75 C 369.5625 306.535156 371.839844 308.8125 374.625 308.8125 C 377.410156 308.8125 379.6875 306.535156 379.6875 303.75 Z M 379.6875 303.75 " fill-opacity="1" fill-rule="nonzero"/><path fill="#ffffff" d="M 359.4375 303.75 L 359.4375 283.5 C 359.4375 280.714844 357.160156 278.4375 354.375 278.4375 C 351.589844 278.4375 349.3125 280.714844 349.3125 283.5 L 349.3125 303.75 C 349.3125 306.535156 351.589844 308.8125 354.375 308.8125 C 357.160156 308.8125 359.4375 306.535156 359.4375 303.75 Z M 359.4375 303.75 " fill-opacity="1" fill-rule="nonzero"/><path fill="#ffffff" d="M 407.53125 284.257812 L 392.851562 284.257812 C 390.066406 284.257812 387.789062 286.539062 387.789062 289.320312 C 387.789062 292.105469 390.066406 294.382812 392.851562 294.382812 L 402.46875 294.382812 L 402.46875 301.21875 C 402.46875 304.003906 404.746094 306.28125 407.53125 306.28125 L 432.84375 306.28125 C 435.628906 306.28125 437.90625 304.003906 437.90625 301.21875 C 437.90625 298.433594 435.628906 296.15625 432.84375 296.15625 L 412.59375 296.15625 L 412.59375 289.320312 C 412.59375 286.539062 410.316406 284.257812 407.53125 284.257812 Z M 407.53125 284.257812 " fill-opacity="1" fill-rule="nonzero"/><path fill="#ffffff" d="M 378.929688 341.210938 C 378.929688 343.996094 381.207031 346.273438 383.992188 346.273438 L 391.585938 346.273438 L 391.585938 353.363281 C 391.585938 356.148438 393.863281 358.425781 396.648438 358.425781 C 399.429688 358.425781 401.710938 356.148438 401.710938 353.363281 L 401.710938 346.273438 L 409.304688 346.273438 C 412.085938 346.273438 414.367188 343.996094 414.367188 341.210938 C 414.367188 338.429688 412.085938 336.148438 409.304688 336.148438 L 383.992188 336.148438 C 381.207031 336.148438 378.929688 338.429688 378.929688 341.210938 Z M 378.929688 341.210938 " fill-opacity="1" fill-rule="nonzero"/><path fill="#ffffff" d="M 346.273438 320.203125 C 346.273438 322.988281 348.554688 325.265625 351.335938 325.265625 L 362.726562 325.265625 L 362.726562 336.148438 L 354.628906 336.148438 C 351.84375 336.148438 349.566406 338.429688 349.566406 341.210938 L 349.566406 353.363281 C 349.566406 356.148438 351.84375 358.425781 354.628906 358.425781 C 357.414062 358.425781 359.691406 356.148438 359.691406 353.363281 L 359.691406 346.273438 L 367.789062 346.273438 C 370.574219 346.273438 372.851562 343.996094 372.851562 341.210938 L 372.851562 325.265625 L 379.179688 325.265625 C 381.964844 325.265625 384.242188 322.988281 384.242188 320.203125 C 384.242188 317.417969 381.964844 315.140625 379.179688 315.140625 L 351.335938 315.140625 C 348.554688 315.140625 346.273438 317.417969 346.273438 320.203125 Z M 346.273438 320.203125 " fill-opacity="1" fill-rule="nonzero"/><path fill="#ffffff" d="M 387.789062 382.976562 C 387.789062 385.761719 390.066406 388.039062 392.851562 388.039062 L 400.949219 388.039062 L 400.949219 391.078125 C 400.949219 393.863281 403.226562 396.140625 406.011719 396.140625 L 418.667969 396.140625 L 418.667969 405.507812 L 396.648438 405.507812 C 393.863281 405.507812 391.585938 407.785156 391.585938 410.570312 C 391.585938 413.351562 393.863281 415.632812 396.648438 415.632812 L 423.730469 415.632812 C 426.515625 415.632812 428.792969 413.351562 428.792969 410.570312 L 428.792969 396.140625 L 437.652344 396.140625 C 440.4375 396.140625 442.714844 393.863281 442.714844 391.078125 L 442.714844 379.6875 L 451.574219 379.6875 C 454.359375 379.6875 456.636719 377.410156 456.636719 374.625 C 456.636719 371.839844 454.359375 369.5625 451.574219 369.5625 L 437.652344 369.5625 C 434.867188 369.5625 432.589844 371.839844 432.589844 374.625 L 432.589844 386.015625 L 411.074219 386.015625 L 411.074219 382.976562 C 411.074219 380.195312 408.796875 377.914062 406.011719 377.914062 L 392.851562 377.914062 C 390.066406 377.914062 387.789062 380.195312 387.789062 382.976562 Z M 387.789062 382.976562 " fill-opacity="1" fill-rule="nonzero"/><path fill="#ffffff" d="M 367.539062 429.046875 C 367.539062 431.832031 369.816406 434.109375 372.601562 434.109375 L 382.21875 434.109375 L 382.21875 450.5625 C 382.21875 453.347656 384.496094 455.625 387.28125 455.625 C 390.066406 455.625 392.34375 453.347656 392.34375 450.5625 L 392.34375 434.109375 L 401.960938 434.109375 C 404.746094 434.109375 407.023438 431.832031 407.023438 429.046875 C 407.023438 426.261719 404.746094 423.984375 401.960938 423.984375 L 372.601562 423.984375 C 369.816406 423.984375 367.539062 426.261719 367.539062 429.046875 Z M 367.539062 429.046875 " fill-opacity="1" fill-rule="nonzero"/><path fill="#ffffff" d="M 334.125 275.90625 L 273.375 275.90625 C 270.589844 275.90625 268.3125 278.183594 268.3125 280.96875 L 268.3125 341.71875 C 268.3125 344.503906 270.589844 346.78125 273.375 346.78125 L 334.125 346.78125 C 336.910156 346.78125 339.1875 344.503906 339.1875 341.71875 L 339.1875 280.96875 C 339.1875 278.183594 336.910156 275.90625 334.125 275.90625 Z M 329.0625 336.65625 L 278.4375 336.65625 L 278.4375 286.03125 L 329.0625 286.03125 Z M 329.0625 336.65625 " fill-opacity="1" fill-rule="nonzero"/><path fill="#ffffff" d="M 291.09375 329.0625 L 316.40625 329.0625 C 319.191406 329.0625 321.46875 326.785156 321.46875 324 L 321.46875 298.6875 C 321.46875 295.902344 319.191406 293.625 316.40625 293.625 L 291.09375 293.625 C 288.308594 293.625 286.03125 295.902344 286.03125 298.6875 L 286.03125 324 C 286.03125 326.785156 288.308594 329.0625 291.09375 329.0625 Z M 296.15625 303.75 L 311.34375 303.75 L 311.34375 318.9375 L 296.15625 318.9375 Z M 296.15625 303.75 " fill-opacity="1" fill-rule="nonzero"/><path fill="#ffffff" d="M 268.3125 529.03125 C 268.3125 531.816406 270.589844 534.09375 273.375 534.09375 L 334.125 534.09375 C 336.910156 534.09375 339.1875 531.816406 339.1875 529.03125 L 339.1875 468.28125 C 339.1875 465.496094 336.910156 463.21875 334.125 463.21875 L 273.375 463.21875 C 270.589844 463.21875 268.3125 465.496094 268.3125 468.28125 Z M 278.4375 473.34375 L 329.0625 473.34375 L 329.0625 523.96875 L 278.4375 523.96875 Z M 278.4375 473.34375 " fill-opacity="1" fill-rule="nonzero"/><path fill="#ffffff" d="M 316.40625 480.9375 L 291.09375 480.9375 C 288.308594 480.9375 286.03125 483.214844 286.03125 486 L 286.03125 511.3125 C 286.03125 514.097656 288.308594 516.375 291.09375 516.375 L 316.40625 516.375 C 319.191406 516.375 321.46875 514.097656 321.46875 511.3125 L 321.46875 486 C 321.46875 483.214844 319.191406 480.9375 316.40625 480.9375 Z M 311.34375 506.25 L 296.15625 506.25 L 296.15625 491.0625 L 311.34375 491.0625 Z M 311.34375 506.25 " fill-opacity="1" fill-rule="nonzero"/><path fill="#ffffff" d="M 541.6875 280.96875 C 541.6875 278.183594 539.410156 275.90625 536.625 275.90625 L 475.875 275.90625 C 473.089844 275.90625 470.8125 278.183594 470.8125 280.96875 L 470.8125 341.71875 C 470.8125 344.503906 473.089844 346.78125 475.875 346.78125 L 536.625 346.78125 C 539.410156 346.78125 541.6875 344.503906 541.6875 341.71875 Z M 531.5625 336.65625 L 480.9375 336.65625 L 480.9375 286.03125 L 531.5625 286.03125 Z M 531.5625 336.65625 " fill-opacity="1" fill-rule="nonzero"/><path fill="#ffffff" d="M 493.59375 329.0625 L 518.90625 329.0625 C 521.691406 329.0625 523.96875 326.785156 523.96875 324 L 523.96875 298.6875 C 523.96875 295.902344 521.691406 293.625 518.90625 293.625 L 493.59375 293.625 C 490.808594 293.625 488.53125 295.902344 488.53125 298.6875 L 488.53125 324 C 488.53125 326.785156 490.808594 329.0625 493.59375 329.0625 Z M 498.65625 303.75 L 513.84375 303.75 L 513.84375 318.9375 L 498.65625 318.9375 Z M 498.65625 303.75 " fill-opacity="1" fill-rule="nonzero"/><path fill="#ffffff" d="M 475.875 534.09375 L 536.625 534.09375 C 539.410156 534.09375 541.6875 531.816406 541.6875 529.03125 L 541.6875 468.28125 C 541.6875 465.496094 539.410156 463.21875 536.625 463.21875 L 475.875 463.21875 C 473.089844 463.21875 470.8125 465.496094 470.8125 468.28125 L 470.8125 529.03125 C 470.8125 531.816406 473.089844 534.09375 475.875 534.09375 Z M 480.9375 473.34375 L 531.5625 473.34375 L 531.5625 523.96875 L 480.9375 523.96875 Z M 480.9375 473.34375 " fill-opacity="1" fill-rule="nonzero"/><path fill="#ffffff" d="M 518.90625 480.9375 L 493.59375 480.9375 C 490.808594 480.9375 488.53125 483.214844 488.53125 486 L 488.53125 511.3125 C 488.53125 514.097656 490.808594 516.375 493.59375 516.375 L 518.90625 516.375 C 521.691406 516.375 523.96875 514.097656 523.96875 511.3125 L 523.96875 486 C 523.96875 483.214844 521.691406 480.9375 518.90625 480.9375 Z M 513.84375 506.25 L 498.65625 506.25 L 498.65625 491.0625 L 513.84375 491.0625 Z M 513.84375 506.25 " fill-opacity="1" fill-rule="nonzero"/><path fill="#ffffff" d="M 296.15625 359.945312 C 296.15625 357.160156 293.878906 354.882812 291.09375 354.882812 C 288.308594 354.882812 286.03125 357.160156 286.03125 359.945312 L 286.03125 381.460938 C 286.03125 384.242188 288.308594 386.523438 291.09375 386.523438 L 301.21875 386.523438 L 301.21875 410.0625 C 301.21875 412.847656 303.496094 415.125 306.28125 415.125 L 329.0625 415.125 C 331.847656 415.125 334.125 412.847656 334.125 410.0625 C 334.125 407.277344 331.847656 405 329.0625 405 L 311.34375 405 L 311.34375 386.523438 L 349.3125 386.523438 L 349.3125 417.65625 C 349.3125 420.441406 351.589844 422.71875 354.375 422.71875 C 357.160156 422.71875 359.4375 420.441406 359.4375 417.65625 L 359.4375 381.460938 C 359.4375 378.675781 357.160156 376.398438 354.375 376.398438 L 296.15625 376.398438 Z M 296.15625 359.945312 " fill-opacity="1" fill-rule="nonzero"/><path fill="#ffffff" d="M 336.148438 357.414062 L 314.632812 357.414062 C 311.851562 357.414062 309.570312 359.691406 309.570312 362.476562 C 309.570312 365.257812 311.851562 367.539062 314.632812 367.539062 L 336.148438 367.539062 C 338.933594 367.539062 341.210938 365.257812 341.210938 362.476562 C 341.210938 359.691406 338.933594 357.414062 336.148438 357.414062 Z M 336.148438 357.414062 " fill-opacity="1" fill-rule="nonzero"/><path fill="#ffffff" d="M 384.75 369.5625 L 384.75 359.4375 C 384.75 356.652344 382.472656 354.375 379.6875 354.375 C 376.902344 354.375 374.625 356.652344 374.625 359.4375 L 374.625 369.5625 C 374.625 372.347656 376.902344 374.625 379.6875 374.625 C 382.472656 374.625 384.75 372.347656 384.75 369.5625 Z M 384.75 369.5625 " fill-opacity="1" fill-rule="nonzero"/><path fill="#ffffff" d="M 399.9375 470.8125 C 399.9375 468.027344 397.660156 465.75 394.875 465.75 L 354.375 465.75 L 354.375 439.679688 C 354.375 436.894531 352.097656 434.617188 349.3125 434.617188 C 346.527344 434.617188 344.25 436.894531 344.25 439.679688 L 344.25 470.8125 C 344.25 473.597656 346.527344 475.875 349.3125 475.875 L 394.875 475.875 C 397.660156 475.875 399.9375 473.597656 399.9375 470.8125 Z M 399.9375 470.8125 " fill-opacity="1" fill-rule="nonzero"/><path fill="#ffffff" d="M 362.726562 444.992188 L 362.726562 455.625 C 362.726562 458.410156 365.007812 460.6875 367.789062 460.6875 C 370.574219 460.6875 372.851562 458.410156 372.851562 455.625 L 372.851562 444.742188 C 372.851562 441.957031 370.574219 439.679688 367.789062 439.679688 C 365.007812 439.679688 362.726562 441.957031 362.726562 444.992188 Z M 362.726562 444.992188 " fill-opacity="1" fill-rule="nonzero"/><path fill="#ffffff" d="M 425.25 339.1875 C 428.035156 339.1875 430.3125 336.910156 430.3125 334.125 L 430.3125 326.53125 L 432.84375 326.53125 C 435.628906 326.53125 437.90625 324.253906 437.90625 321.46875 C 437.90625 318.683594 435.628906 316.40625 432.84375 316.40625 L 402.46875 316.40625 C 399.683594 316.40625 397.40625 318.683594 397.40625 321.46875 C 397.40625 324.253906 399.683594 326.53125 402.46875 326.53125 L 420.1875 326.53125 L 420.1875 334.125 C 420.1875 336.910156 422.464844 339.1875 425.25 339.1875 Z M 425.25 339.1875 " fill-opacity="1" fill-rule="nonzero"/><path fill="#ffffff" d="M 431.070312 355.132812 C 431.070312 357.917969 433.351562 360.195312 436.132812 360.195312 L 468.535156 360.195312 L 468.535156 384.75 C 468.535156 387.535156 470.8125 389.8125 473.597656 389.8125 C 476.382812 389.8125 478.660156 387.535156 478.660156 384.75 L 478.660156 355.132812 C 478.660156 352.351562 476.382812 350.070312 473.597656 350.070312 L 436.132812 350.070312 C 433.351562 350.070312 431.070312 352.351562 431.070312 355.132812 Z M 431.070312 355.132812 " fill-opacity="1" fill-rule="nonzero"/><path fill="#ffffff" d="M 455.117188 419.679688 C 457.902344 419.679688 460.179688 417.402344 460.179688 414.617188 L 460.179688 397.660156 C 460.179688 394.875 457.902344 392.597656 455.117188 392.597656 C 452.335938 392.597656 450.054688 394.875 450.054688 397.660156 L 450.054688 414.617188 C 450.054688 417.402344 452.082031 419.679688 455.117188 419.679688 Z M 455.117188 419.679688 " fill-opacity="1" fill-rule="nonzero"/><path fill="#ffffff" d="M 427.78125 455.625 C 430.566406 455.625 432.84375 453.347656 432.84375 450.5625 L 432.84375 430.3125 C 432.84375 427.527344 430.566406 425.25 427.78125 425.25 L 417.65625 425.25 C 414.871094 425.25 412.59375 427.527344 412.59375 430.3125 C 412.59375 433.097656 414.871094 435.375 417.65625 435.375 L 422.71875 435.375 L 422.71875 450.5625 C 422.71875 453.347656 424.996094 455.625 427.78125 455.625 Z M 427.78125 455.625 " fill-opacity="1" fill-rule="nonzero"/><path fill="#ffffff" d="M 404.242188 444.992188 L 404.242188 460.6875 C 404.242188 463.472656 406.519531 465.75 409.304688 465.75 C 412.085938 465.75 414.367188 463.472656 414.367188 460.6875 L 414.367188 444.742188 C 414.367188 441.957031 412.085938 439.679688 409.304688 439.679688 C 406.519531 439.929688 404.242188 441.957031 404.242188 444.992188 Z M 404.242188 444.992188 " fill-opacity="1" fill-rule="nonzero"/><path fill="#ffffff" d="M 450.054688 470.8125 L 450.054688 434.109375 C 450.054688 431.324219 447.777344 429.046875 444.992188 429.046875 C 442.210938 429.046875 439.929688 431.324219 439.929688 434.109375 L 439.929688 465.75 L 423.476562 465.75 C 420.695312 465.75 418.414062 468.027344 418.414062 470.8125 C 418.414062 473.597656 420.695312 475.875 423.476562 475.875 L 444.992188 475.875 C 447.777344 475.875 450.054688 473.597656 450.054688 470.8125 Z M 450.054688 470.8125 " fill-opacity="1" fill-rule="nonzero"/><path fill="#ffffff" d="M 485.492188 397.40625 L 473.597656 397.40625 C 470.8125 397.40625 468.535156 399.683594 468.535156 402.46875 C 468.535156 405.253906 470.8125 407.53125 473.597656 407.53125 L 490.554688 407.53125 C 493.339844 407.53125 495.617188 405.253906 495.617188 402.46875 L 495.617188 384.75 C 495.617188 381.964844 493.339844 379.6875 490.554688 379.6875 C 487.773438 379.6875 485.492188 381.964844 485.492188 384.75 Z M 485.492188 397.40625 " fill-opacity="1" fill-rule="nonzero"/><path fill="#ffffff" d="M 521.4375 374.625 C 524.222656 374.625 526.5 372.347656 526.5 369.5625 L 526.5 357.414062 C 526.5 354.628906 524.222656 352.351562 521.4375 352.351562 L 490.554688 352.351562 C 487.773438 352.351562 485.492188 354.628906 485.492188 357.414062 C 485.492188 360.195312 487.773438 362.476562 490.554688 362.476562 L 516.375 362.476562 L 516.375 369.5625 C 516.375 372.347656 518.652344 374.625 521.4375 374.625 Z M 521.4375 374.625 " fill-opacity="1" fill-rule="nonzero"/><path fill="#ffffff" d="M 541.6875 377.15625 C 541.6875 374.371094 539.410156 372.09375 536.625 372.09375 C 533.839844 372.09375 531.5625 374.371094 531.5625 377.15625 L 531.5625 392.34375 L 511.3125 392.34375 L 511.3125 378.675781 C 511.3125 375.890625 509.035156 373.613281 506.25 373.613281 C 503.464844 373.613281 501.1875 375.890625 501.1875 378.675781 L 501.1875 397.40625 C 501.1875 400.191406 503.464844 402.46875 506.25 402.46875 L 536.625 402.46875 C 539.410156 402.46875 541.6875 400.191406 541.6875 397.40625 Z M 541.6875 377.15625 " fill-opacity="1" fill-rule="nonzero"/><path fill="#ffffff" d="M 369.5625 534.09375 C 372.347656 534.09375 374.625 531.816406 374.625 529.03125 L 374.625 501.945312 C 374.625 499.164062 372.347656 496.882812 369.5625 496.882812 L 354.375 496.882812 L 354.375 491.0625 C 354.375 488.277344 352.097656 486 349.3125 486 C 346.527344 486 344.25 488.277344 344.25 491.0625 L 344.25 501.945312 C 344.25 504.730469 346.527344 507.007812 349.3125 507.007812 L 364.5 507.007812 L 364.5 529.03125 C 364.5 531.816406 366.777344 534.09375 369.5625 534.09375 Z M 369.5625 534.09375 " fill-opacity="1" fill-rule="nonzero"/><path fill="#ffffff" d="M 409.304688 534.09375 L 440.183594 534.09375 C 442.96875 534.09375 445.246094 531.816406 445.246094 529.03125 C 445.246094 526.246094 442.96875 523.96875 440.183594 523.96875 L 414.367188 523.96875 L 414.367188 511.3125 C 414.367188 508.527344 412.085938 506.25 409.304688 506.25 L 383.992188 506.25 C 381.207031 506.25 378.929688 508.527344 378.929688 511.3125 C 378.929688 514.097656 381.207031 516.375 383.992188 516.375 L 404.242188 516.375 L 404.242188 529.03125 C 404.242188 531.816406 406.519531 534.09375 409.304688 534.09375 Z M 409.304688 534.09375 " fill-opacity="1" fill-rule="nonzero"/><path fill="#ffffff" d="M 463.976562 514.351562 L 463.976562 498.65625 C 463.976562 495.871094 461.699219 493.59375 458.914062 493.59375 C 456.132812 493.59375 453.851562 495.871094 453.851562 498.65625 L 453.851562 509.289062 L 429.300781 509.289062 C 426.515625 509.289062 424.238281 511.566406 424.238281 514.351562 C 424.238281 517.132812 426.515625 519.414062 429.300781 519.414062 L 458.914062 519.414062 C 461.699219 519.414062 463.976562 517.132812 463.976562 514.351562 Z M 463.976562 514.351562 " fill-opacity="1" fill-rule="nonzero"/><path fill="#ffffff" d="M 378.929688 493.085938 C 378.929688 495.871094 381.207031 498.148438 383.992188 498.148438 L 440.183594 498.148438 C 442.96875 498.148438 445.246094 495.871094 445.246094 493.085938 C 445.246094 490.304688 442.96875 488.023438 440.183594 488.023438 L 383.992188 488.023438 C 381.207031 488.023438 378.929688 490.304688 378.929688 493.085938 Z M 378.929688 493.085938 " fill-opacity="1" fill-rule="nonzero"/><path fill="#ffffff" d="M 488.53125 453.09375 C 491.316406 453.09375 493.59375 450.816406 493.59375 448.03125 C 493.59375 445.246094 491.316406 442.96875 488.53125 442.96875 L 472.078125 442.96875 L 472.078125 420.945312 C 472.078125 418.164062 469.800781 415.882812 467.015625 415.882812 C 464.230469 415.882812 461.953125 418.164062 461.953125 420.945312 L 461.953125 448.03125 C 461.953125 450.816406 464.230469 453.09375 467.015625 453.09375 Z M 488.53125 453.09375 " fill-opacity="1" fill-rule="nonzero"/><path fill="#ffffff" d="M 536.625 442.96875 L 516.375 442.96875 L 516.375 427.78125 C 516.375 424.996094 514.097656 422.71875 511.3125 422.71875 L 486 422.71875 C 483.214844 422.71875 480.9375 424.996094 480.9375 427.78125 C 480.9375 430.566406 483.214844 432.84375 486 432.84375 L 506.25 432.84375 L 506.25 448.03125 C 506.25 450.816406 508.527344 453.09375 511.3125 453.09375 L 536.625 453.09375 C 539.410156 453.09375 541.6875 450.816406 541.6875 448.03125 C 541.6875 445.246094 539.410156 442.96875 536.625 442.96875 Z M 536.625 442.96875 " fill-opacity="1" fill-rule="nonzero"/><path fill="#ffffff" d="M 539.15625 427.78125 L 539.15625 412.59375 C 539.15625 409.808594 536.878906 407.53125 534.09375 407.53125 C 531.308594 407.53125 529.03125 409.808594 529.03125 412.59375 L 529.03125 427.78125 C 529.03125 430.566406 531.308594 432.84375 534.09375 432.84375 C 536.878906 432.84375 539.15625 430.566406 539.15625 427.78125 Z M 539.15625 427.78125 " fill-opacity="1" fill-rule="nonzero"/><path fill="#ffffff" d="M 273.375 382.21875 C 276.160156 382.21875 278.4375 379.941406 278.4375 377.15625 L 278.4375 359.4375 C 278.4375 356.652344 276.160156 354.375 273.375 354.375 C 270.589844 354.375 268.3125 356.652344 268.3125 359.4375 L 268.3125 377.15625 C 268.3125 379.941406 270.589844 382.21875 273.375 382.21875 Z M 273.375 382.21875 " fill-opacity="1" fill-rule="nonzero"/><path fill="#ffffff" d="M 273.375 402.46875 L 280.96875 402.46875 L 280.96875 410.0625 C 280.96875 412.847656 283.246094 415.125 286.03125 415.125 C 288.816406 415.125 291.09375 412.847656 291.09375 410.0625 L 291.09375 397.40625 C 291.09375 394.621094 288.816406 392.34375 286.03125 392.34375 L 273.375 392.34375 C 270.589844 392.34375 268.3125 394.621094 268.3125 397.40625 C 268.3125 400.191406 270.589844 402.46875 273.375 402.46875 Z M 273.375 402.46875 " fill-opacity="1" fill-rule="nonzero"/><path fill="#ffffff" d="M 268.3125 450.308594 C 268.3125 453.09375 270.589844 455.371094 273.375 455.371094 C 276.160156 455.371094 278.4375 453.09375 278.4375 450.308594 L 278.4375 435.375 L 306.28125 435.375 C 309.066406 435.375 311.34375 433.097656 311.34375 430.3125 C 311.34375 427.527344 309.066406 425.25 306.28125 425.25 L 273.375 425.25 C 270.589844 425.25 268.3125 427.527344 268.3125 430.3125 Z M 268.3125 450.308594 " fill-opacity="1" fill-rule="nonzero"/><path fill="#ffffff" d="M 288.5625 450.308594 C 288.5625 453.09375 290.839844 455.371094 293.625 455.371094 L 326.277344 455.371094 C 329.0625 455.371094 331.339844 453.09375 331.339844 450.308594 L 331.339844 429.804688 C 331.339844 427.023438 329.0625 424.742188 326.277344 424.742188 C 323.492188 424.742188 321.214844 427.023438 321.214844 429.804688 L 321.214844 445.246094 L 293.625 445.246094 C 290.839844 445.246094 288.5625 447.523438 288.5625 450.308594 Z M 288.5625 450.308594 " fill-opacity="1" fill-rule="nonzero"/><path fill="#ffffff" d="M 455.625 336.65625 C 458.410156 336.65625 460.6875 334.378906 460.6875 331.59375 L 460.6875 286.03125 C 460.6875 283.246094 458.410156 280.96875 455.625 280.96875 C 452.839844 280.96875 450.5625 283.246094 450.5625 286.03125 L 450.5625 326.53125 L 445.5 326.53125 C 442.714844 326.53125 440.4375 328.808594 440.4375 331.59375 C 440.4375 334.378906 442.714844 336.65625 445.5 336.65625 Z M 455.625 336.65625 " fill-opacity="1" fill-rule="nonzero"/><path fill="#ffffff" d="M 369.5625 384.75 L 369.5625 397.40625 C 369.5625 400.191406 371.839844 402.46875 374.625 402.46875 L 384.75 402.46875 C 387.535156 402.46875 389.8125 400.191406 389.8125 397.40625 C 389.8125 394.621094 387.535156 392.34375 384.75 392.34375 L 379.6875 392.34375 L 379.6875 384.75 C 379.6875 381.964844 377.410156 379.6875 374.625 379.6875 C 371.839844 379.6875 369.5625 381.964844 369.5625 384.75 Z M 369.5625 384.75 " fill-opacity="1" fill-rule="nonzero"/><path fill="#ffffff" d="M 412.59375 354.375 L 412.59375 361.96875 L 405 361.96875 C 402.214844 361.96875 399.9375 364.246094 399.9375 367.03125 C 399.9375 369.816406 402.214844 372.09375 405 372.09375 L 417.65625 372.09375 C 420.441406 372.09375 422.71875 369.816406 422.71875 367.03125 L 422.71875 354.375 C 422.71875 351.589844 420.441406 349.3125 417.65625 349.3125 C 414.871094 349.3125 412.59375 351.589844 412.59375 354.375 Z M 412.59375 354.375 " fill-opacity="1" fill-rule="nonzero"/></svg>