<svg xmlns="http://www.w3.org/2000/svg" xmlns:xlink="http://www.w3.org/1999/xlink" width="1080" zoomAndPan="magnify" viewBox="0 0 810 809.999993" height="1080" preserveAspectRatio="xMidYMid meet" version="1.0"><defs><clipPath id="id1"><path d="M 315.785156 276.445312 L 494.285156 276.445312 L 494.285156 393 L 315.785156 393 Z M 315.785156 276.445312 " clip-rule="nonzero"/></clipPath><clipPath id="id2"><path d="M 315.785156 374 L 494.285156 374 L 494.285156 382 L 315.785156 382 Z M 315.785156 374 " clip-rule="nonzero"/></clipPath><clipPath id="id3"><path d="M 346 404 L 464 404 L 464 421.195312 L 346 421.195312 Z M 346 404 " clip-rule="nonzero"/></clipPath></defs><path fill="#ffffff" d="M 335.921875 377.941406 L 335.921875 297.324219 C 335.921875 296.464844 336.261719 295.71875 336.820312 295.152344 C 337.386719 294.59375 338.132812 294.253906 338.992188 294.253906 L 471.078125 294.253906 C 471.9375 294.253906 472.683594 294.59375 473.25 295.152344 C 473.808594 295.71875 474.148438 296.464844 474.148438 297.324219 L 474.148438 381.007812 L 480.28125 381.007812 L 480.28125 297.324219 C 480.28125 294.792969 479.246094 292.472656 477.585938 290.816406 C 475.929688 289.15625 473.609375 288.121094 471.078125 288.125 L 338.992188 288.125 C 336.460938 288.121094 334.140625 289.15625 332.484375 290.816406 C 330.824219 292.472656 329.789062 294.792969 329.792969 297.324219 L 329.792969 381.007812 L 335.921875 381.007812 L 335.921875 377.941406 " fill-opacity="1" fill-rule="nonzero"/><path fill="#ffffff" d="M 425.511719 392.65625 L 419.382812 392.65625 L 419.382812 404.917969 L 425.511719 404.917969 L 425.511719 392.65625 " fill-opacity="1" fill-rule="nonzero"/><path fill="#ffffff" d="M 390.691406 392.65625 L 384.558594 392.65625 L 384.558594 404.917969 L 390.691406 404.917969 L 390.691406 392.65625 " fill-opacity="1" fill-rule="nonzero"/><g clip-path="url(#id1)"><path fill="#ffffff" d="M 494.175781 381.007812 L 488.046875 381.007812 L 488.046875 381.621094 L 494.175781 381.621094 L 494.175781 381.007812 M 483.144531 276.472656 C 483.144531 276.472656 483.140625 276.472656 483.140625 276.472656 L 326.929688 276.472656 C 323.894531 276.472656 321.113281 277.714844 319.128906 279.707031 C 317.136719 281.695312 315.894531 284.472656 315.894531 287.511719 L 315.894531 381.621094 C 315.894531 384.65625 317.136719 387.4375 319.128906 389.425781 C 321.113281 391.414062 323.890625 392.65625 326.925781 392.65625 C 326.925781 392.65625 326.929688 392.65625 326.929688 392.65625 L 384.558594 392.65625 L 384.558594 386.523438 L 390.691406 386.523438 L 390.691406 392.65625 L 419.382812 392.65625 L 419.382812 386.523438 L 425.511719 386.523438 L 425.511719 392.65625 L 483.140625 392.65625 C 486.179688 392.65625 488.957031 391.417969 490.945312 389.425781 C 492.9375 387.4375 494.179688 384.65625 494.175781 381.621094 L 488.046875 381.621094 C 488.042969 382.984375 487.5 384.191406 486.609375 385.089844 C 485.710938 385.980469 484.503906 386.523438 483.140625 386.523438 L 326.929688 386.523438 C 325.566406 386.523438 324.359375 385.980469 323.460938 385.089844 C 322.570312 384.191406 322.027344 382.984375 322.027344 381.621094 L 322.027344 381.007812 L 315.894531 381.007812 L 315.894531 374.875 L 322.027344 374.875 L 322.027344 287.511719 C 322.027344 286.144531 322.570312 284.9375 323.460938 284.042969 C 324.359375 283.148438 325.566406 282.605469 326.929688 282.605469 L 483.140625 282.605469 C 484.503906 282.605469 485.710938 283.148438 486.609375 284.042969 C 487.5 284.9375 488.042969 286.144531 488.046875 287.511719 L 488.046875 374.875 L 494.175781 374.875 L 494.175781 287.511719 C 494.179688 284.472656 492.9375 281.695312 490.945312 279.707031 C 488.957031 277.714844 486.183594 276.472656 483.144531 276.472656 " fill-opacity="1" fill-rule="nonzero"/></g><path fill="#ffffff" d="M 425.511719 386.527344 L 419.382812 386.527344 L 419.382812 392.65625 L 425.511719 392.65625 L 425.511719 386.527344 " fill-opacity="1" fill-rule="nonzero"/><path fill="#ffffff" d="M 390.691406 386.527344 L 384.558594 386.527344 L 384.558594 392.65625 L 390.691406 392.65625 L 390.691406 386.527344 " fill-opacity="1" fill-rule="nonzero"/><path fill="#ffffff" d="M 329.792969 374.875 L 322.027344 374.875 L 322.027344 381.007812 L 329.792969 381.007812 L 329.792969 374.875 M 474.148438 374.875 L 335.921875 374.875 L 335.921875 381.007812 L 474.148438 381.007812 L 474.148438 374.875 M 488.046875 374.875 L 480.277344 374.875 L 480.277344 381.007812 L 488.046875 381.007812 L 488.046875 374.875 " fill-opacity="1" fill-rule="nonzero"/><path fill="#ffffff" d="M 335.921875 374.875 L 329.792969 374.875 L 329.792969 381.007812 L 335.921875 381.007812 L 335.921875 374.875 M 480.28125 374.875 L 474.148438 374.875 L 474.148438 381.007812 L 480.28125 381.007812 L 480.28125 374.875 " fill-opacity="1" fill-rule="nonzero"/><g clip-path="url(#id2)"><path fill="#ffffff" d="M 322.027344 374.875 L 315.894531 374.875 L 315.894531 381.007812 L 322.027344 381.007812 L 322.027344 374.875 M 494.175781 374.875 L 488.046875 374.875 L 488.046875 381.007812 L 494.175781 381.007812 L 494.175781 374.875 " fill-opacity="1" fill-rule="nonzero"/></g><g clip-path="url(#id3)"><path fill="#ffffff" d="M 419.382812 404.917969 L 390.691406 404.917969 L 390.691406 411.050781 L 419.382812 411.050781 L 419.382812 404.917969 M 460.519531 404.917969 L 425.511719 404.917969 L 425.511719 411.050781 L 457.453125 411.050781 L 457.453125 415.09375 L 352.617188 415.09375 L 352.617188 411.050781 L 384.558594 411.050781 L 384.558594 404.917969 L 349.554688 404.917969 C 348.746094 404.917969 347.957031 405.246094 347.386719 405.816406 C 346.8125 406.386719 346.488281 407.175781 346.488281 407.984375 L 346.488281 418.160156 C 346.488281 418.96875 346.8125 419.757812 347.386719 420.328125 C 347.957031 420.898438 348.746094 421.226562 349.554688 421.226562 L 460.519531 421.226562 C 461.328125 421.226562 462.117188 420.898438 462.6875 420.328125 C 463.257812 419.757812 463.585938 418.96875 463.585938 418.160156 L 460.519531 418.160156 L 460.519531 415.09375 L 460.519531 418.160156 L 463.585938 418.160156 L 463.585938 407.984375 C 463.585938 407.175781 463.257812 406.386719 462.6875 405.816406 C 462.117188 405.246094 461.324219 404.917969 460.519531 404.917969 " fill-opacity="1" fill-rule="nonzero"/></g><path fill="#ffffff" d="M 425.511719 404.917969 L 419.382812 404.917969 L 419.382812 411.050781 L 425.511719 411.050781 L 425.511719 404.917969 " fill-opacity="1" fill-rule="nonzero"/><path fill="#ffffff" d="M 390.691406 404.917969 L 384.558594 404.917969 L 384.558594 411.050781 L 390.691406 411.050781 L 390.691406 404.917969 " fill-opacity="1" fill-rule="nonzero"/></svg>