<svg xmlns="http://www.w3.org/2000/svg" xmlns:xlink="http://www.w3.org/1999/xlink" width="1080" zoomAndPan="magnify" viewBox="0 0 810 809.999993" height="1080" preserveAspectRatio="xMidYMid meet" version="1.0"><defs><clipPath id="id1"><path d="M 361 502 L 394 502 L 394 534.511719 L 361 534.511719 Z M 361 502 " clip-rule="nonzero"/></clipPath><clipPath id="id2"><path d="M 494 502 L 527 502 L 527 534.511719 L 494 534.511719 Z M 494 502 " clip-rule="nonzero"/></clipPath><clipPath id="id3"><path d="M 318 315 L 566.195312 315 L 566.195312 454 L 318 454 Z M 318 315 " clip-rule="nonzero"/></clipPath><clipPath id="id4"><path d="M 243 243 L 567 243 L 567 567 L 243 567 Z M 243 243 " clip-rule="nonzero"/></clipPath></defs><g clip-path="url(#id1)"><path fill="#ffffff" d="M 377.558594 523.328125 C 374.789062 523.328125 372.539062 521.082031 372.539062 518.296875 C 372.539062 515.527344 374.789062 513.28125 377.558594 513.28125 C 380.324219 513.28125 382.582031 515.527344 382.582031 518.296875 C 382.582031 521.082031 380.324219 523.328125 377.558594 523.328125 Z M 377.558594 502.089844 C 368.625 502.089844 361.375 509.34375 361.375 518.296875 C 361.375 527.246094 368.625 534.511719 377.558594 534.511719 C 386.503906 534.511719 393.75 527.246094 393.75 518.296875 C 393.75 509.34375 386.503906 502.089844 377.558594 502.089844 " fill-opacity="1" fill-rule="nonzero"/></g><g clip-path="url(#id2)"><path fill="#ffffff" d="M 510.5625 523.328125 C 507.789062 523.328125 505.542969 521.082031 505.542969 518.296875 C 505.542969 515.527344 507.789062 513.28125 510.5625 513.28125 C 513.335938 513.28125 515.589844 515.527344 515.589844 518.296875 C 515.589844 521.082031 513.335938 523.328125 510.5625 523.328125 Z M 510.5625 502.089844 C 501.625 502.089844 494.378906 509.34375 494.378906 518.296875 C 494.378906 527.246094 501.625 534.511719 510.5625 534.511719 C 519.5 534.511719 526.753906 527.246094 526.753906 518.296875 C 526.753906 509.34375 519.5 502.089844 510.5625 502.089844 " fill-opacity="1" fill-rule="nonzero"/></g><path fill="#ffffff" d="M 271.992188 297.507812 L 300.832031 302.941406 C 301.550781 303.039062 303.230469 303.84375 304.523438 305.128906 C 305.855469 306.375 306.714844 308.015625 306.839844 308.738281 L 336.667969 440.140625 L 336.675781 440.148438 C 336.867188 440.960938 337.019531 442.347656 337.011719 443.894531 C 337.019531 445.824219 336.800781 448.019531 336.398438 449.988281 C 336.015625 451.953125 335.417969 453.71875 334.949219 454.644531 L 326.648438 471.382812 C 325.4375 473.839844 324.667969 476.554688 324.667969 479.449219 C 324.660156 481.496094 325.070312 483.621094 325.953125 485.589844 C 327.261719 488.5625 329.679688 491.015625 332.386719 492.464844 C 335.113281 493.933594 338.070312 494.523438 340.984375 494.523438 L 551.148438 494.523438 C 556.207031 494.523438 560.316406 490.410156 560.316406 485.335938 C 560.316406 480.269531 556.207031 476.152344 551.148438 476.152344 L 340.984375 476.152344 L 340.703125 476.136719 L 340.695312 476.136719 L 340.125 478.777344 L 342.070312 477.105469 C 341.433594 476.351562 340.722656 476.128906 340.695312 476.136719 L 340.125 478.777344 L 342.070312 477.105469 L 339.34375 479.449219 L 343.003906 479.449219 C 343.046875 478.941406 342.734375 477.824219 342.070312 477.105469 L 339.34375 479.449219 L 343.003906 479.449219 L 341.554688 479.449219 L 342.972656 479.808594 L 343.003906 479.449219 L 341.554688 479.449219 L 342.972656 479.808594 L 343.085938 479.546875 L 351.378906 462.808594 C 352.820312 459.875 353.738281 456.789062 354.382812 453.601562 C 355.011719 450.414062 355.355469 447.132812 355.355469 443.894531 C 355.347656 441.265625 355.136719 438.667969 354.554688 436.066406 L 324.71875 304.664062 L 324.726562 304.671875 C 323.507812 299.472656 320.714844 295.285156 317.25 291.90625 C 313.738281 288.5625 309.449219 285.925781 304.234375 284.898438 L 274.316406 279.695312 C 269.339844 278.757812 265.613281 281.792969 264.671875 286.777344 C 263.742188 291.761719 267.015625 296.5625 271.992188 297.507812 " fill-opacity="1" fill-rule="nonzero"/><g clip-path="url(#id3)"><path fill="#ffffff" d="M 318.5625 324.425781 L 552.964844 347.167969 C 554.445312 347.324219 555.386719 347.863281 556.019531 348.527344 C 556.648438 349.207031 557.015625 350.058594 557.027344 351.199219 C 557.027344 351.691406 556.953125 352.25 556.761719 352.855469 L 531.09375 436.984375 C 530.578125 438.730469 529.144531 440.683594 527.246094 442.078125 C 525.355469 443.496094 523.078125 444.296875 521.253906 444.273438 L 349.527344 444.273438 L 349.527344 453.453125 L 521.253906 453.453125 C 525.484375 453.4375 529.4375 451.863281 532.695312 449.460938 C 535.953125 447.035156 538.605469 443.714844 539.859375 439.667969 L 539.671875 440.296875 L 565.53125 355.535156 L 565.53125 355.527344 C 565.972656 354.101562 566.195312 352.644531 566.195312 351.199219 C 566.203125 347.847656 564.957031 344.632812 562.714844 342.25 C 560.496094 339.863281 557.335938 338.355469 553.847656 338.027344 L 319.445312 315.285156 L 318.5625 324.425781 " fill-opacity="1" fill-rule="nonzero"/></g><path fill="#ffffff" d="M 515.039062 341.878906 L 493.820312 447.960938 L 502.808594 449.773438 L 524.027344 343.683594 L 515.039062 341.878906 " fill-opacity="1" fill-rule="nonzero"/><path fill="#ffffff" d="M 464.140625 336.304688 L 457.140625 448.585938 L 466.300781 449.152344 L 473.292969 336.878906 L 464.140625 336.304688 " fill-opacity="1" fill-rule="nonzero"/><path fill="#ffffff" d="M 413.328125 330.671875 L 420.542969 449.144531 L 429.695312 448.585938 L 422.472656 330.117188 L 413.328125 330.671875 " fill-opacity="1" fill-rule="nonzero"/><path fill="#ffffff" d="M 362.570312 324.984375 L 384.007812 449.652344 L 393.035156 448.09375 L 371.605469 323.425781 L 362.570312 324.984375 " fill-opacity="1" fill-rule="nonzero"/><path fill="#ffffff" d="M 333.960938 392.171875 L 548.121094 400.851562 L 548.496094 391.671875 L 334.328125 382.988281 L 333.960938 392.171875 " fill-opacity="1" fill-rule="nonzero"/><path fill="#ffffff" d="M 302.527344 293.589844 C 301.707031 298.546875 296.15625 301.785156 290.1875 300.792969 L 253.84375 294.800781 C 247.882812 293.816406 243.660156 288.964844 244.472656 284.023438 C 245.289062 279.070312 250.839844 275.824219 256.816406 276.808594 L 293.152344 282.800781 C 299.121094 283.792969 303.34375 288.644531 302.527344 293.589844 " fill-opacity="1" fill-rule="nonzero"/><g clip-path="url(#id4)"><path fill="#fffffe" d="M 243 567.011719 L 567.011719 567.011719 L 567.011719 243 L 243 243 L 243 567.011719 " fill-opacity="1" fill-rule="evenodd"/></g><path fill="#000000" d="M 424.757812 433.449219 L 385.019531 433.449219 C 382.746094 433.449219 380.5625 432.992188 378.558594 432.160156 C 376.503906 431.304688 374.644531 430.050781 373.085938 428.496094 C 371.515625 426.921875 370.25 425.058594 369.390625 422.996094 C 368.558594 420.992188 368.097656 418.808594 368.097656 416.535156 C 368.097656 414.261719 368.554688 412.074219 369.390625 410.070312 C 370.25 408.007812 371.515625 406.140625 373.085938 404.570312 C 374.644531 403.011719 376.5 401.757812 378.558594 400.902344 C 380.5625 400.070312 382.742188 399.613281 385.019531 399.613281 L 424.757812 399.613281 C 427.023438 399.613281 429.207031 400.070312 431.214844 400.902344 C 433.308594 401.769531 435.175781 403.023438 436.722656 404.570312 C 436.839844 404.6875 436.949219 404.808594 437.046875 404.9375 C 438.453125 406.425781 439.589844 408.164062 440.386719 410.074219 C 441.21875 412.078125 441.679688 414.261719 441.679688 416.535156 C 441.679688 418.808594 441.21875 420.992188 440.382812 422.996094 C 439.523438 425.058594 438.257812 426.921875 436.6875 428.492188 C 435.128906 430.050781 433.273438 431.304688 431.214844 432.160156 C 429.210938 432.992188 427.03125 433.449219 424.757812 433.449219 Z M 385.019531 425.855469 L 424.757812 425.855469 C 426.023438 425.855469 427.226562 425.609375 428.304688 425.15625 C 429.453125 424.679688 430.484375 423.984375 431.347656 423.121094 C 432.207031 422.265625 432.90625 421.234375 433.382812 420.085938 C 433.835938 419 434.085938 417.800781 434.085938 416.535156 C 434.085938 415.265625 433.835938 414.070312 433.382812 412.984375 C 432.9375 411.910156 432.300781 410.9375 431.515625 410.109375 C 431.457031 410.058594 431.398438 410.003906 431.34375 409.949219 C 431.28125 409.886719 431.21875 409.816406 431.164062 409.75 C 430.332031 408.964844 429.371094 408.335938 428.335938 407.90625 C 427.253906 407.457031 426.046875 407.207031 424.757812 407.207031 L 385.019531 407.207031 C 383.75 407.207031 382.546875 407.457031 381.46875 407.90625 C 380.320312 408.382812 379.289062 409.078125 378.425781 409.9375 C 377.566406 410.800781 376.871094 411.828125 376.390625 412.976562 C 375.9375 414.0625 375.691406 415.265625 375.691406 416.535156 C 375.691406 417.800781 375.9375 419 376.390625 420.085938 C 376.871094 421.234375 377.566406 422.265625 378.425781 423.125 C 379.289062 423.988281 380.320312 424.683594 381.46875 425.15625 C 382.546875 425.609375 383.75 425.855469 385.019531 425.855469 " fill-opacity="1" fill-rule="nonzero"/><path fill="#000000" d="M 387.457031 360.789062 L 387.464844 360.789062 L 387.464844 360.773438 C 387.566406 360.773438 387.664062 360.777344 387.765625 360.789062 L 407.277344 360.761719 L 407.277344 360.75 L 407.351562 360.75 C 407.5 360.75 407.644531 360.757812 407.789062 360.773438 C 409.976562 360.859375 412.039062 361.367188 413.910156 362.210938 C 415.980469 363.144531 417.828125 364.496094 419.359375 366.136719 C 420.855469 367.746094 422.058594 369.65625 422.867188 371.757812 C 423.652344 373.78125 424.066406 375.984375 424.03125 378.253906 C 423.992188 380.542969 423.507812 382.683594 422.664062 384.609375 C 421.785156 386.628906 420.5 388.421875 418.90625 389.925781 C 417.335938 391.417969 415.492188 392.597656 413.480469 393.386719 C 411.503906 394.164062 409.363281 394.585938 407.148438 394.585938 C 406.976562 394.585938 406.808594 394.574219 406.648438 394.554688 L 387.136719 394.5625 L 387.136719 394.578125 L 387.066406 394.578125 C 386.917969 394.578125 386.773438 394.570312 386.628906 394.550781 C 384.484375 394.472656 382.441406 393.988281 380.570312 393.179688 C 378.503906 392.285156 376.667969 391.011719 375.148438 389.445312 C 373.601562 387.847656 372.375 385.964844 371.554688 383.890625 C 370.769531 381.90625 370.351562 379.71875 370.390625 377.410156 L 374.171875 377.46875 L 374.160156 377.46875 L 370.390625 377.410156 L 370.375 377.410156 C 370.375 377.28125 370.382812 377.15625 370.398438 377.03125 C 370.480469 374.863281 370.957031 372.824219 371.753906 370.980469 C 372.632812 368.933594 373.914062 367.101562 375.496094 365.570312 C 377.066406 364.046875 378.941406 362.828125 381.023438 361.996094 C 383.011719 361.199219 385.1875 360.769531 387.457031 360.789062 Z M 407.277344 368.328125 L 387.773438 368.351562 C 387.652344 368.363281 387.527344 368.371094 387.402344 368.367188 L 387.402344 368.351562 C 386.132812 368.34375 384.921875 368.582031 383.808594 369.023438 C 382.679688 369.476562 381.648438 370.152344 380.777344 371 C 379.914062 371.832031 379.214844 372.839844 378.722656 373.976562 C 378.28125 375 378.015625 376.101562 377.960938 377.253906 L 377.964844 377.332031 L 377.964844 377.335938 L 377.96875 377.417969 L 377.96875 377.53125 C 377.964844 377.625 377.960938 377.714844 377.953125 377.808594 C 377.96875 378.953125 378.203125 380.066406 378.613281 381.105469 C 379.074219 382.265625 379.742188 383.304688 380.578125 384.164062 C 381.429688 385.042969 382.445312 385.753906 383.566406 386.238281 C 384.574219 386.671875 385.679688 386.9375 386.847656 386.988281 C 386.917969 386.984375 386.992188 386.984375 387.066406 386.984375 L 387.136719 386.984375 L 387.136719 386.996094 L 406.808594 386.988281 C 406.921875 386.976562 407.035156 386.972656 407.148438 386.972656 C 407.253906 386.972656 407.359375 386.976562 407.464844 386.988281 C 408.617188 386.953125 409.714844 386.722656 410.71875 386.324219 C 411.855469 385.878906 412.875 385.238281 413.714844 384.4375 C 414.5625 383.644531 415.246094 382.675781 415.726562 381.585938 C 416.183594 380.539062 416.445312 379.375 416.464844 378.136719 C 416.488281 376.871094 416.253906 375.632812 415.808594 374.484375 C 415.351562 373.304688 414.667969 372.21875 413.8125 371.300781 C 412.960938 370.386719 411.9375 369.640625 410.792969 369.121094 C 409.789062 368.667969 408.699219 368.394531 407.566406 368.335938 C 407.496094 368.34375 407.421875 368.34375 407.351562 368.34375 L 407.277344 368.34375 Z M 387.457031 360.789062 L 387.464844 360.789062 L 387.457031 360.789062 " fill-opacity="1" fill-rule="nonzero"/><path fill="#000000" d="M 461.539062 399.746094 C 461.820312 401.472656 461.964844 403.25 462.042969 405.117188 C 462.113281 406.816406 462.121094 408.695312 462.125 410.714844 L 462.140625 410.714844 L 462.140625 410.746094 C 462.140625 410.851562 462.136719 410.949219 462.128906 411.046875 C 462.136719 412.46875 462.167969 415.289062 462.175781 415.875 L 462.175781 415.878906 L 462.191406 415.878906 L 462.191406 416.109375 C 462.191406 416.238281 462.1875 416.367188 462.171875 416.496094 C 462.125 419.261719 461.886719 421.886719 461.460938 424.363281 C 461.003906 427.03125 460.328125 429.570312 459.449219 431.96875 C 458.539062 434.457031 457.398438 436.800781 456.039062 438.988281 C 454.691406 441.160156 453.117188 443.175781 451.328125 445.019531 C 449.554688 446.839844 447.585938 448.464844 445.441406 449.878906 C 443.289062 451.296875 441.003906 452.480469 438.601562 453.417969 C 436.265625 454.328125 433.769531 455.03125 431.128906 455.511719 C 428.714844 455.949219 426.191406 456.195312 423.582031 456.242188 C 423.382812 456.273438 423.175781 456.285156 422.976562 456.28125 L 387.421875 456.28125 C 387.328125 456.28125 387.230469 456.277344 387.136719 456.269531 C 387.007812 456.285156 386.878906 456.289062 386.75 456.285156 C 383.789062 456.285156 380.925781 456.0625 378.164062 455.617188 C 375.390625 455.167969 372.78125 454.5 370.34375 453.613281 C 367.769531 452.667969 365.378906 451.484375 363.191406 450.058594 C 360.984375 448.625 358.984375 446.957031 357.203125 445.058594 C 355.382812 443.121094 353.863281 441.007812 352.617188 438.710938 C 351.378906 436.433594 350.421875 434 349.703125 431.390625 C 349.027344 428.953125 348.566406 426.398438 348.273438 423.695312 C 347.980469 420.992188 347.851562 418.1875 347.851562 415.257812 C 347.851562 415.109375 347.859375 414.964844 347.875 414.820312 L 347.871094 414.636719 L 347.855469 414.636719 L 347.855469 414.578125 C 347.851562 414.464844 347.851562 414.351562 347.859375 414.238281 L 347.859375 414.199219 C 347.835938 414.027344 347.820312 413.84375 347.820312 413.664062 L 347.820312 413.597656 C 347.820312 413.453125 347.828125 413.304688 347.84375 413.160156 L 347.847656 413.15625 L 347.84375 413.15625 C 347.84375 413.03125 347.851562 412.90625 347.867188 412.789062 L 347.867188 412.722656 L 347.855469 412.722656 C 347.859375 412.644531 347.863281 412.566406 347.871094 412.492188 L 347.886719 375.582031 L 347.875 375.582031 L 347.875 375.363281 C 347.875 375.199219 347.882812 375.039062 347.902344 374.882812 C 348.058594 372.027344 348.492188 369.429688 349.113281 367.074219 C 349.765625 364.609375 350.628906 362.398438 351.597656 360.429688 C 352.554688 358.488281 353.636719 356.761719 354.742188 355.242188 C 355.851562 353.71875 356.9375 352.464844 357.921875 351.425781 C 359.609375 349.648438 361.492188 348.074219 363.5625 346.710938 C 365.621094 345.351562 367.828125 344.226562 370.183594 343.339844 C 372.460938 342.476562 374.871094 341.832031 377.410156 341.402344 C 379.933594 340.976562 382.554688 340.761719 385.269531 340.761719 C 385.414062 340.761719 385.558594 340.769531 385.703125 340.785156 C 385.78125 340.785156 385.859375 340.792969 385.9375 340.800781 L 408.773438 340.777344 L 408.773438 340.765625 L 408.863281 340.765625 C 408.941406 340.765625 409.015625 340.769531 409.085938 340.769531 L 409.121094 340.769531 C 409.273438 340.769531 409.417969 340.777344 409.5625 340.796875 C 414.261719 340.964844 418.65625 341.902344 422.625 343.503906 C 426.847656 345.210938 430.597656 347.660156 433.726562 350.730469 C 436.851562 353.789062 439.339844 357.4375 441.042969 361.550781 C 442.652344 365.429688 443.566406 369.734375 443.660156 374.347656 L 443.667969 374.347656 C 443.765625 375.496094 443.828125 376.753906 443.855469 378.113281 C 443.863281 378.730469 443.867188 379.332031 443.855469 379.917969 C 444.316406 380.046875 444.804688 380.191406 445.320312 380.363281 L 445.324219 380.347656 L 445.332031 380.351562 L 445.332031 380.347656 C 445.378906 380.367188 445.425781 380.382812 445.46875 380.398438 C 447.464844 381.074219 449.441406 382 451.339844 383.273438 C 453.285156 384.574219 455.101562 386.21875 456.714844 388.304688 C 458.113281 390.105469 459.15625 391.945312 459.933594 393.859375 C 460.695312 395.730469 461.203125 397.683594 461.539062 399.746094 Z M 454.476562 405.414062 C 454.414062 403.851562 454.292969 402.375 454.0625 400.960938 C 453.820312 399.46875 453.453125 398.058594 452.902344 396.707031 C 452.367188 395.394531 451.660156 394.144531 450.722656 392.929688 C 449.636719 391.53125 448.421875 390.429688 447.128906 389.558594 C 445.867188 388.714844 444.492188 388.078125 443.0625 387.59375 C 443.023438 387.585938 442.984375 387.570312 442.941406 387.558594 L 442.949219 387.542969 C 442.441406 387.375 441.835938 387.210938 441.160156 387.050781 C 440.578125 386.914062 440.066406 386.808594 439.613281 386.734375 L 439.558594 386.726562 C 437.46875 386.535156 435.929688 384.691406 436.121094 382.601562 L 436.132812 382.601562 C 436.144531 382.46875 436.136719 382.527344 436.179688 381.96875 C 436.207031 381.585938 436.222656 381.359375 436.226562 381.308594 C 436.285156 380.265625 436.308594 379.238281 436.289062 378.234375 C 436.273438 377.335938 436.210938 376.285156 436.109375 375.074219 C 436.097656 374.960938 436.089844 374.84375 436.089844 374.726562 L 439.882812 374.675781 L 436.101562 374.71875 C 436.050781 371.015625 435.332031 367.566406 434.042969 364.457031 C 432.726562 361.285156 430.816406 358.472656 428.417969 356.125 C 426.003906 353.757812 423.09375 351.863281 419.804688 350.535156 C 416.625 349.253906 413.097656 348.496094 409.320312 348.359375 C 409.253906 348.363281 409.191406 348.363281 409.121094 348.363281 L 409 348.363281 L 409 348.355469 C 408.957031 348.355469 408.910156 348.359375 408.863281 348.359375 L 408.773438 348.359375 L 408.773438 348.34375 L 385.949219 348.363281 C 385.8125 348.375 385.671875 348.378906 385.53125 348.378906 L 385.53125 348.371094 C 385.351562 348.378906 385.175781 348.371094 384.992188 348.355469 C 382.746094 348.371094 380.632812 348.542969 378.65625 348.878906 C 376.605469 349.226562 374.667969 349.742188 372.851562 350.429688 C 370.988281 351.132812 369.277344 352 367.714844 353.027344 C 366.167969 354.050781 364.730469 355.253906 363.40625 356.648438 C 362.578125 357.523438 361.691406 358.542969 360.855469 359.691406 C 360.015625 360.847656 359.167969 362.199219 358.390625 363.777344 C 357.628906 365.324219 356.957031 367.058594 356.441406 369 C 355.941406 370.894531 355.59375 372.980469 355.46875 375.273438 L 355.46875 375.582031 L 355.453125 375.582031 L 355.433594 412.492188 C 355.445312 412.636719 355.453125 412.777344 355.445312 412.929688 L 355.433594 412.925781 L 355.429688 413 C 355.4375 413.074219 355.4375 413.148438 355.4375 413.21875 C 355.4375 413.269531 355.4375 413.324219 355.433594 413.371094 L 355.433594 413.390625 L 355.429688 413.453125 C 355.433594 413.511719 355.433594 413.570312 355.433594 413.632812 L 355.433594 413.65625 L 355.429688 413.65625 C 355.429688 413.730469 355.425781 413.808594 355.421875 413.886719 L 355.421875 414.03125 C 355.433594 414.132812 355.441406 414.230469 355.445312 414.332031 L 355.445312 414.398438 L 355.433594 414.398438 L 355.433594 414.402344 C 355.4375 414.542969 355.445312 414.683594 355.445312 414.828125 C 355.46875 415.066406 355.46875 415.308594 355.445312 415.550781 C 355.453125 418.207031 355.566406 420.652344 355.808594 422.894531 C 356.058594 425.214844 356.445312 427.371094 357 429.371094 C 357.574219 431.449219 358.316406 433.351562 359.261719 435.089844 C 360.191406 436.808594 361.335938 438.394531 362.71875 439.867188 C 364.097656 441.339844 365.632812 442.621094 367.316406 443.714844 C 369.019531 444.820312 370.890625 445.746094 372.925781 446.492188 C 374.933594 447.226562 377.078125 447.777344 379.351562 448.140625 C 381.625 448.511719 384.097656 448.691406 386.757812 448.691406 L 386.757812 448.722656 L 386.890625 448.707031 C 387.066406 448.683594 387.242188 448.671875 387.421875 448.671875 C 387.542969 448.671875 387.65625 448.675781 387.773438 448.6875 L 422.699219 448.6875 C 422.8125 448.675781 422.925781 448.671875 423.039062 448.667969 L 423.070312 452.46875 L 423.039062 448.683594 C 425.386719 448.664062 427.640625 448.457031 429.792969 448.066406 C 431.886719 447.683594 433.914062 447.113281 435.839844 446.359375 C 437.804688 445.59375 439.625 444.65625 441.289062 443.5625 C 442.941406 442.472656 444.484375 441.195312 445.898438 439.738281 C 447.289062 438.304688 448.527344 436.714844 449.601562 434.984375 C 450.679688 433.246094 451.59375 431.367188 452.328125 429.355469 C 453.050781 427.390625 453.605469 425.296875 453.988281 423.085938 C 454.359375 420.917969 454.570312 418.679688 454.609375 416.390625 C 454.601562 416.300781 454.597656 416.203125 454.597656 416.109375 L 454.597656 415.964844 L 458.394531 415.921875 L 454.613281 415.953125 C 454.605469 415.402344 454.570312 412.582031 454.5625 411.082031 C 454.554688 410.972656 454.546875 410.859375 454.546875 410.746094 L 454.546875 410.730469 L 454.5625 410.730469 C 454.554688 408.871094 454.546875 407.140625 454.476562 405.414062 Z M 462.171875 416.496094 L 458.394531 419.902344 C 460.359375 419.902344 461.976562 418.410156 462.171875 416.496094 " fill-opacity="1" fill-rule="nonzero"/><path fill="#000000" d="M 432.789062 294.773438 C 461.433594 302.445312 484.253906 321.003906 497.992188 344.796875 C 511.730469 368.597656 516.394531 397.648438 508.71875 426.296875 C 501.046875 454.941406 482.488281 477.761719 458.695312 491.496094 C 434.894531 505.242188 405.84375 509.902344 377.199219 502.226562 C 372.363281 500.933594 367.851562 499.414062 363.4375 497.5625 C 359.265625 495.8125 355.199219 493.773438 351.050781 491.359375 C 350.757812 491.1875 350.464844 491 350.171875 490.839844 C 348.984375 490.207031 347.503906 490.222656 346.300781 491.007812 L 310.214844 514.609375 L 319.757812 466.132812 C 320.019531 465.066406 319.816406 463.898438 319.109375 462.953125 L 319.09375 462.964844 C 309.421875 450.074219 302.679688 434.9375 299.5625 418.816406 C 296.5625 403.3125 296.925781 386.898438 301.265625 370.703125 C 308.941406 342.058594 327.5 319.238281 351.292969 305.5 C 375.09375 291.761719 404.140625 287.097656 432.789062 294.773438 Z M 348.5 498.636719 C 352.535156 500.925781 356.480469 502.875 360.5 504.5625 C 365.207031 506.535156 370.035156 508.160156 375.242188 509.554688 C 405.886719 517.765625 436.976562 512.765625 462.460938 498.054688 C 487.957031 483.335938 507.832031 458.902344 516.046875 428.253906 C 524.257812 397.605469 519.261719 366.515625 504.546875 341.03125 C 489.828125 315.535156 465.398438 295.660156 434.75 287.445312 C 404.101562 279.234375 373.011719 284.230469 347.527344 298.945312 C 322.03125 313.664062 302.152344 338.09375 293.9375 368.746094 C 289.292969 386.078125 288.90625 403.644531 292.117188 420.238281 C 295.339844 436.910156 302.199219 452.613281 312.027344 466.128906 L 301.035156 521.976562 L 301.03125 521.976562 C 300.625 524.035156 301.964844 526.03125 304.023438 526.4375 C 305.09375 526.648438 306.148438 526.386719 306.96875 525.796875 L 348.5 498.636719 " fill-opacity="1" fill-rule="evenodd"/></svg>