<svg xmlns="http://www.w3.org/2000/svg" xmlns:xlink="http://www.w3.org/1999/xlink" width="1080" zoomAndPan="magnify" viewBox="0 0 810 809.999993" height="1080" preserveAspectRatio="xMidYMid meet" version="1.0"><defs><clipPath id="id1"><path d="M 245 294.433594 L 565 294.433594 L 565 515.683594 L 245 515.683594 Z M 245 294.433594 " clip-rule="nonzero"/></clipPath></defs><rect x="-81" width="972" fill="#ffffff" y="-80.999999" height="971.999992" fill-opacity="1"/><rect x="-81" width="972" fill="#000000" y="-80.999999" height="971.999992" fill-opacity="1"/><rect x="-81" width="972" fill="#ffffff" y="-80.999999" height="971.999992" fill-opacity="1"/><rect x="-81" width="972" fill="#000000" y="-80.999999" height="971.999992" fill-opacity="1"/><g clip-path="url(#id1)"><path fill="#ffffff" d="M 264.398438 402.636719 L 279.648438 346.691406 C 282.851562 334.992188 293.554688 326.8125 305.667969 326.8125 L 357.03125 326.8125 L 360.820312 360.984375 C 361.726562 369.183594 368.636719 375.378906 376.894531 375.378906 L 433.105469 375.378906 C 441.363281 375.378906 448.273438 369.183594 449.179688 360.984375 L 452.96875 326.8125 L 504.332031 326.8125 C 516.445312 326.8125 527.148438 334.992188 530.351562 346.691406 L 545.601562 402.636719 C 552.46875 427.847656 554.933594 453.859375 552.933594 479.933594 C 551.859375 493.929688 540.019531 504.890625 526.011719 504.890625 C 514.066406 504.890625 503.699219 497.21875 500.203125 485.816406 L 485.667969 438.554688 C 484.972656 436.277344 482.886719 434.738281 480.503906 434.738281 L 464.175781 434.738281 C 467.613281 430.207031 469.71875 424.644531 469.71875 418.550781 C 469.71875 403.667969 457.625 391.570312 442.753906 391.570312 C 427.878906 391.570312 415.785156 403.667969 415.785156 418.550781 C 415.785156 424.644531 417.894531 430.207031 421.328125 434.738281 L 388.671875 434.738281 C 392.105469 430.207031 394.214844 424.644531 394.214844 418.550781 C 394.214844 403.667969 382.121094 391.570312 367.246094 391.570312 C 352.375 391.570312 340.28125 403.667969 340.28125 418.550781 C 340.28125 424.644531 342.386719 430.207031 345.824219 434.738281 L 329.496094 434.738281 C 327.113281 434.738281 325.027344 436.277344 324.332031 438.554688 L 309.796875 485.816406 C 306.300781 497.21875 295.933594 504.890625 283.988281 504.890625 C 269.960938 504.890625 258.140625 493.929688 257.066406 479.933594 C 255.066406 453.859375 257.53125 427.847656 264.398438 402.636719 Z M 307.921875 310.625 C 307.921875 307.652344 310.34375 305.226562 313.316406 305.226562 L 334.886719 305.226562 C 337.859375 305.226562 340.28125 307.652344 340.28125 310.625 L 340.28125 316.019531 L 307.921875 316.019531 Z M 442.121094 326.8125 L 438.453125 359.78125 C 438.160156 362.523438 435.84375 364.585938 433.105469 364.585938 L 376.894531 364.585938 C 374.15625 364.585938 371.839844 362.523438 371.546875 359.78125 L 367.878906 326.8125 Z M 469.71875 310.625 C 469.71875 307.652344 472.140625 305.226562 475.113281 305.226562 L 496.683594 305.226562 C 499.65625 305.226562 502.078125 307.652344 502.078125 310.625 L 502.078125 316.019531 L 469.71875 316.019531 Z M 426.574219 418.550781 C 426.574219 409.613281 433.820312 402.363281 442.753906 402.363281 C 451.683594 402.363281 458.933594 409.613281 458.933594 418.550781 C 458.933594 427.488281 451.683594 434.738281 442.753906 434.738281 C 433.820312 434.738281 426.574219 427.488281 426.574219 418.550781 Z M 351.066406 418.550781 C 351.066406 409.613281 358.316406 402.363281 367.246094 402.363281 C 376.179688 402.363281 383.425781 409.613281 383.425781 418.550781 C 383.425781 427.488281 376.179688 434.738281 367.246094 434.738281 C 358.316406 434.738281 351.066406 427.488281 351.066406 418.550781 Z M 283.988281 515.683594 C 300.695312 515.683594 315.210938 504.957031 320.121094 489 L 333.476562 445.53125 L 476.523438 445.53125 L 489.878906 489 C 494.789062 504.957031 509.304688 515.683594 526.011719 515.683594 C 545.625 515.683594 562.183594 500.339844 563.679688 480.777344 C 565.785156 453.457031 563.195312 426.203125 555.988281 399.789062 L 540.757812 343.84375 C 537.050781 330.292969 526.136719 320.234375 512.863281 317.117188 L 512.863281 310.625 C 512.863281 301.6875 505.617188 294.433594 496.683594 294.433594 L 475.113281 294.433594 C 466.179688 294.433594 458.933594 301.6875 458.933594 310.625 L 458.933594 316.019531 L 351.066406 316.019531 L 351.066406 310.625 C 351.066406 301.6875 343.820312 294.433594 334.886719 294.433594 L 313.316406 294.433594 C 304.382812 294.433594 297.136719 301.6875 297.136719 310.625 L 297.136719 317.117188 C 283.863281 320.234375 272.929688 330.292969 269.242188 343.84375 L 253.992188 399.789062 C 246.804688 426.203125 244.214844 453.457031 246.300781 480.777344 C 247.816406 500.339844 264.375 515.683594 283.988281 515.683594 " fill-opacity="1" fill-rule="nonzero"/></g><path fill="#ffffff" d="M 493.988281 343.003906 C 495.484375 343.003906 496.683594 344.203125 496.683594 345.699219 C 496.683594 347.195312 495.484375 348.398438 493.988281 348.398438 C 492.492188 348.398438 491.292969 347.195312 491.292969 345.699219 C 491.292969 344.203125 492.492188 343.003906 493.988281 343.003906 Z M 493.988281 359.191406 C 501.425781 359.191406 507.472656 353.140625 507.472656 345.699219 C 507.472656 338.257812 501.425781 332.210938 493.988281 332.210938 C 486.550781 332.210938 480.503906 338.257812 480.503906 345.699219 C 480.503906 353.140625 486.550781 359.191406 493.988281 359.191406 " fill-opacity="1" fill-rule="nonzero"/><path fill="#ffffff" d="M 493.988281 394.265625 C 492.492188 394.265625 491.292969 393.066406 491.292969 391.570312 C 491.292969 390.074219 492.492188 388.871094 493.988281 388.871094 C 495.484375 388.871094 496.683594 390.074219 496.683594 391.570312 C 496.683594 393.066406 495.484375 394.265625 493.988281 394.265625 Z M 493.988281 378.078125 C 486.550781 378.078125 480.503906 384.128906 480.503906 391.570312 C 480.503906 399.011719 486.550781 405.058594 493.988281 405.058594 C 501.425781 405.058594 507.472656 399.011719 507.472656 391.570312 C 507.472656 384.128906 501.425781 378.078125 493.988281 378.078125 " fill-opacity="1" fill-rule="nonzero"/><path fill="#ffffff" d="M 472.414062 367.285156 C 473.910156 367.285156 475.113281 368.488281 475.113281 369.984375 C 475.113281 371.480469 473.910156 372.683594 472.414062 372.683594 C 470.917969 372.683594 469.71875 371.480469 469.71875 369.984375 C 469.71875 368.488281 470.917969 367.285156 472.414062 367.285156 Z M 472.414062 383.476562 C 479.851562 383.476562 485.898438 377.425781 485.898438 369.984375 C 485.898438 362.542969 479.851562 356.492188 472.414062 356.492188 C 464.976562 356.492188 458.933594 362.542969 458.933594 369.984375 C 458.933594 377.425781 464.976562 383.476562 472.414062 383.476562 " fill-opacity="1" fill-rule="nonzero"/><path fill="#ffffff" d="M 515.558594 367.285156 C 517.054688 367.285156 518.257812 368.488281 518.257812 369.984375 C 518.257812 371.480469 517.054688 372.683594 515.558594 372.683594 C 514.066406 372.683594 512.863281 371.480469 512.863281 369.984375 C 512.863281 368.488281 514.066406 367.285156 515.558594 367.285156 Z M 502.078125 369.984375 C 502.078125 377.425781 508.125 383.476562 515.558594 383.476562 C 522.996094 383.476562 529.042969 377.425781 529.042969 369.984375 C 529.042969 362.542969 522.996094 356.492188 515.558594 356.492188 C 508.125 356.492188 502.078125 362.542969 502.078125 369.984375 " fill-opacity="1" fill-rule="nonzero"/><path fill="#ffffff" d="M 297.136719 364.585938 L 307.921875 364.585938 C 310.894531 364.585938 313.316406 362.164062 313.316406 359.191406 L 313.316406 348.398438 L 324.101562 348.398438 L 324.101562 359.191406 C 324.101562 362.164062 326.523438 364.585938 329.496094 364.585938 L 340.28125 364.585938 L 340.28125 375.378906 L 329.496094 375.378906 C 326.523438 375.378906 324.101562 377.804688 324.101562 380.777344 L 324.101562 391.570312 L 313.316406 391.570312 L 313.316406 380.777344 C 313.316406 377.804688 310.894531 375.378906 307.921875 375.378906 L 297.136719 375.378906 Z M 291.742188 386.171875 L 302.527344 386.171875 L 302.527344 396.964844 C 302.527344 399.9375 304.953125 402.363281 307.921875 402.363281 L 329.496094 402.363281 C 332.464844 402.363281 334.886719 399.9375 334.886719 396.964844 L 334.886719 386.171875 L 345.675781 386.171875 C 348.644531 386.171875 351.066406 383.75 351.066406 380.777344 L 351.066406 359.191406 C 351.066406 356.21875 348.644531 353.792969 345.675781 353.792969 L 334.886719 353.792969 L 334.886719 343.003906 C 334.886719 340.03125 332.464844 337.605469 329.496094 337.605469 L 307.921875 337.605469 C 304.953125 337.605469 302.527344 340.03125 302.527344 343.003906 L 302.527344 353.792969 L 291.742188 353.792969 C 288.773438 353.792969 286.351562 356.21875 286.351562 359.191406 L 286.351562 380.777344 C 286.351562 383.75 288.773438 386.171875 291.742188 386.171875 " fill-opacity="1" fill-rule="nonzero"/><path fill="#ffffff" d="M 388.820312 337.605469 L 378.035156 337.605469 L 378.035156 348.398438 L 388.820312 348.398438 L 388.820312 337.605469 " fill-opacity="1" fill-rule="nonzero"/><path fill="#ffffff" d="M 410.394531 337.605469 L 399.605469 337.605469 L 399.605469 348.398438 L 410.394531 348.398438 L 410.394531 337.605469 " fill-opacity="1" fill-rule="nonzero"/><path fill="#ffffff" d="M 431.964844 337.605469 L 421.179688 337.605469 L 421.179688 348.398438 L 431.964844 348.398438 L 431.964844 337.605469 " fill-opacity="1" fill-rule="nonzero"/></svg>