<svg xmlns="http://www.w3.org/2000/svg" xmlns:xlink="http://www.w3.org/1999/xlink" width="188" zoomAndPan="magnify" viewBox="0 0 141.12 141.750002" height="188" preserveAspectRatio="xMidYMid meet" version="1.0"><defs><clipPath id="id1"><path d="M 41 14.324219 L 95 14.324219 L 95 86 L 41 86 Z M 41 14.324219 " clip-rule="nonzero"/></clipPath><clipPath id="id2"><path d="M 63 124 L 73 124 L 73 132.210938 L 63 132.210938 Z M 63 124 " clip-rule="nonzero"/></clipPath><clipPath id="id3"><path d="M 95 58 L 110.847656 58 L 110.847656 65 L 95 65 Z M 95 58 " clip-rule="nonzero"/></clipPath><clipPath id="id4"><path d="M 24.847656 58 L 41 58 L 41 65 L 24.847656 65 Z M 24.847656 58 " clip-rule="nonzero"/></clipPath></defs><g clip-path="url(#id1)"><path fill="#000000" d="M 79.691406 21.933594 C 79.292969 21.933594 78.925781 21.671875 78.8125 21.269531 C 78.648438 20.679688 78.507812 20.070312 78.390625 19.457031 C 78.386719 19.425781 78.382812 19.398438 78.378906 19.363281 C 78.230469 17.558594 73.605469 16.148438 67.847656 16.148438 C 62.09375 16.148438 57.46875 17.558594 57.320312 19.363281 C 57.316406 19.398438 57.3125 19.425781 57.304688 19.457031 C 57.191406 20.070312 57.050781 20.679688 56.886719 21.269531 C 56.75 21.753906 56.25 22.035156 55.765625 21.898438 C 55.28125 21.765625 55 21.265625 55.132812 20.78125 C 55.28125 20.257812 55.410156 19.710938 55.511719 19.164062 C 55.871094 15.601562 62.371094 14.335938 67.847656 14.335938 C 73.328125 14.335938 79.828125 15.601562 80.183594 19.164062 C 80.289062 19.710938 80.417969 20.253906 80.5625 20.78125 C 80.699219 21.265625 80.417969 21.765625 79.933594 21.898438 C 79.851562 21.921875 79.769531 21.933594 79.691406 21.933594 Z M 67.847656 85.535156 C 63.667969 85.535156 59.484375 85.425781 56.800781 85.207031 C 52.410156 84.839844 49.246094 83.4375 47.117188 80.910156 C 43.105469 76.140625 43.808594 68.445312 44.496094 61.007812 C 45.101562 54.40625 45.675781 48.164062 42.804688 45.078125 C 42.78125 45.054688 42.753906 45.027344 42.738281 45 C 39.125 40.089844 42.515625 36.890625 46.445312 33.191406 C 48.183594 31.546875 50.160156 29.6875 51.828125 27.429688 C 52.125 27.027344 52.691406 26.941406 53.097656 27.238281 C 53.5 27.539062 53.585938 28.105469 53.289062 28.507812 C 51.523438 30.894531 49.488281 32.8125 47.691406 34.507812 C 43.554688 38.40625 41.664062 40.445312 44.171875 43.886719 C 47.554688 47.574219 46.949219 54.179688 46.304688 61.175781 C 45.652344 68.242188 44.980469 75.550781 48.511719 79.746094 C 50.304688 81.882812 53.066406 83.078125 56.949219 83.398438 C 62.144531 83.828125 73.550781 83.828125 78.75 83.398438 C 82.632812 83.078125 85.390625 81.882812 87.1875 79.746094 C 90.71875 75.550781 90.046875 68.242188 89.394531 61.175781 C 88.75 54.179688 88.144531 47.574219 91.527344 43.886719 C 94.035156 40.445312 92.148438 38.414062 88.011719 34.515625 C 86.214844 32.820312 84.175781 30.898438 82.410156 28.507812 C 82.113281 28.105469 82.199219 27.539062 82.601562 27.238281 C 83.007812 26.941406 83.574219 27.03125 83.871094 27.429688 C 85.542969 29.691406 87.515625 31.554688 89.261719 33.195312 C 93.183594 36.894531 96.574219 40.089844 92.960938 45 C 92.945312 45.027344 92.917969 45.054688 92.894531 45.078125 C 90.023438 48.164062 90.597656 54.40625 91.203125 61.007812 C 91.890625 68.445312 92.597656 76.140625 88.582031 80.910156 C 86.457031 83.4375 83.289062 84.839844 78.898438 85.207031 C 76.214844 85.425781 72.03125 85.535156 67.847656 85.535156 Z M 67.847656 85.535156 " fill-opacity="1" fill-rule="evenodd"/></g><path fill="#000000" d="M 67.847656 75.597656 C 64.417969 75.597656 61.070312 75.578125 57.863281 75.3125 C 57.59375 75.289062 56.921875 75.222656 56.449219 75.085938 C 56.222656 75.019531 56.03125 74.867188 55.914062 74.664062 C 55.082031 73.214844 54.910156 69.480469 55.40625 63.558594 C 55.46875 62.824219 55.535156 62.078125 55.605469 61.324219 C 56.1875 54.980469 56.847656 47.789062 53.820312 42.03125 C 53.589844 41.589844 53.761719 41.039062 54.203125 40.808594 C 54.648438 40.574219 55.199219 40.746094 55.433594 41.1875 C 58.703125 47.421875 58.019531 54.894531 57.414062 61.488281 C 57.347656 62.238281 57.277344 62.980469 57.214844 63.710938 C 56.675781 70.1875 57.070312 72.582031 57.347656 73.425781 C 57.5625 73.460938 57.804688 73.488281 58.011719 73.503906 C 61.152344 73.765625 64.453125 73.785156 67.847656 73.785156 C 71.246094 73.785156 74.546875 73.765625 77.6875 73.503906 C 77.894531 73.488281 78.136719 73.460938 78.351562 73.425781 C 78.628906 72.582031 79.023438 70.1875 78.484375 63.710938 C 78.421875 62.980469 78.351562 62.238281 78.285156 61.488281 C 77.679688 54.894531 76.996094 47.421875 80.265625 41.1875 C 80.5 40.746094 81.050781 40.574219 81.492188 40.808594 C 81.9375 41.039062 82.109375 41.589844 81.878906 42.03125 C 78.851562 47.789062 79.511719 54.980469 80.09375 61.324219 C 80.164062 62.078125 80.230469 62.824219 80.292969 63.558594 C 80.789062 69.480469 80.617188 73.214844 79.785156 74.664062 C 79.667969 74.867188 79.476562 75.019531 79.25 75.085938 C 78.78125 75.222656 78.105469 75.289062 77.835938 75.3125 C 74.628906 75.578125 71.28125 75.597656 67.847656 75.597656 Z M 67.847656 75.597656 " fill-opacity="1" fill-rule="evenodd"/><path fill="#000000" d="M 51.199219 38.875 C 50.195312 40.332031 50.359375 40.761719 50.359375 40.765625 C 50.363281 40.769531 50.667969 41.179688 52.945312 40.933594 C 54.617188 40.753906 56.714844 40.296875 58.933594 39.8125 C 62.207031 39.101562 65.582031 38.363281 67.847656 38.5 C 70.109375 38.363281 73.492188 39.101562 76.765625 39.8125 C 78.984375 40.296875 81.078125 40.753906 82.753906 40.933594 C 85.03125 41.179688 85.335938 40.769531 85.339844 40.765625 C 85.339844 40.761719 85.503906 40.332031 84.5 38.875 C 79.8125 33.175781 82.433594 26.398438 84 22.34375 C 84.304688 21.554688 84.667969 20.613281 84.792969 20.066406 C 84.695312 20.09375 84.570312 20.128906 84.417969 20.183594 C 74.347656 24.851562 61.351562 24.851562 51.28125 20.183594 C 51.128906 20.128906 51.003906 20.09375 50.90625 20.066406 C 51.03125 20.613281 51.394531 21.554688 51.699219 22.34375 C 53.265625 26.398438 55.886719 33.175781 51.199219 38.875 Z M 51.675781 42.820312 C 50.300781 42.820312 49.351562 42.519531 48.847656 41.773438 C 48.027344 40.542969 48.957031 38.921875 49.726562 37.8125 C 49.742188 37.792969 49.757812 37.769531 49.773438 37.75 C 53.816406 32.863281 51.523438 26.925781 50.003906 22.996094 C 49.152344 20.792969 48.636719 19.460938 49.453125 18.625 C 50.109375 17.953125 51.121094 18.199219 51.929688 18.488281 C 51.957031 18.5 51.984375 18.507812 52.007812 18.519531 C 61.628906 22.996094 74.070312 22.996094 83.691406 18.519531 C 83.714844 18.507812 83.742188 18.5 83.765625 18.488281 C 84.578125 18.199219 85.589844 17.953125 86.246094 18.625 C 87.0625 19.460938 86.546875 20.792969 85.695312 22.996094 C 84.175781 26.925781 81.882812 32.863281 85.925781 37.75 C 85.941406 37.769531 85.957031 37.792969 85.972656 37.8125 C 86.742188 38.921875 87.671875 40.542969 86.851562 41.773438 C 85.6875 43.507812 82.113281 42.832031 76.378906 41.585938 C 73.199219 40.894531 69.914062 40.179688 67.910156 40.3125 C 67.871094 40.316406 67.828125 40.316406 67.789062 40.3125 C 65.789062 40.179688 62.5 40.894531 59.320312 41.585938 C 56.054688 42.296875 53.492188 42.820312 51.675781 42.820312 Z M 51.675781 42.820312 " fill-opacity="1" fill-rule="evenodd"/><path fill="#000000" d="M 39.941406 96.445312 L 95.757812 96.445312 L 95.757812 90.988281 C 95.757812 87.980469 93.304688 85.535156 90.289062 85.535156 L 45.410156 85.535156 C 42.394531 85.535156 39.941406 87.980469 39.941406 90.988281 Z M 96.664062 98.257812 L 39.035156 98.257812 C 38.53125 98.257812 38.125 97.851562 38.125 97.351562 L 38.125 90.988281 C 38.125 86.984375 41.394531 83.722656 45.410156 83.722656 L 90.289062 83.722656 C 94.304688 83.722656 97.574219 86.984375 97.574219 90.988281 L 97.574219 97.351562 C 97.574219 97.851562 97.164062 98.257812 96.664062 98.257812 Z M 96.664062 98.257812 " fill-opacity="1" fill-rule="evenodd"/><path fill="#000000" d="M 82.363281 104.621094 L 53.335938 104.621094 C 51.078125 104.621094 49.238281 102.789062 49.238281 100.535156 L 49.238281 97.351562 C 49.238281 96.851562 49.644531 96.445312 50.148438 96.445312 C 50.652344 96.445312 51.054688 96.851562 51.054688 97.351562 L 51.054688 100.535156 C 51.054688 101.789062 52.082031 102.808594 53.335938 102.808594 L 82.363281 102.808594 C 83.617188 102.808594 84.640625 101.789062 84.640625 100.535156 L 84.644531 97.351562 C 84.644531 96.851562 85.050781 96.445312 85.550781 96.445312 C 86.050781 96.445312 86.460938 96.851562 86.460938 97.351562 L 86.460938 100.535156 C 86.460938 102.789062 84.621094 104.621094 82.363281 104.621094 Z M 82.363281 104.621094 " fill-opacity="1" fill-rule="evenodd"/><path fill="#000000" d="M 83.898438 120.289062 C 83.765625 120.289062 83.628906 120.257812 83.503906 120.195312 L 69.328125 113.269531 C 69.019531 113.117188 68.820312 112.800781 68.820312 112.457031 L 68.820312 103.714844 C 68.820312 103.214844 69.226562 102.808594 69.726562 102.808594 C 70.230469 102.808594 70.636719 103.214844 70.636719 103.714844 L 70.636719 111.890625 L 84.300781 118.566406 C 84.75 118.785156 84.9375 119.328125 84.71875 119.78125 C 84.558594 120.101562 84.234375 120.289062 83.898438 120.289062 Z M 51.773438 120.300781 C 51.4375 120.300781 51.113281 120.113281 50.960938 119.792969 C 50.738281 119.339844 50.921875 118.796875 51.375 118.578125 L 65.0625 111.890625 L 65.0625 103.714844 C 65.0625 103.214844 65.46875 102.808594 65.972656 102.808594 C 66.472656 102.808594 66.878906 103.214844 66.878906 103.714844 L 66.878906 112.457031 C 66.878906 112.800781 66.679688 113.117188 66.367188 113.269531 L 52.171875 120.207031 C 52.046875 120.269531 51.90625 120.300781 51.773438 120.300781 Z M 65.964844 126.5 C 65.460938 126.5 65.054688 126.09375 65.054688 125.59375 L 65.054688 117.570312 L 54.023438 122.960938 C 53.574219 123.183594 53.027344 122.996094 52.804688 122.542969 C 52.585938 122.097656 52.773438 121.554688 53.222656 121.332031 L 65.566406 115.300781 C 65.847656 115.164062 66.179688 115.179688 66.445312 115.347656 C 66.710938 115.511719 66.871094 115.804688 66.871094 116.117188 L 66.871094 125.59375 C 66.871094 126.09375 66.464844 126.5 65.964844 126.5 Z M 69.707031 126.503906 C 69.203125 126.503906 68.796875 126.097656 68.796875 125.597656 L 68.796875 116.101562 C 68.796875 115.789062 68.957031 115.496094 69.222656 115.332031 C 69.492188 115.167969 69.820312 115.148438 70.105469 115.285156 L 82.433594 121.3125 C 82.886719 121.53125 83.070312 122.074219 82.851562 122.527344 C 82.628906 122.972656 82.085938 123.160156 81.636719 122.941406 L 70.613281 117.554688 L 70.613281 125.597656 C 70.613281 126.097656 70.207031 126.503906 69.707031 126.503906 Z M 69.707031 126.503906 " fill-opacity="1" fill-rule="evenodd"/><g clip-path="url(#id2)"><path fill="#000000" d="M 67.832031 126.0625 C 66.332031 126.0625 65.113281 127.035156 65.113281 128.226562 C 65.113281 129.417969 66.332031 130.386719 67.832031 130.386719 C 69.332031 130.386719 70.546875 129.417969 70.546875 128.226562 C 70.550781 127.035156 69.332031 126.0625 67.832031 126.0625 Z M 67.832031 132.203125 C 65.332031 132.203125 63.296875 130.417969 63.296875 128.226562 C 63.296875 126.035156 65.332031 124.25 67.832031 124.25 C 70.332031 124.25 72.367188 126.035156 72.367188 128.226562 C 72.367188 130.417969 70.332031 132.203125 67.832031 132.203125 Z M 67.832031 132.203125 " fill-opacity="1" fill-rule="evenodd"/></g><path fill="#000000" d="M 85.660156 119.902344 C 84.164062 119.902344 82.941406 120.875 82.941406 122.066406 C 82.941406 123.257812 84.164062 124.226562 85.660156 124.226562 C 87.160156 124.226562 88.378906 123.257812 88.378906 122.066406 C 88.378906 120.871094 87.160156 119.902344 85.660156 119.902344 Z M 85.660156 126.042969 C 83.160156 126.042969 81.125 124.257812 81.125 122.066406 C 81.125 119.875 83.160156 118.089844 85.660156 118.089844 C 88.160156 118.089844 90.195312 119.875 90.195312 122.066406 C 90.195312 124.257812 88.160156 126.042969 85.660156 126.042969 Z M 85.660156 126.042969 " fill-opacity="1" fill-rule="evenodd"/><path fill="#000000" d="M 45.53125 85.53125 C 45.53125 85.53125 45.53125 85.535156 45.527344 85.535156 C 37.488281 85.511719 34.035156 85.3125 32.253906 83.402344 C 30.648438 81.675781 30.835938 79.015625 31.179688 74.1875 C 31.371094 71.476562 31.609375 68.105469 31.609375 63.835938 C 31.609375 63.335938 32.015625 62.929688 32.515625 62.929688 C 33.019531 62.929688 33.425781 63.335938 33.425781 63.835938 C 33.425781 68.167969 33.183594 71.578125 32.992188 74.320312 C 32.695312 78.496094 32.515625 81.019531 33.585938 82.167969 C 34.910156 83.589844 38.984375 83.703125 45.53125 83.71875 C 46.035156 83.71875 46.441406 84.125 46.4375 84.628906 C 46.4375 85.128906 46.03125 85.535156 45.53125 85.53125 Z M 45.53125 85.53125 " fill-opacity="1" fill-rule="evenodd"/><path fill="#000000" d="M 89.65625 85.53125 C 89.15625 85.53125 88.746094 85.128906 88.746094 84.628906 C 88.746094 84.128906 89.152344 83.71875 89.652344 83.71875 C 97.148438 83.707031 100.824219 83.550781 102.113281 82.167969 C 103.183594 81.019531 103.003906 78.496094 102.707031 74.320312 C 102.515625 71.578125 102.273438 68.167969 102.273438 63.835938 C 102.273438 63.335938 102.679688 62.929688 103.183594 62.929688 C 103.683594 62.929688 104.089844 63.335938 104.089844 63.835938 C 104.089844 68.105469 104.328125 71.476562 104.519531 74.1875 C 104.863281 79.015625 105.050781 81.679688 103.445312 83.402344 C 101.644531 85.332031 98.234375 85.519531 89.65625 85.53125 Z M 89.65625 85.53125 " fill-opacity="1" fill-rule="evenodd"/><g clip-path="url(#id3)"><path fill="#000000" d="M 97.328125 62.929688 L 109.035156 62.929688 L 109.035156 61.503906 C 109.035156 60.714844 108.394531 60.078125 107.605469 60.078125 L 98.753906 60.078125 C 97.96875 60.078125 97.328125 60.71875 97.328125 61.503906 Z M 109.945312 64.742188 L 96.417969 64.742188 C 95.917969 64.742188 95.511719 64.335938 95.511719 63.835938 L 95.511719 61.503906 C 95.511719 59.71875 96.964844 58.265625 98.753906 58.265625 L 107.605469 58.265625 C 109.394531 58.265625 110.851562 59.71875 110.851562 61.503906 L 110.851562 63.835938 C 110.851562 64.335938 110.445312 64.742188 109.945312 64.742188 Z M 109.945312 64.742188 " fill-opacity="1" fill-rule="evenodd"/></g><g clip-path="url(#id4)"><path fill="#000000" d="M 26.664062 62.929688 L 38.371094 62.929688 L 38.371094 61.503906 C 38.371094 60.714844 37.730469 60.078125 36.941406 60.078125 L 28.09375 60.078125 C 27.304688 60.078125 26.664062 60.71875 26.664062 61.503906 Z M 39.28125 64.742188 L 25.757812 64.742188 C 25.253906 64.742188 24.847656 64.335938 24.847656 63.835938 L 24.847656 61.503906 C 24.847656 59.71875 26.304688 58.265625 28.09375 58.265625 L 36.945312 58.265625 C 38.734375 58.265625 40.1875 59.71875 40.1875 61.503906 L 40.1875 63.835938 C 40.1875 64.335938 39.78125 64.742188 39.28125 64.742188 Z M 39.28125 64.742188 " fill-opacity="1" fill-rule="evenodd"/></g><path fill="#000000" d="M 49.992188 119.902344 C 48.496094 119.902344 47.277344 120.875 47.277344 122.066406 C 47.277344 123.257812 48.496094 124.226562 49.992188 124.226562 C 51.492188 124.226562 52.710938 123.257812 52.710938 122.066406 C 52.710938 120.871094 51.492188 119.902344 49.992188 119.902344 Z M 49.992188 126.042969 C 47.496094 126.042969 45.460938 124.257812 45.460938 122.066406 C 45.460938 119.875 47.492188 118.089844 49.992188 118.089844 C 52.496094 118.089844 54.527344 119.875 54.527344 122.066406 C 54.527344 124.257812 52.496094 126.042969 49.992188 126.042969 Z M 49.992188 126.042969 " fill-opacity="1" fill-rule="evenodd"/></svg>