<svg xmlns="http://www.w3.org/2000/svg" xmlns:xlink="http://www.w3.org/1999/xlink" width="1080" zoomAndPan="magnify" viewBox="0 0 810 809.999993" height="1080" preserveAspectRatio="xMidYMid meet" version="1.0"><defs><clipPath id="id1"><path d="M 428 222.722656 L 579.683594 222.722656 L 579.683594 472 L 428 472 Z M 428 222.722656 " clip-rule="nonzero"/></clipPath><clipPath id="id2"><path d="M 230.183594 469 L 394 469 L 394 587.949219 L 230.183594 587.949219 Z M 230.183594 469 " clip-rule="nonzero"/></clipPath></defs><path fill="#000000" d="M 477.964844 372.59375 L 534.128906 360.945312 L 477.964844 293.9375 Z M 477.964844 372.59375 " fill-opacity="1" fill-rule="nonzero"/><path fill="#000000" d="M 426.6875 409.1875 L 423.582031 406.761719 L 428.402344 400.546875 L 431.542969 402.941406 Z M 417.082031 421.644531 L 413.941406 419.214844 L 418.792969 412.972656 L 421.902344 415.398438 Z M 407.40625 434.066406 L 404.300781 431.640625 L 409.121094 425.429688 L 412.226562 427.855469 Z M 397.765625 446.523438 L 394.628906 444.097656 L 399.480469 437.851562 L 402.585938 440.28125 Z M 388.125 458.949219 L 384.988281 456.523438 L 389.839844 450.308594 L 392.945312 452.738281 Z M 378.484375 471.40625 L 375.347656 468.980469 L 380.167969 462.765625 L 383.304688 465.191406 L 378.484375 471.40625 " fill-opacity="1" fill-rule="nonzero"/><path fill="#000000" d="M 405.59375 495.640625 L 397.894531 497.257812 L 397.085938 493.375 L 404.785156 491.789062 L 405.59375 495.640625 " fill-opacity="1" fill-rule="nonzero"/><path fill="#000000" d="M 421.027344 492.402344 L 413.296875 494.023438 L 412.519531 490.171875 L 420.21875 488.585938 L 421.027344 492.402344 " fill-opacity="1" fill-rule="nonzero"/><path fill="#000000" d="M 436.457031 489.199219 L 428.726562 490.820312 L 427.949219 486.96875 L 435.648438 485.351562 L 436.457031 489.199219 " fill-opacity="1" fill-rule="nonzero"/><path fill="#000000" d="M 451.890625 485.996094 L 444.160156 487.617188 L 443.347656 483.765625 L 451.050781 482.148438 L 451.890625 485.996094 " fill-opacity="1" fill-rule="nonzero"/><path fill="#000000" d="M 467.289062 482.792969 L 459.589844 484.414062 L 458.78125 480.5625 L 466.480469 478.945312 L 467.289062 482.792969 " fill-opacity="1" fill-rule="nonzero"/><path fill="#000000" d="M 482.722656 479.589844 L 475.023438 481.210938 L 474.214844 477.328125 L 481.914062 475.742188 L 482.722656 479.589844 " fill-opacity="1" fill-rule="nonzero"/><path fill="#000000" d="M 498.152344 476.386719 L 490.421875 478.007812 L 489.644531 474.125 L 497.34375 472.539062 L 498.152344 476.386719 " fill-opacity="1" fill-rule="nonzero"/><path fill="#000000" d="M 513.585938 473.183594 L 505.851562 474.769531 L 505.042969 470.921875 L 512.777344 469.335938 L 513.585938 473.183594 " fill-opacity="1" fill-rule="nonzero"/><path fill="#000000" d="M 529.015625 469.949219 L 521.285156 471.566406 L 520.476562 467.71875 L 528.175781 466.132812 L 529.015625 469.949219 " fill-opacity="1" fill-rule="nonzero"/><path fill="#000000" d="M 544.414062 466.777344 L 536.714844 468.363281 L 535.90625 464.515625 L 543.605469 462.894531 L 544.414062 466.777344 " fill-opacity="1" fill-rule="nonzero"/><path fill="#000000" d="M 374.601562 455.648438 L 372.46875 463.253906 L 368.683594 462.183594 L 370.816406 454.613281 L 374.601562 455.648438 " fill-opacity="1" fill-rule="nonzero"/><path fill="#000000" d="M 378.839844 440.507812 L 376.738281 448.078125 L 372.921875 447.042969 L 375.054688 439.4375 L 378.839844 440.507812 " fill-opacity="1" fill-rule="nonzero"/><path fill="#000000" d="M 383.078125 425.363281 L 380.976562 432.933594 L 377.160156 431.867188 L 379.292969 424.296875 L 383.078125 425.363281 " fill-opacity="1" fill-rule="nonzero"/><path fill="#000000" d="M 387.316406 410.191406 L 385.214844 417.761719 L 381.394531 416.691406 L 383.53125 409.121094 L 387.316406 410.191406 " fill-opacity="1" fill-rule="nonzero"/><path fill="#000000" d="M 391.554688 395.015625 L 389.453125 402.617188 L 385.632812 401.550781 L 387.769531 393.980469 L 391.554688 395.015625 " fill-opacity="1" fill-rule="nonzero"/><path fill="#000000" d="M 395.792969 379.871094 L 393.691406 387.445312 L 389.871094 386.375 L 392.007812 378.804688 L 395.792969 379.871094 " fill-opacity="1" fill-rule="nonzero"/><path fill="#000000" d="M 400.03125 364.699219 L 397.929688 372.269531 L 394.109375 371.234375 L 396.246094 363.664062 L 400.03125 364.699219 " fill-opacity="1" fill-rule="nonzero"/><path fill="#000000" d="M 404.269531 349.554688 L 402.167969 357.128906 L 398.347656 356.058594 L 400.484375 348.488281 L 404.269531 349.554688 " fill-opacity="1" fill-rule="nonzero"/><path fill="#000000" d="M 408.507812 334.382812 L 406.402344 341.953125 L 402.617188 340.917969 L 404.722656 333.3125 L 408.507812 334.382812 " fill-opacity="1" fill-rule="nonzero"/><path fill="#000000" d="M 412.746094 319.238281 L 410.640625 326.808594 L 406.855469 325.742188 L 408.960938 318.171875 L 412.746094 319.238281 " fill-opacity="1" fill-rule="nonzero"/><path fill="#000000" d="M 416.984375 304.066406 L 414.878906 311.636719 L 411.09375 310.601562 L 413.199219 302.996094 L 416.984375 304.066406 " fill-opacity="1" fill-rule="nonzero"/><path fill="#000000" d="M 421.222656 288.890625 L 419.117188 296.492188 L 415.300781 295.425781 L 417.4375 287.855469 L 421.222656 288.890625 " fill-opacity="1" fill-rule="nonzero"/><path fill="#000000" d="M 425.492188 273.746094 L 423.355469 281.320312 L 419.539062 280.285156 L 421.675781 272.679688 L 425.492188 273.746094 " fill-opacity="1" fill-rule="nonzero"/><path fill="#000000" d="M 429.730469 258.574219 L 427.59375 266.144531 L 423.808594 265.109375 L 425.910156 257.539062 L 429.730469 258.574219 " fill-opacity="1" fill-rule="nonzero"/><path fill="#000000" d="M 396.277344 473.183594 L 390.648438 478.683594 L 387.898438 475.871094 L 393.527344 470.371094 L 396.277344 473.183594 " fill-opacity="1" fill-rule="nonzero"/><path fill="#000000" d="M 407.535156 462.183594 L 401.90625 467.683594 L 399.15625 464.871094 L 404.820312 459.402344 L 407.535156 462.183594 " fill-opacity="1" fill-rule="nonzero"/><path fill="#000000" d="M 418.859375 451.214844 L 413.199219 456.714844 L 410.449219 453.902344 L 416.078125 448.402344 L 418.859375 451.214844 " fill-opacity="1" fill-rule="nonzero"/><path fill="#000000" d="M 430.117188 440.214844 L 424.488281 445.714844 L 421.738281 442.902344 L 427.367188 437.398438 L 430.117188 440.214844 " fill-opacity="1" fill-rule="nonzero"/><path fill="#000000" d="M 441.410156 429.246094 L 435.78125 434.714844 L 432.996094 431.933594 L 438.660156 426.433594 L 441.410156 429.246094 " fill-opacity="1" fill-rule="nonzero"/><path fill="#000000" d="M 452.667969 418.246094 L 447.039062 423.746094 L 444.289062 420.929688 L 449.917969 415.429688 L 452.667969 418.246094 " fill-opacity="1" fill-rule="nonzero"/><path fill="#000000" d="M 486.539062 385.277344 L 480.910156 390.777344 L 478.128906 387.960938 L 483.757812 382.460938 L 486.539062 385.277344 " fill-opacity="1" fill-rule="nonzero"/><path fill="#000000" d="M 497.828125 374.308594 L 492.199219 379.777344 L 489.417969 376.960938 L 495.046875 371.492188 L 497.828125 374.308594 " fill-opacity="1" fill-rule="nonzero"/><path fill="#000000" d="M 509.085938 363.308594 L 503.457031 368.808594 L 500.707031 365.992188 L 506.339844 360.492188 L 509.085938 363.308594 " fill-opacity="1" fill-rule="nonzero"/><path fill="#000000" d="M 520.378906 352.339844 L 514.71875 357.804688 L 512 354.992188 L 517.628906 349.523438 L 520.378906 352.339844 " fill-opacity="1" fill-rule="nonzero"/><path fill="#000000" d="M 531.667969 341.335938 L 526.007812 346.839844 L 523.257812 344.023438 L 528.917969 338.523438 L 531.667969 341.335938 " fill-opacity="1" fill-rule="nonzero"/><path fill="#000000" d="M 542.960938 330.335938 L 537.296875 335.835938 L 534.546875 333.023438 L 540.175781 327.523438 L 542.960938 330.335938 " fill-opacity="1" fill-rule="nonzero"/><path fill="#000000" d="M 554.21875 319.367188 L 548.589844 324.867188 L 545.808594 322.054688 L 551.46875 316.554688 L 554.21875 319.367188 " fill-opacity="1" fill-rule="nonzero"/><g clip-path="url(#id1)"><path fill="#000000" d="M 446.746094 247.054688 L 565.347656 305.554688 L 565.347656 308.207031 L 562.757812 305.554688 L 557.097656 311.054688 L 559.847656 313.867188 L 565.347656 308.53125 L 565.347656 447.171875 L 470.847656 400.546875 L 475.25 396.277344 L 472.5 393.460938 L 467.09375 398.703125 L 446.777344 388.671875 Z M 579.777344 471.46875 L 579.742188 295.457031 L 432.316406 222.722656 L 432.316406 242.945312 L 430.148438 242.363281 L 428.046875 249.933594 L 431.832031 251.003906 L 432.316406 249.253906 L 432.351562 398.769531 L 556.839844 460.144531 L 551.339844 461.3125 L 552.117188 465.160156 L 559.847656 463.542969 L 559.394531 461.441406 L 579.777344 471.46875 " fill-opacity="1" fill-rule="nonzero"/></g><g clip-path="url(#id2)"><path fill="#000000" d="M 308.085938 571.738281 L 308.085938 560.480469 L 382.171875 529.742188 L 382.207031 541.164062 Z M 248.398438 513.5625 L 318.859375 483.734375 L 375.378906 519.839844 L 302.847656 549.898438 Z M 296.3125 569.507812 L 241.960938 533.171875 L 241.960938 523.398438 L 296.3125 559.671875 Z M 365.671875 483.992188 C 365.769531 484.023438 365.996094 484.089844 366.449219 484.378906 C 369.554688 486.289062 372.886719 492.4375 372.695312 497.808594 C 372.628906 499.328125 372.304688 500.136719 372.304688 500.296875 L 368.910156 501.753906 L 351.210938 490.460938 Z M 393.917969 517.707031 L 380.199219 508.96875 C 382.433594 506.835938 383.789062 503.726562 384.277344 500.070312 L 390.164062 498.84375 L 389.355469 494.992188 L 384.40625 496.027344 C 384.242188 492.890625 383.53125 489.71875 382.335938 486.773438 L 384.988281 484.1875 L 382.238281 481.371094 L 380.554688 483.019531 C 378.484375 479.363281 375.800781 476.257812 372.660156 474.351562 C 371.722656 473.734375 370.753906 473.28125 369.78125 472.925781 L 370.363281 470.824219 L 366.578125 469.789062 L 365.867188 472.277344 C 364.316406 472.214844 362.792969 472.410156 361.371094 473.023438 L 361.304688 473.023438 L 345.066406 480.078125 C 345 480.078125 344.96875 480.109375 344.9375 480.109375 L 344.808594 480.171875 L 344.808594 480.207031 C 343.1875 480.886719 341.699219 482.019531 340.472656 483.570312 L 319.992188 470.5 L 230.183594 508.484375 L 230.183594 539.449219 L 301.519531 587.171875 L 393.980469 549.027344 L 393.917969 517.707031 " fill-opacity="1" fill-rule="nonzero"/></g></svg>