<svg xmlns="http://www.w3.org/2000/svg" xmlns:xlink="http://www.w3.org/1999/xlink" width="1080" zoomAndPan="magnify" viewBox="0 0 810 809.999993" height="1080" preserveAspectRatio="xMidYMid meet" version="1.0"><defs><clipPath id="id1"><path d="M 361 502 L 394 502 L 394 534.511719 L 361 534.511719 Z M 361 502 " clip-rule="nonzero"/></clipPath><clipPath id="id2"><path d="M 494 502 L 527 502 L 527 534.511719 L 494 534.511719 Z M 494 502 " clip-rule="nonzero"/></clipPath><clipPath id="id3"><path d="M 318 315 L 566.195312 315 L 566.195312 454 L 318 454 Z M 318 315 " clip-rule="nonzero"/></clipPath><clipPath id="id4"><path d="M 263.65625 243 L 546.40625 243 L 546.40625 567 L 263.65625 567 Z M 263.65625 243 " clip-rule="nonzero"/></clipPath></defs><g clip-path="url(#id1)"><path fill="#ffffff" d="M 377.558594 523.328125 C 374.789062 523.328125 372.539062 521.082031 372.539062 518.296875 C 372.539062 515.527344 374.789062 513.28125 377.558594 513.28125 C 380.324219 513.28125 382.582031 515.527344 382.582031 518.296875 C 382.582031 521.082031 380.324219 523.328125 377.558594 523.328125 Z M 377.558594 502.089844 C 368.625 502.089844 361.375 509.34375 361.375 518.296875 C 361.375 527.246094 368.625 534.511719 377.558594 534.511719 C 386.503906 534.511719 393.75 527.246094 393.75 518.296875 C 393.75 509.34375 386.503906 502.089844 377.558594 502.089844 " fill-opacity="1" fill-rule="nonzero"/></g><g clip-path="url(#id2)"><path fill="#ffffff" d="M 510.5625 523.328125 C 507.789062 523.328125 505.542969 521.082031 505.542969 518.296875 C 505.542969 515.527344 507.789062 513.28125 510.5625 513.28125 C 513.335938 513.28125 515.589844 515.527344 515.589844 518.296875 C 515.589844 521.082031 513.335938 523.328125 510.5625 523.328125 Z M 510.5625 502.089844 C 501.625 502.089844 494.378906 509.34375 494.378906 518.296875 C 494.378906 527.246094 501.625 534.511719 510.5625 534.511719 C 519.5 534.511719 526.753906 527.246094 526.753906 518.296875 C 526.753906 509.34375 519.5 502.089844 510.5625 502.089844 " fill-opacity="1" fill-rule="nonzero"/></g><path fill="#ffffff" d="M 271.992188 297.507812 L 300.832031 302.941406 C 301.550781 303.039062 303.230469 303.84375 304.523438 305.128906 C 305.855469 306.375 306.714844 308.015625 306.839844 308.738281 L 336.667969 440.140625 L 336.675781 440.148438 C 336.867188 440.960938 337.019531 442.347656 337.011719 443.894531 C 337.019531 445.824219 336.800781 448.019531 336.398438 449.988281 C 336.015625 451.953125 335.417969 453.71875 334.949219 454.644531 L 326.648438 471.382812 C 325.4375 473.839844 324.667969 476.554688 324.667969 479.449219 C 324.660156 481.496094 325.070312 483.621094 325.953125 485.589844 C 327.261719 488.5625 329.679688 491.015625 332.386719 492.464844 C 335.113281 493.933594 338.070312 494.523438 340.984375 494.523438 L 551.148438 494.523438 C 556.207031 494.523438 560.316406 490.410156 560.316406 485.335938 C 560.316406 480.269531 556.207031 476.152344 551.148438 476.152344 L 340.984375 476.152344 L 340.703125 476.136719 L 340.695312 476.136719 L 340.125 478.777344 L 342.070312 477.105469 C 341.433594 476.351562 340.722656 476.128906 340.695312 476.136719 L 340.125 478.777344 L 342.070312 477.105469 L 339.34375 479.449219 L 343.003906 479.449219 C 343.046875 478.941406 342.734375 477.824219 342.070312 477.105469 L 339.34375 479.449219 L 343.003906 479.449219 L 341.554688 479.449219 L 342.972656 479.808594 L 343.003906 479.449219 L 341.554688 479.449219 L 342.972656 479.808594 L 343.085938 479.546875 L 351.378906 462.808594 C 352.820312 459.875 353.738281 456.789062 354.382812 453.601562 C 355.011719 450.414062 355.355469 447.132812 355.355469 443.894531 C 355.347656 441.265625 355.136719 438.667969 354.554688 436.066406 L 324.71875 304.664062 L 324.726562 304.671875 C 323.507812 299.472656 320.714844 295.285156 317.25 291.90625 C 313.738281 288.5625 309.449219 285.925781 304.234375 284.898438 L 274.316406 279.695312 C 269.339844 278.757812 265.613281 281.792969 264.671875 286.777344 C 263.742188 291.761719 267.015625 296.5625 271.992188 297.507812 " fill-opacity="1" fill-rule="nonzero"/><g clip-path="url(#id3)"><path fill="#ffffff" d="M 318.5625 324.425781 L 552.964844 347.167969 C 554.445312 347.324219 555.386719 347.863281 556.019531 348.527344 C 556.648438 349.207031 557.015625 350.058594 557.027344 351.199219 C 557.027344 351.691406 556.953125 352.25 556.761719 352.855469 L 531.09375 436.984375 C 530.578125 438.730469 529.144531 440.683594 527.246094 442.078125 C 525.355469 443.496094 523.078125 444.296875 521.253906 444.273438 L 349.527344 444.273438 L 349.527344 453.453125 L 521.253906 453.453125 C 525.484375 453.4375 529.4375 451.863281 532.695312 449.460938 C 535.953125 447.035156 538.605469 443.714844 539.859375 439.667969 L 539.671875 440.296875 L 565.53125 355.535156 L 565.53125 355.527344 C 565.972656 354.101562 566.195312 352.644531 566.195312 351.199219 C 566.203125 347.847656 564.957031 344.632812 562.714844 342.25 C 560.496094 339.863281 557.335938 338.355469 553.847656 338.027344 L 319.445312 315.285156 L 318.5625 324.425781 " fill-opacity="1" fill-rule="nonzero"/></g><path fill="#ffffff" d="M 515.039062 341.878906 L 493.820312 447.960938 L 502.808594 449.773438 L 524.027344 343.683594 L 515.039062 341.878906 " fill-opacity="1" fill-rule="nonzero"/><path fill="#ffffff" d="M 464.140625 336.304688 L 457.140625 448.585938 L 466.300781 449.152344 L 473.292969 336.878906 L 464.140625 336.304688 " fill-opacity="1" fill-rule="nonzero"/><path fill="#ffffff" d="M 413.328125 330.671875 L 420.542969 449.144531 L 429.695312 448.585938 L 422.472656 330.117188 L 413.328125 330.671875 " fill-opacity="1" fill-rule="nonzero"/><path fill="#ffffff" d="M 362.570312 324.984375 L 384.007812 449.652344 L 393.035156 448.09375 L 371.605469 323.425781 L 362.570312 324.984375 " fill-opacity="1" fill-rule="nonzero"/><path fill="#ffffff" d="M 333.960938 392.171875 L 548.121094 400.851562 L 548.496094 391.671875 L 334.328125 382.988281 L 333.960938 392.171875 " fill-opacity="1" fill-rule="nonzero"/><path fill="#ffffff" d="M 302.527344 293.589844 C 301.707031 298.546875 296.15625 301.785156 290.1875 300.792969 L 253.84375 294.800781 C 247.882812 293.816406 243.660156 288.964844 244.472656 284.023438 C 245.289062 279.070312 250.839844 275.824219 256.816406 276.808594 L 293.152344 282.800781 C 299.121094 283.792969 303.34375 288.644531 302.527344 293.589844 " fill-opacity="1" fill-rule="nonzero"/><g clip-path="url(#id4)"><path fill="#ffffff" d="M 539.308594 381.417969 L 525.980469 381.417969 L 525.980469 381.277344 L 283.773438 381.277344 L 283.773438 381.417969 L 270.75 381.417969 L 270.75 334.5625 L 375.824219 334.5625 C 378.144531 334.613281 380.398438 334.636719 382.5625 334.636719 C 385.007812 334.636719 387.332031 334.609375 389.5 334.5625 L 420.261719 334.5625 C 422.429688 334.609375 424.753906 334.636719 427.199219 334.636719 C 429.363281 334.636719 431.621094 334.613281 433.9375 334.5625 L 539.308594 334.5625 Z M 518.828125 559.988281 L 433.652344 559.988281 L 433.652344 388.429688 L 518.960938 388.429688 Z M 383.140625 559.988281 L 383.140625 388.429688 L 426.636719 388.429688 L 426.636719 559.988281 Z M 292.054688 559.988281 L 290.839844 388.429688 L 376.125 388.429688 L 376.125 559.988281 Z M 372.433594 327.453125 C 350.351562 326.683594 334.828125 323.390625 327.539062 317.929688 C 318.929688 311.472656 313.144531 302.351562 311.25 292.246094 C 309.375 282.25 311.542969 272.480469 317.347656 264.738281 C 323.152344 257 331.925781 252.183594 342.046875 251.183594 C 343.351562 251.054688 344.660156 250.988281 345.964844 250.988281 C 354.902344 250.988281 363.761719 253.988281 371.273438 259.617188 C 378.558594 265.082031 386.074219 279.058594 393 300.035156 C 396.6875 311.210938 399.292969 321.664062 400.5625 327.121094 C 397.828125 327.273438 393.855469 327.453125 389.140625 327.550781 L 375.910156 327.550781 C 374.765625 327.523438 373.605469 327.492188 372.433594 327.453125 Z M 416.765625 300.035156 C 423.691406 279.058594 431.203125 265.082031 438.492188 259.617188 C 447.097656 253.164062 457.476562 250.167969 467.714844 251.183594 C 477.839844 252.183594 486.609375 257 492.417969 264.738281 C 498.222656 272.480469 500.386719 282.25 498.511719 292.246094 C 496.617188 302.351562 490.832031 311.472656 482.222656 317.929688 C 474.933594 323.390625 459.410156 326.683594 437.328125 327.453125 C 436.15625 327.492188 434.996094 327.523438 433.851562 327.550781 L 420.632812 327.550781 C 415.910156 327.453125 411.9375 327.273438 409.199219 327.121094 C 410.472656 321.664062 413.074219 311.210938 416.765625 300.035156 Z M 546.324219 327.550781 L 479.226562 327.550781 C 482.042969 326.359375 484.453125 325.023438 486.429688 323.539062 C 496.449219 316.03125 503.1875 305.375 505.40625 293.539062 C 507.648438 281.585938 505.027344 269.867188 498.027344 260.53125 C 491.03125 251.199219 480.507812 245.402344 468.40625 244.203125 C 456.417969 243.015625 444.296875 246.496094 434.28125 254.007812 C 425.710938 260.433594 417.570312 275.199219 410.082031 297.902344 C 407.980469 304.273438 406.238281 310.34375 404.882812 315.441406 C 403.527344 310.34375 401.78125 304.273438 399.679688 297.902344 C 392.195312 275.199219 384.050781 260.433594 375.480469 254.007812 C 365.464844 246.496094 353.34375 243.015625 341.355469 244.203125 C 329.253906 245.402344 318.734375 251.199219 311.734375 260.53125 C 304.734375 269.867188 302.113281 281.585938 304.355469 293.539062 C 306.574219 305.375 313.316406 316.03125 323.332031 323.539062 C 325.3125 325.023438 327.71875 326.359375 330.539062 327.550781 L 263.734375 327.550781 L 263.734375 388.429688 L 283.824219 388.429688 L 285.089844 567.003906 L 525.835938 567.003906 L 525.976562 388.429688 L 546.324219 388.429688 L 546.324219 327.550781 " fill-opacity="1" fill-rule="nonzero"/></g></svg>