<svg xmlns="http://www.w3.org/2000/svg" xmlns:xlink="http://www.w3.org/1999/xlink" width="1080" zoomAndPan="magnify" viewBox="0 0 810 809.999993" height="1080" preserveAspectRatio="xMidYMid meet" version="1.0"><defs><clipPath id="id1"><path d="M 364 508 L 403 508 L 403 545.542969 L 364 545.542969 Z M 364 508 " clip-rule="nonzero"/></clipPath><clipPath id="id2"><path d="M 364 256.042969 L 403 256.042969 L 403 294 L 364 294 Z M 364 256.042969 " clip-rule="nonzero"/></clipPath><clipPath id="id3"><path d="M 445 256.042969 L 483 256.042969 L 483 294 L 445 294 Z M 445 256.042969 " clip-rule="nonzero"/></clipPath><clipPath id="id4"><path d="M 278.84375 341 L 317 341 L 317 380 L 278.84375 380 Z M 278.84375 341 " clip-rule="nonzero"/></clipPath><clipPath id="id5"><path d="M 531 341 L 568.34375 341 L 568.34375 380 L 531 380 Z M 531 341 " clip-rule="nonzero"/></clipPath><clipPath id="id6"><path d="M 531 422 L 568.34375 422 L 568.34375 460 L 531 460 Z M 531 422 " clip-rule="nonzero"/></clipPath></defs><path fill="#ffffff" d="M 468.722656 476.714844 C 468.632812 476.71875 468.542969 476.71875 468.449219 476.71875 L 458.765625 476.71875 L 458.765625 489.171875 C 460.355469 488.734375 462.023438 488.5 463.746094 488.5 C 463.746094 488.5 463.75 488.5 463.753906 488.5 C 465.472656 488.5 467.136719 488.734375 468.722656 489.171875 L 468.722656 476.714844 " fill-opacity="1" fill-rule="nonzero"/><path fill="#ffffff" d="M 463.753906 488.5 C 463.753906 488.5 463.75 488.5 463.746094 488.5 C 462.027344 488.5 460.355469 488.734375 458.769531 489.171875 C 455.617188 490.042969 452.792969 491.722656 450.558594 493.960938 C 447.191406 497.320312 445.09375 502.015625 445.097656 507.152344 L 455.050781 507.152344 C 455.054688 504.734375 456.015625 502.589844 457.597656 501.003906 C 459.1875 499.421875 461.328125 498.457031 463.746094 498.453125 C 466.160156 498.457031 468.304688 499.421875 469.894531 501 C 471.472656 502.589844 472.4375 504.734375 472.441406 507.152344 C 472.4375 509.566406 471.472656 511.710938 469.894531 513.296875 C 468.304688 514.878906 466.160156 515.84375 463.746094 515.84375 C 461.328125 515.84375 459.1875 514.878906 457.597656 513.296875 C 456.015625 511.710938 455.054688 509.566406 455.050781 507.152344 L 445.09375 507.152344 C 445.09375 512.285156 447.191406 516.980469 450.558594 520.335938 C 453.914062 523.703125 458.605469 525.800781 463.734375 525.800781 C 463.738281 525.800781 463.742188 525.800781 463.746094 525.800781 C 468.878906 525.800781 473.574219 523.703125 476.933594 520.335938 C 480.300781 516.980469 482.398438 512.285156 482.394531 507.152344 C 482.398438 502.015625 480.300781 497.320312 476.933594 493.964844 C 474.699219 491.722656 471.875 490.046875 468.722656 489.171875 C 467.136719 488.734375 465.472656 488.5 463.753906 488.5 " fill-opacity="1" fill-rule="nonzero"/><path fill="#ffffff" d="M 378.460938 476.714844 L 378.460938 508.917969 C 380.050781 508.480469 381.71875 508.242188 383.441406 508.246094 C 383.445312 508.246094 383.445312 508.246094 383.449219 508.246094 C 385.164062 508.246094 386.832031 508.480469 388.417969 508.917969 L 388.417969 476.71875 L 378.734375 476.71875 C 378.730469 476.71875 378.730469 476.71875 378.726562 476.71875 C 378.636719 476.71875 378.550781 476.71875 378.460938 476.714844 " fill-opacity="1" fill-rule="nonzero"/><g clip-path="url(#id1)"><path fill="#ffffff" d="M 383.449219 508.246094 C 383.445312 508.246094 383.445312 508.246094 383.441406 508.246094 C 381.71875 508.242188 380.046875 508.480469 378.460938 508.917969 C 375.308594 509.789062 372.488281 511.46875 370.253906 513.707031 C 366.886719 517.066406 364.789062 521.761719 364.789062 526.894531 L 374.746094 526.894531 C 374.746094 524.476562 375.710938 522.335938 377.292969 520.746094 C 378.882812 519.167969 381.023438 518.203125 383.441406 518.199219 C 385.859375 518.203125 388 519.167969 389.585938 520.746094 C 391.167969 522.335938 392.132812 524.476562 392.136719 526.894531 C 392.132812 529.3125 391.167969 531.453125 389.585938 533.042969 C 388 534.625 385.859375 535.585938 383.441406 535.589844 C 381.023438 535.585938 378.882812 534.625 377.292969 533.042969 C 375.710938 531.453125 374.75 529.3125 374.746094 526.894531 L 364.789062 526.894531 C 364.789062 532.027344 366.886719 536.722656 370.253906 540.082031 C 373.609375 543.445312 378.300781 545.542969 383.429688 545.542969 C 383.433594 545.542969 383.433594 545.542969 383.441406 545.542969 C 388.574219 545.546875 393.269531 543.449219 396.628906 540.082031 C 399.996094 536.722656 402.089844 532.027344 402.089844 526.894531 C 402.089844 521.761719 399.996094 517.066406 396.628906 513.707031 C 394.394531 511.46875 391.566406 509.789062 388.417969 508.917969 C 386.832031 508.480469 385.164062 508.246094 383.449219 508.246094 " fill-opacity="1" fill-rule="nonzero"/></g><path fill="#ffffff" d="M 428.570312 476.71875 L 418.613281 476.71875 L 418.613281 502.847656 C 420.203125 502.40625 421.871094 502.171875 423.59375 502.171875 C 423.59375 502.171875 423.597656 502.171875 423.601562 502.171875 C 425.320312 502.171875 426.984375 502.410156 428.570312 502.847656 L 428.570312 476.71875 " fill-opacity="1" fill-rule="nonzero"/><path fill="#ffffff" d="M 423.601562 502.171875 C 423.597656 502.171875 423.59375 502.171875 423.59375 502.171875 C 421.871094 502.171875 420.203125 502.40625 418.613281 502.847656 C 415.460938 503.71875 412.640625 505.398438 410.40625 507.636719 C 407.039062 510.996094 404.941406 515.6875 404.941406 520.820312 L 414.898438 520.820312 C 414.898438 518.40625 415.863281 516.265625 417.445312 514.675781 C 419.035156 513.09375 421.175781 512.128906 423.589844 512.128906 C 426.007812 512.128906 428.148438 513.09375 429.738281 514.675781 C 431.320312 516.265625 432.28125 518.40625 432.285156 520.820312 C 432.285156 523.238281 431.320312 525.382812 429.738281 526.96875 C 428.148438 528.550781 426.007812 529.515625 423.589844 529.515625 C 421.175781 529.515625 419.03125 528.550781 417.445312 526.96875 C 415.863281 525.382812 414.898438 523.238281 414.894531 520.820312 L 404.941406 520.820312 C 404.941406 525.957031 407.039062 530.652344 410.40625 534.011719 C 413.761719 537.375 418.453125 539.472656 423.582031 539.472656 C 423.585938 539.472656 423.585938 539.472656 423.589844 539.472656 C 428.726562 539.476562 433.417969 537.378906 436.777344 534.011719 C 440.144531 530.652344 442.242188 525.957031 442.242188 520.820312 C 442.242188 515.6875 440.144531 510.996094 436.777344 507.636719 C 434.542969 505.398438 431.71875 503.71875 428.570312 502.847656 C 426.984375 502.40625 425.320312 502.171875 423.601562 502.171875 " fill-opacity="1" fill-rule="nonzero"/><path fill="#ffffff" d="M 378.460938 292.671875 L 378.460938 324.871094 C 378.554688 324.871094 378.644531 324.871094 378.734375 324.871094 L 388.417969 324.871094 L 388.417969 292.671875 C 386.832031 293.109375 385.160156 293.34375 383.441406 293.34375 C 383.4375 293.34375 383.433594 293.34375 383.429688 293.34375 C 381.714844 293.34375 380.046875 293.109375 378.460938 292.671875 " fill-opacity="1" fill-rule="nonzero"/><g clip-path="url(#id2)"><path fill="#ffffff" d="M 383.449219 256.042969 C 383.445312 256.042969 383.445312 256.042969 383.441406 256.042969 C 378.304688 256.042969 373.609375 258.140625 370.253906 261.507812 C 366.886719 264.867188 364.789062 269.558594 364.789062 274.695312 C 364.789062 279.828125 366.886719 284.523438 370.253906 287.882812 C 372.484375 290.121094 375.308594 291.800781 378.460938 292.671875 C 380.046875 293.109375 381.714844 293.34375 383.429688 293.34375 C 383.433594 293.34375 383.4375 293.34375 383.441406 293.34375 C 385.160156 293.347656 386.832031 293.109375 388.417969 292.671875 C 391.570312 291.800781 394.394531 290.121094 396.628906 287.882812 C 399.996094 284.523438 402.09375 279.828125 402.089844 274.695312 L 392.132812 274.695312 C 392.132812 277.113281 391.167969 279.253906 389.585938 280.84375 C 387.996094 282.421875 385.855469 283.386719 383.441406 283.390625 C 381.023438 283.386719 378.882812 282.421875 377.292969 280.84375 C 375.710938 279.253906 374.746094 277.109375 374.746094 274.695312 C 374.746094 272.277344 375.710938 270.136719 377.292969 268.546875 C 378.882812 266.964844 381.023438 266 383.441406 266 C 385.855469 266 387.996094 266.964844 389.585938 268.546875 C 391.167969 270.136719 392.132812 272.277344 392.132812 274.695312 L 402.089844 274.695312 C 402.089844 269.558594 399.992188 264.867188 396.625 261.507812 C 393.269531 258.144531 388.578125 256.042969 383.449219 256.042969 " fill-opacity="1" fill-rule="nonzero"/></g><path fill="#ffffff" d="M 458.765625 292.671875 L 458.765625 324.871094 L 468.449219 324.871094 C 468.453125 324.871094 468.457031 324.871094 468.460938 324.871094 C 468.546875 324.871094 468.636719 324.871094 468.722656 324.871094 L 468.722656 292.671875 C 467.136719 293.109375 465.464844 293.34375 463.746094 293.34375 C 463.742188 293.34375 463.738281 293.34375 463.734375 293.34375 C 462.019531 293.34375 460.351562 293.109375 458.765625 292.671875 " fill-opacity="1" fill-rule="nonzero"/><g clip-path="url(#id3)"><path fill="#ffffff" d="M 463.753906 256.042969 C 463.753906 256.042969 463.75 256.042969 463.746094 256.042969 C 458.609375 256.042969 453.917969 258.140625 450.558594 261.507812 C 447.191406 264.867188 445.09375 269.558594 445.09375 274.695312 C 445.09375 279.828125 447.191406 284.523438 450.558594 287.882812 C 452.792969 290.121094 455.617188 291.800781 458.765625 292.671875 C 460.351562 293.109375 462.019531 293.34375 463.734375 293.34375 C 463.738281 293.34375 463.742188 293.34375 463.746094 293.34375 C 465.464844 293.347656 467.136719 293.109375 468.722656 292.671875 C 471.875 291.800781 474.699219 290.121094 476.933594 287.882812 C 480.300781 284.523438 482.398438 279.828125 482.394531 274.695312 L 472.441406 274.695312 C 472.4375 277.113281 471.472656 279.253906 469.894531 280.84375 C 468.304688 282.421875 466.160156 283.386719 463.746094 283.390625 C 461.328125 283.386719 459.1875 282.421875 457.597656 280.84375 C 456.015625 279.253906 455.054688 277.109375 455.050781 274.695312 C 455.054688 272.277344 456.015625 270.136719 457.597656 268.546875 C 459.1875 266.964844 461.328125 266 463.746094 266 C 466.160156 266 468.304688 266.964844 469.894531 268.546875 C 471.472656 270.136719 472.4375 272.277344 472.441406 274.695312 L 482.394531 274.695312 C 482.398438 269.558594 480.300781 264.867188 476.933594 261.507812 C 473.574219 258.144531 468.886719 256.042969 463.753906 256.042969 " fill-opacity="1" fill-rule="nonzero"/></g><path fill="#ffffff" d="M 428.570312 312.417969 C 426.980469 312.855469 425.3125 313.089844 423.59375 313.089844 C 423.589844 313.089844 423.585938 313.089844 423.582031 313.089844 C 421.867188 313.089844 420.199219 312.855469 418.617188 312.417969 L 418.617188 324.871094 L 428.570312 324.871094 L 428.570312 312.417969 " fill-opacity="1" fill-rule="nonzero"/><path fill="#ffffff" d="M 423.601562 275.789062 C 423.597656 275.789062 423.59375 275.789062 423.59375 275.789062 C 418.457031 275.785156 413.761719 277.886719 410.40625 281.253906 C 407.039062 284.609375 404.941406 289.304688 404.941406 294.441406 C 404.941406 299.574219 407.039062 304.269531 410.40625 307.628906 C 412.636719 309.867188 415.464844 311.546875 418.613281 312.417969 C 420.199219 312.855469 421.867188 313.089844 423.582031 313.089844 C 423.585938 313.089844 423.585938 313.089844 423.589844 313.089844 C 425.3125 313.089844 426.980469 312.855469 428.570312 312.417969 C 431.71875 311.542969 434.542969 309.867188 436.777344 307.628906 C 440.144531 304.269531 442.242188 299.574219 442.242188 294.4375 L 432.285156 294.4375 C 432.28125 296.855469 431.320312 299 429.738281 300.585938 C 428.148438 302.167969 426.007812 303.132812 423.589844 303.132812 C 421.171875 303.132812 419.03125 302.167969 417.441406 300.585938 C 415.863281 299 414.898438 296.855469 414.894531 294.4375 C 414.898438 292.023438 415.859375 289.878906 417.441406 288.289062 C 419.03125 286.710938 421.171875 285.746094 423.589844 285.746094 C 426.007812 285.746094 428.148438 286.710938 429.738281 288.292969 C 431.320312 289.878906 432.28125 292.023438 432.285156 294.4375 L 442.242188 294.4375 C 442.242188 289.304688 440.144531 284.609375 436.777344 281.25 C 433.421875 277.886719 428.734375 275.789062 423.601562 275.789062 " fill-opacity="1" fill-rule="nonzero"/><path fill="#ffffff" d="M 347.667969 435.96875 L 335.214844 435.96875 C 335.652344 437.558594 335.886719 439.226562 335.886719 440.949219 C 335.886719 442.667969 335.652344 444.339844 335.214844 445.925781 L 347.667969 445.925781 C 347.667969 445.835938 347.667969 445.742188 347.667969 445.652344 L 347.667969 435.96875 " fill-opacity="1" fill-rule="nonzero"/><path fill="#ffffff" d="M 317.238281 449.640625 C 314.820312 449.640625 312.679688 448.675781 311.089844 447.09375 C 309.507812 445.507812 308.542969 443.367188 308.542969 440.949219 C 308.542969 438.53125 309.507812 436.390625 311.089844 434.800781 C 312.679688 433.21875 314.820312 432.257812 317.238281 432.253906 C 319.652344 432.257812 321.796875 433.21875 323.386719 434.800781 C 324.964844 436.390625 325.929688 438.53125 325.933594 440.949219 C 325.929688 443.367188 324.964844 445.507812 323.386719 447.09375 C 321.796875 448.675781 319.652344 449.640625 317.238281 449.640625 M 317.246094 422.296875 C 317.242188 422.296875 317.242188 422.296875 317.238281 422.296875 C 312.101562 422.296875 307.40625 424.394531 304.050781 427.761719 C 300.683594 431.121094 298.585938 435.8125 298.585938 440.949219 C 298.585938 446.082031 300.683594 450.773438 304.050781 454.136719 C 307.40625 457.5 312.101562 459.597656 317.230469 459.597656 C 317.234375 459.597656 317.234375 459.597656 317.238281 459.597656 C 322.371094 459.597656 327.066406 457.503906 330.425781 454.136719 C 332.664062 451.902344 334.34375 449.078125 335.214844 445.925781 C 335.652344 444.339844 335.886719 442.667969 335.886719 440.949219 C 335.886719 439.226562 335.652344 437.558594 335.214844 435.96875 C 334.34375 432.820312 332.664062 429.996094 330.425781 427.761719 C 327.066406 424.398438 322.378906 422.296875 317.246094 422.296875 " fill-opacity="1" fill-rule="nonzero"/><path fill="#ffffff" d="M 347.667969 355.664062 L 315.46875 355.664062 C 315.90625 357.253906 316.140625 358.921875 316.140625 360.640625 C 316.140625 362.363281 315.90625 364.03125 315.46875 365.621094 L 347.667969 365.621094 L 347.667969 355.933594 C 347.667969 355.84375 347.667969 355.753906 347.667969 355.664062 " fill-opacity="1" fill-rule="nonzero"/><g clip-path="url(#id4)"><path fill="#ffffff" d="M 297.492188 369.335938 C 295.074219 369.332031 292.933594 368.371094 291.34375 366.789062 C 289.761719 365.203125 288.800781 363.058594 288.796875 360.640625 C 288.796875 358.226562 289.761719 356.082031 291.34375 354.496094 C 292.933594 352.914062 295.078125 351.949219 297.492188 351.945312 C 299.910156 351.949219 302.050781 352.914062 303.640625 354.496094 C 305.222656 356.082031 306.183594 358.226562 306.1875 360.640625 C 306.183594 363.058594 305.222656 365.203125 303.640625 366.789062 C 302.050781 368.371094 299.910156 369.335938 297.492188 369.335938 M 297.5 341.992188 C 297.5 341.992188 297.496094 341.992188 297.492188 341.992188 C 292.355469 341.988281 287.664062 344.089844 284.304688 347.457031 C 280.9375 350.816406 278.839844 355.507812 278.84375 360.644531 C 278.839844 365.777344 280.9375 370.472656 284.304688 373.832031 C 287.660156 377.195312 292.351562 379.292969 297.480469 379.292969 C 297.484375 379.292969 297.488281 379.292969 297.492188 379.292969 C 302.625 379.296875 307.320312 377.199219 310.679688 373.832031 C 312.917969 371.597656 314.597656 368.773438 315.46875 365.621094 C 315.90625 364.035156 316.144531 362.363281 316.140625 360.644531 C 316.140625 358.921875 315.90625 357.253906 315.46875 355.667969 C 314.597656 352.515625 312.917969 349.691406 310.679688 347.457031 C 307.324219 344.089844 302.632812 341.992188 297.5 341.992188 " fill-opacity="1" fill-rule="nonzero"/></g><path fill="#ffffff" d="M 347.667969 395.816406 L 321.542969 395.816406 C 321.980469 397.40625 322.214844 399.074219 322.214844 400.792969 C 322.214844 402.515625 321.980469 404.183594 321.542969 405.773438 L 347.667969 405.773438 L 347.667969 395.816406 " fill-opacity="1" fill-rule="nonzero"/><path fill="#ffffff" d="M 303.566406 409.488281 C 301.148438 409.488281 299.003906 408.523438 297.417969 406.941406 C 295.835938 405.351562 294.875 403.210938 294.871094 400.792969 C 294.875 398.378906 295.835938 396.238281 297.417969 394.648438 C 299.007812 393.066406 301.148438 392.105469 303.566406 392.101562 C 305.980469 392.101562 308.125 393.066406 309.710938 394.648438 C 311.292969 396.238281 312.257812 398.378906 312.261719 400.792969 C 312.257812 403.210938 311.292969 405.355469 309.710938 406.941406 C 308.125 408.523438 305.980469 409.488281 303.566406 409.488281 M 303.570312 382.144531 C 303.570312 382.144531 303.566406 382.144531 303.566406 382.144531 C 298.429688 382.144531 293.734375 384.242188 290.378906 387.609375 C 287.007812 390.96875 284.910156 395.660156 284.914062 400.792969 C 284.914062 405.929688 287.007812 410.625 290.378906 413.980469 C 293.734375 417.347656 298.425781 419.445312 303.554688 419.445312 C 303.558594 419.445312 303.5625 419.445312 303.5625 419.445312 C 308.699219 419.445312 313.394531 417.351562 316.75 413.980469 C 318.992188 411.75 320.667969 408.925781 321.542969 405.773438 C 321.980469 404.183594 322.214844 402.515625 322.214844 400.796875 C 322.214844 399.078125 321.980469 397.40625 321.542969 395.820312 C 320.667969 392.667969 318.992188 389.84375 316.75 387.609375 C 313.394531 384.242188 308.703125 382.144531 303.570312 382.144531 " fill-opacity="1" fill-rule="nonzero"/><path fill="#ffffff" d="M 531.714844 355.664062 L 499.515625 355.664062 C 499.515625 355.753906 499.515625 355.84375 499.515625 355.9375 L 499.515625 365.621094 L 531.714844 365.621094 C 531.277344 364.03125 531.039062 362.363281 531.042969 360.644531 C 531.042969 358.921875 531.277344 357.253906 531.714844 355.664062 " fill-opacity="1" fill-rule="nonzero"/><g clip-path="url(#id5)"><path fill="#ffffff" d="M 549.691406 369.335938 C 547.273438 369.332031 545.132812 368.371094 543.542969 366.789062 C 541.964844 365.203125 541 363.058594 540.996094 360.640625 C 541 358.226562 541.960938 356.082031 543.542969 354.492188 C 545.132812 352.914062 547.273438 351.949219 549.691406 351.945312 C 552.109375 351.949219 554.25 352.914062 555.839844 354.492188 C 557.421875 356.082031 558.382812 358.226562 558.386719 360.640625 C 558.382812 363.058594 557.421875 365.203125 555.839844 366.789062 C 554.25 368.371094 552.109375 369.335938 549.691406 369.335938 M 549.703125 341.992188 C 549.699219 341.992188 549.695312 341.992188 549.691406 341.992188 C 544.558594 341.988281 539.863281 344.089844 536.503906 347.457031 C 534.265625 349.6875 532.585938 352.511719 531.714844 355.664062 C 531.277344 357.253906 531.039062 358.921875 531.042969 360.640625 C 531.039062 362.363281 531.277344 364.03125 531.714844 365.621094 C 532.585938 368.769531 534.265625 371.59375 536.503906 373.828125 C 539.863281 377.191406 544.550781 379.292969 549.683594 379.292969 C 549.683594 379.292969 549.6875 379.292969 549.691406 379.292969 C 554.828125 379.292969 559.519531 377.195312 562.878906 373.828125 C 566.246094 370.46875 568.34375 365.773438 568.34375 360.640625 C 568.34375 355.507812 566.246094 350.8125 562.878906 347.453125 C 559.523438 344.089844 554.832031 341.992188 549.703125 341.992188 " fill-opacity="1" fill-rule="nonzero"/></g><path fill="#ffffff" d="M 531.714844 435.96875 L 499.515625 435.96875 L 499.515625 445.652344 C 499.515625 445.742188 499.515625 445.835938 499.515625 445.925781 L 531.714844 445.925781 C 531.277344 444.339844 531.042969 442.667969 531.042969 440.949219 C 531.042969 439.226562 531.277344 437.558594 531.714844 435.96875 " fill-opacity="1" fill-rule="nonzero"/><g clip-path="url(#id6)"><path fill="#ffffff" d="M 549.691406 449.640625 C 547.273438 449.640625 545.132812 448.675781 543.542969 447.09375 C 541.964844 445.503906 541 443.363281 540.996094 440.949219 C 541 438.53125 541.960938 436.390625 543.542969 434.800781 C 545.132812 433.21875 547.273438 432.257812 549.691406 432.253906 C 552.109375 432.257812 554.25 433.21875 555.839844 434.800781 C 557.421875 436.390625 558.382812 438.53125 558.386719 440.949219 C 558.382812 443.363281 557.421875 445.503906 555.839844 447.09375 C 554.25 448.675781 552.109375 449.640625 549.691406 449.640625 M 549.703125 422.296875 C 549.699219 422.296875 549.695312 422.296875 549.691406 422.296875 C 544.558594 422.296875 539.863281 424.394531 536.503906 427.761719 C 534.265625 429.996094 532.585938 432.820312 531.714844 435.96875 C 531.277344 437.558594 531.039062 439.226562 531.042969 440.949219 C 531.039062 442.667969 531.277344 444.335938 531.714844 445.925781 C 532.585938 449.074219 534.265625 451.898438 536.503906 454.132812 C 539.863281 457.5 544.554688 459.597656 549.6875 459.597656 C 549.6875 459.597656 549.6875 459.597656 549.691406 459.597656 C 554.824219 459.597656 559.519531 457.5 562.878906 454.132812 C 566.246094 450.773438 568.34375 446.082031 568.339844 440.949219 C 568.34375 435.8125 566.246094 431.117188 562.878906 427.757812 C 559.523438 424.394531 554.832031 422.296875 549.703125 422.296875 " fill-opacity="1" fill-rule="nonzero"/></g><path fill="#ffffff" d="M 511.96875 395.816406 L 499.515625 395.816406 L 499.515625 405.773438 L 511.96875 405.773438 C 511.53125 404.183594 511.296875 402.515625 511.296875 400.796875 C 511.296875 399.074219 511.53125 397.40625 511.96875 395.816406 " fill-opacity="1" fill-rule="nonzero"/><path fill="#ffffff" d="M 529.945312 409.488281 C 527.53125 409.488281 525.386719 408.523438 523.796875 406.941406 C 522.214844 405.351562 521.253906 403.210938 521.25 400.792969 C 521.253906 398.378906 522.214844 396.234375 523.796875 394.648438 C 525.386719 393.066406 527.53125 392.105469 529.945312 392.101562 C 532.363281 392.101562 534.507812 393.066406 536.09375 394.648438 C 537.675781 396.234375 538.640625 398.378906 538.640625 400.792969 C 538.640625 403.210938 537.675781 405.355469 536.09375 406.941406 C 534.507812 408.523438 532.363281 409.488281 529.945312 409.488281 M 529.953125 382.144531 C 529.949219 382.144531 529.949219 382.144531 529.949219 382.144531 C 524.8125 382.144531 520.117188 384.242188 516.761719 387.609375 C 514.519531 389.84375 512.84375 392.667969 511.96875 395.820312 C 511.53125 397.40625 511.296875 399.078125 511.296875 400.796875 C 511.296875 402.515625 511.53125 404.1875 511.96875 405.773438 C 512.84375 408.925781 514.519531 411.75 516.761719 413.980469 C 520.117188 417.347656 524.808594 419.445312 529.9375 419.445312 C 529.941406 419.445312 529.945312 419.445312 529.949219 419.445312 C 535.082031 419.445312 539.777344 417.347656 543.136719 413.980469 C 546.503906 410.625 548.601562 405.929688 548.597656 400.792969 C 548.597656 395.660156 546.503906 390.96875 543.136719 387.605469 C 539.777344 384.242188 535.085938 382.144531 529.953125 382.144531 " fill-opacity="1" fill-rule="nonzero"/><path fill="#ffffff" d="M 378.460938 324.871094 C 370.003906 324.941406 362.3125 328.414062 356.765625 333.96875 C 351.214844 339.515625 347.738281 347.210938 347.667969 355.664062 L 357.625 355.664062 L 357.625 365.621094 L 347.667969 365.621094 L 347.667969 395.820312 L 357.625 395.820312 L 357.625 405.773438 L 347.667969 405.773438 L 347.667969 435.972656 L 357.625 435.972656 L 357.625 445.925781 L 347.667969 445.925781 C 347.738281 454.382812 351.214844 462.074219 356.765625 467.621094 C 362.3125 473.175781 370.003906 476.648438 378.460938 476.71875 L 378.460938 466.765625 L 388.417969 466.765625 L 388.417969 476.722656 L 418.617188 476.722656 L 418.617188 466.765625 L 428.570312 466.765625 L 428.570312 476.722656 L 458.769531 476.722656 L 458.769531 466.765625 L 468.722656 466.765625 L 468.722656 476.71875 C 477.179688 476.648438 484.871094 473.175781 490.417969 467.621094 C 495.972656 462.074219 499.445312 454.382812 499.515625 445.925781 L 489.5625 445.925781 L 489.5625 445.65625 C 489.558594 451.5 487.207031 456.746094 483.378906 460.582031 C 479.542969 464.410156 474.296875 466.761719 468.453125 466.765625 L 378.738281 466.765625 C 372.890625 466.761719 367.644531 464.410156 363.808594 460.582031 C 359.980469 456.746094 357.628906 451.5 357.625 445.65625 L 357.625 355.9375 C 357.628906 350.09375 359.980469 344.847656 363.808594 341.011719 C 367.644531 337.183594 372.890625 334.832031 378.738281 334.828125 L 378.460938 334.828125 L 378.460938 324.871094 M 468.722656 324.871094 L 468.722656 334.828125 L 468.449219 334.828125 C 474.296875 334.828125 479.542969 337.179688 483.378906 341.007812 C 487.207031 344.847656 489.558594 350.09375 489.5625 355.9375 L 489.5625 355.664062 L 499.515625 355.664062 C 499.445312 347.210938 495.972656 339.515625 490.417969 333.96875 C 484.871094 328.414062 477.175781 324.941406 468.722656 324.871094 M 418.617188 324.871094 L 388.417969 324.871094 L 388.417969 334.824219 L 418.617188 334.824219 L 418.617188 324.871094 M 458.765625 324.871094 L 428.570312 324.871094 L 428.570312 334.824219 L 458.765625 334.824219 L 458.765625 324.871094 " fill-opacity="1" fill-rule="nonzero"/><path fill="#ffffff" d="M 468.722656 466.761719 L 458.765625 466.761719 L 458.765625 476.71875 L 468.449219 476.71875 C 468.542969 476.71875 468.632812 476.71875 468.722656 476.71875 L 468.722656 466.761719 " fill-opacity="1" fill-rule="nonzero"/><path fill="#ffffff" d="M 388.417969 466.761719 L 378.460938 466.761719 L 378.460938 476.714844 C 378.550781 476.71875 378.636719 476.71875 378.726562 476.71875 C 378.730469 476.71875 378.730469 476.71875 378.734375 476.71875 L 388.417969 476.71875 L 388.417969 466.761719 " fill-opacity="1" fill-rule="nonzero"/><path fill="#ffffff" d="M 428.570312 466.761719 L 418.617188 466.761719 L 418.617188 476.71875 L 428.570312 476.71875 L 428.570312 466.761719 " fill-opacity="1" fill-rule="nonzero"/><path fill="#ffffff" d="M 388.417969 324.871094 L 378.734375 324.871094 C 378.644531 324.871094 378.554688 324.871094 378.460938 324.871094 L 378.460938 334.824219 L 388.417969 334.824219 L 388.417969 324.871094 " fill-opacity="1" fill-rule="nonzero"/><path fill="#ffffff" d="M 468.460938 324.871094 C 468.457031 324.871094 468.453125 324.871094 468.449219 324.871094 L 458.765625 324.871094 L 458.765625 334.824219 L 468.722656 334.824219 L 468.722656 324.871094 C 468.636719 324.871094 468.546875 324.871094 468.460938 324.871094 " fill-opacity="1" fill-rule="nonzero"/><path fill="#ffffff" d="M 428.570312 324.871094 L 418.617188 324.871094 L 418.617188 334.824219 L 428.570312 334.824219 L 428.570312 324.871094 " fill-opacity="1" fill-rule="nonzero"/><path fill="#ffffff" d="M 499.515625 405.773438 L 489.558594 405.773438 L 489.558594 435.96875 L 499.515625 435.96875 L 499.515625 405.773438 M 499.515625 365.621094 L 489.558594 365.621094 L 489.558594 395.816406 L 499.515625 395.816406 L 499.515625 365.621094 " fill-opacity="1" fill-rule="nonzero"/><path fill="#ffffff" d="M 357.625 435.96875 L 347.667969 435.96875 L 347.667969 445.652344 C 347.667969 445.742188 347.667969 445.835938 347.667969 445.925781 L 357.625 445.925781 L 357.625 435.96875 " fill-opacity="1" fill-rule="nonzero"/><path fill="#ffffff" d="M 357.625 355.664062 L 347.667969 355.664062 C 347.667969 355.753906 347.667969 355.84375 347.667969 355.9375 L 347.667969 365.621094 L 357.625 365.621094 L 357.625 355.664062 " fill-opacity="1" fill-rule="nonzero"/><path fill="#ffffff" d="M 357.625 395.816406 L 347.667969 395.816406 L 347.667969 405.773438 L 357.625 405.773438 L 357.625 395.816406 " fill-opacity="1" fill-rule="nonzero"/><path fill="#ffffff" d="M 499.515625 355.664062 L 489.558594 355.664062 L 489.558594 365.621094 L 499.515625 365.621094 L 499.515625 355.9375 C 499.515625 355.84375 499.515625 355.753906 499.515625 355.664062 " fill-opacity="1" fill-rule="nonzero"/><path fill="#ffffff" d="M 499.515625 445.652344 L 489.5625 445.652344 L 489.5625 445.925781 L 499.515625 445.925781 C 499.515625 445.835938 499.515625 445.742188 499.515625 445.652344 M 499.515625 435.96875 L 489.558594 435.96875 L 489.558594 445.652344 L 499.515625 445.652344 L 499.515625 435.96875 " fill-opacity="1" fill-rule="nonzero"/><path fill="#ffffff" d="M 499.515625 395.816406 L 489.5625 395.816406 L 489.5625 405.773438 L 499.515625 405.773438 L 499.515625 395.816406 " fill-opacity="1" fill-rule="nonzero"/><path fill="#ffffff" d="M 452.832031 349.589844 C 452.828125 349.589844 452.824219 349.589844 452.820312 349.589844 L 394.363281 349.589844 C 388.3125 349.585938 382.785156 352.058594 378.824219 356.027344 C 374.855469 359.988281 372.386719 365.511719 372.386719 371.566406 L 372.386719 430.023438 C 372.386719 436.078125 374.855469 441.601562 378.824219 445.566406 C 382.78125 449.53125 388.304688 452 394.355469 452 C 394.359375 452 394.363281 452 394.367188 452 L 452.824219 452 C 458.875 452.003906 464.402344 449.535156 468.363281 445.566406 C 472.332031 441.601562 474.800781 436.078125 474.800781 430.023438 L 464.84375 430.023438 C 464.84375 433.359375 463.507812 436.332031 461.324219 438.527344 C 459.132812 440.707031 456.160156 442.042969 452.824219 442.046875 L 394.367188 442.046875 C 391.027344 442.042969 388.054688 440.707031 385.863281 438.523438 C 383.679688 436.332031 382.34375 433.359375 382.34375 430.023438 L 382.34375 371.566406 C 382.34375 368.230469 383.679688 365.253906 385.863281 363.0625 C 388.054688 360.882812 391.027344 359.546875 394.367188 359.542969 L 452.824219 359.542969 C 456.160156 359.546875 459.132812 360.882812 461.324219 363.0625 C 463.507812 365.253906 464.84375 368.230469 464.84375 371.566406 L 464.84375 430.023438 L 474.800781 430.023438 L 474.800781 371.566406 C 474.800781 365.511719 472.332031 359.988281 468.363281 356.027344 C 464.402344 352.058594 458.878906 349.589844 452.832031 349.589844 " fill-opacity="1" fill-rule="nonzero"/></svg>