<svg xmlns="http://www.w3.org/2000/svg" xmlns:xlink="http://www.w3.org/1999/xlink" width="1080" zoomAndPan="magnify" viewBox="0 0 810 809.999993" height="1080" preserveAspectRatio="xMidYMid meet" version="1.0"><defs><clipPath id="id1"><path d="M 361 502 L 394 502 L 394 534.511719 L 361 534.511719 Z M 361 502 " clip-rule="nonzero"/></clipPath><clipPath id="id2"><path d="M 494 502 L 527 502 L 527 534.511719 L 494 534.511719 Z M 494 502 " clip-rule="nonzero"/></clipPath><clipPath id="id3"><path d="M 318 315 L 566.195312 315 L 566.195312 454 L 318 454 Z M 318 315 " clip-rule="nonzero"/></clipPath><clipPath id="id4"><path d="M 298.390625 243 L 511.390625 243 L 511.390625 567 L 298.390625 567 Z M 298.390625 243 " clip-rule="nonzero"/></clipPath></defs><g clip-path="url(#id1)"><path fill="#ffffff" d="M 377.558594 523.328125 C 374.789062 523.328125 372.539062 521.082031 372.539062 518.296875 C 372.539062 515.527344 374.789062 513.28125 377.558594 513.28125 C 380.324219 513.28125 382.582031 515.527344 382.582031 518.296875 C 382.582031 521.082031 380.324219 523.328125 377.558594 523.328125 Z M 377.558594 502.089844 C 368.625 502.089844 361.375 509.34375 361.375 518.296875 C 361.375 527.246094 368.625 534.511719 377.558594 534.511719 C 386.503906 534.511719 393.75 527.246094 393.75 518.296875 C 393.75 509.34375 386.503906 502.089844 377.558594 502.089844 " fill-opacity="1" fill-rule="nonzero"/></g><g clip-path="url(#id2)"><path fill="#ffffff" d="M 510.5625 523.328125 C 507.789062 523.328125 505.542969 521.082031 505.542969 518.296875 C 505.542969 515.527344 507.789062 513.28125 510.5625 513.28125 C 513.335938 513.28125 515.589844 515.527344 515.589844 518.296875 C 515.589844 521.082031 513.335938 523.328125 510.5625 523.328125 Z M 510.5625 502.089844 C 501.625 502.089844 494.378906 509.34375 494.378906 518.296875 C 494.378906 527.246094 501.625 534.511719 510.5625 534.511719 C 519.5 534.511719 526.753906 527.246094 526.753906 518.296875 C 526.753906 509.34375 519.5 502.089844 510.5625 502.089844 " fill-opacity="1" fill-rule="nonzero"/></g><path fill="#ffffff" d="M 271.992188 297.507812 L 300.832031 302.941406 C 301.550781 303.039062 303.230469 303.84375 304.523438 305.128906 C 305.855469 306.375 306.714844 308.015625 306.839844 308.738281 L 336.667969 440.140625 L 336.675781 440.148438 C 336.867188 440.960938 337.019531 442.347656 337.011719 443.894531 C 337.019531 445.824219 336.800781 448.019531 336.398438 449.988281 C 336.015625 451.953125 335.417969 453.71875 334.949219 454.644531 L 326.648438 471.382812 C 325.4375 473.839844 324.667969 476.554688 324.667969 479.449219 C 324.660156 481.496094 325.070312 483.621094 325.953125 485.589844 C 327.261719 488.5625 329.679688 491.015625 332.386719 492.464844 C 335.113281 493.933594 338.070312 494.523438 340.984375 494.523438 L 551.148438 494.523438 C 556.207031 494.523438 560.316406 490.410156 560.316406 485.335938 C 560.316406 480.269531 556.207031 476.152344 551.148438 476.152344 L 340.984375 476.152344 L 340.703125 476.136719 L 340.695312 476.136719 L 340.125 478.777344 L 342.070312 477.105469 C 341.433594 476.351562 340.722656 476.128906 340.695312 476.136719 L 340.125 478.777344 L 342.070312 477.105469 L 339.34375 479.449219 L 343.003906 479.449219 C 343.046875 478.941406 342.734375 477.824219 342.070312 477.105469 L 339.34375 479.449219 L 343.003906 479.449219 L 341.554688 479.449219 L 342.972656 479.808594 L 343.003906 479.449219 L 341.554688 479.449219 L 342.972656 479.808594 L 343.085938 479.546875 L 351.378906 462.808594 C 352.820312 459.875 353.738281 456.789062 354.382812 453.601562 C 355.011719 450.414062 355.355469 447.132812 355.355469 443.894531 C 355.347656 441.265625 355.136719 438.667969 354.554688 436.066406 L 324.71875 304.664062 L 324.726562 304.671875 C 323.507812 299.472656 320.714844 295.285156 317.25 291.90625 C 313.738281 288.5625 309.449219 285.925781 304.234375 284.898438 L 274.316406 279.695312 C 269.339844 278.757812 265.613281 281.792969 264.671875 286.777344 C 263.742188 291.761719 267.015625 296.5625 271.992188 297.507812 " fill-opacity="1" fill-rule="nonzero"/><g clip-path="url(#id3)"><path fill="#ffffff" d="M 318.5625 324.425781 L 552.964844 347.167969 C 554.445312 347.324219 555.386719 347.863281 556.019531 348.527344 C 556.648438 349.207031 557.015625 350.058594 557.027344 351.199219 C 557.027344 351.691406 556.953125 352.25 556.761719 352.855469 L 531.09375 436.984375 C 530.578125 438.730469 529.144531 440.683594 527.246094 442.078125 C 525.355469 443.496094 523.078125 444.296875 521.253906 444.273438 L 349.527344 444.273438 L 349.527344 453.453125 L 521.253906 453.453125 C 525.484375 453.4375 529.4375 451.863281 532.695312 449.460938 C 535.953125 447.035156 538.605469 443.714844 539.859375 439.667969 L 539.671875 440.296875 L 565.53125 355.535156 L 565.53125 355.527344 C 565.972656 354.101562 566.195312 352.644531 566.195312 351.199219 C 566.203125 347.847656 564.957031 344.632812 562.714844 342.25 C 560.496094 339.863281 557.335938 338.355469 553.847656 338.027344 L 319.445312 315.285156 L 318.5625 324.425781 " fill-opacity="1" fill-rule="nonzero"/></g><path fill="#ffffff" d="M 515.039062 341.878906 L 493.820312 447.960938 L 502.808594 449.773438 L 524.027344 343.683594 L 515.039062 341.878906 " fill-opacity="1" fill-rule="nonzero"/><path fill="#ffffff" d="M 464.140625 336.304688 L 457.140625 448.585938 L 466.300781 449.152344 L 473.292969 336.878906 L 464.140625 336.304688 " fill-opacity="1" fill-rule="nonzero"/><path fill="#ffffff" d="M 413.328125 330.671875 L 420.542969 449.144531 L 429.695312 448.585938 L 422.472656 330.117188 L 413.328125 330.671875 " fill-opacity="1" fill-rule="nonzero"/><path fill="#ffffff" d="M 362.570312 324.984375 L 384.007812 449.652344 L 393.035156 448.09375 L 371.605469 323.425781 L 362.570312 324.984375 " fill-opacity="1" fill-rule="nonzero"/><path fill="#ffffff" d="M 333.960938 392.171875 L 548.121094 400.851562 L 548.496094 391.671875 L 334.328125 382.988281 L 333.960938 392.171875 " fill-opacity="1" fill-rule="nonzero"/><path fill="#ffffff" d="M 302.527344 293.589844 C 301.707031 298.546875 296.15625 301.785156 290.1875 300.792969 L 253.84375 294.800781 C 247.882812 293.816406 243.660156 288.964844 244.472656 284.023438 C 245.289062 279.070312 250.839844 275.824219 256.816406 276.808594 L 293.152344 282.800781 C 299.121094 283.792969 303.34375 288.644531 302.527344 293.589844 " fill-opacity="1" fill-rule="nonzero"/><g clip-path="url(#id4)"><path fill="#000000" d="M 404.890625 545.96875 L 493.3125 380.308594 C 494.996094 375.472656 496.242188 370.492188 497.117188 365.433594 C 497.996094 360.304688 498.4375 355.03125 498.4375 349.609375 C 498.4375 323.746094 487.96875 300.300781 471.0625 283.375 C 454.078125 266.449219 430.730469 255.972656 404.890625 255.972656 C 379.054688 255.972656 355.703125 266.449219 338.722656 283.375 C 321.816406 300.300781 311.347656 323.746094 311.347656 349.609375 C 311.347656 355.03125 311.785156 360.304688 312.664062 365.433594 C 313.542969 370.492188 314.789062 375.472656 316.472656 380.308594 Z M 404.890625 291.359375 C 421.289062 291.359375 436.074219 298.027344 446.761719 308.796875 C 457.519531 319.496094 464.179688 334.296875 464.179688 350.707031 C 464.179688 354.078125 463.886719 357.375 463.300781 360.671875 C 462.71875 363.96875 461.910156 367.195312 460.8125 370.34375 C 456.714844 382.066406 449.027344 392.105469 439.074219 399.136719 C 429.414062 405.953125 417.628906 409.980469 404.890625 409.980469 C 392.15625 409.980469 380.371094 405.953125 370.710938 399.136719 C 360.753906 392.105469 353.144531 382.066406 349.042969 370.34375 L 348.96875 370.417969 C 347.871094 367.265625 347.066406 364.042969 346.480469 360.671875 C 345.894531 357.375 345.601562 354.078125 345.601562 350.707031 C 345.601562 334.296875 352.265625 319.496094 363.023438 308.796875 C 373.710938 298.027344 388.496094 291.359375 404.890625 291.359375 Z M 437.683594 317.882812 C 429.265625 309.53125 417.703125 304.328125 404.890625 304.328125 C 392.082031 304.328125 380.519531 309.53125 372.101562 317.882812 C 363.757812 326.308594 358.558594 337.886719 358.558594 350.707031 C 358.558594 353.417969 358.777344 356.058594 359.21875 358.546875 C 359.65625 361.113281 360.316406 363.675781 361.121094 366.09375 C 364.339844 375.253906 370.34375 383.09375 378.101562 388.585938 C 385.640625 393.9375 394.863281 397.085938 404.890625 397.085938 C 414.921875 397.085938 424.144531 393.9375 431.683594 388.585938 C 439.441406 383.09375 445.441406 375.253906 448.664062 366.09375 C 449.46875 363.675781 450.128906 361.183594 450.566406 358.546875 C 451.003906 356.058594 451.226562 353.417969 451.226562 350.707031 C 451.226562 337.886719 446.027344 326.308594 437.683594 317.882812 Z M 504.949219 385.804688 L 410.601562 562.601562 C 410.015625 563.773438 409.136719 564.726562 407.894531 565.3125 C 404.820312 566.996094 400.867188 565.824219 399.183594 562.671875 L 305.054688 386.242188 C 304.832031 385.804688 304.613281 385.4375 304.46875 384.925781 C 302.492188 379.355469 300.953125 373.496094 299.929688 367.558594 C 298.976562 361.625 298.390625 355.691406 298.390625 349.609375 C 298.390625 320.15625 310.324219 293.558594 329.648438 274.214844 C 348.898438 254.945312 375.46875 243.003906 404.890625 243.003906 C 434.316406 243.003906 460.886719 254.945312 480.136719 274.214844 C 499.460938 293.558594 511.390625 320.15625 511.390625 349.609375 C 511.390625 355.691406 510.804688 361.625 509.855469 367.558594 C 508.832031 373.496094 507.292969 379.355469 505.316406 384.925781 C 505.242188 385.21875 505.097656 385.511719 504.949219 385.804688 Z M 504.949219 385.804688 " fill-opacity="1" fill-rule="nonzero"/></g></svg>