<svg xmlns="http://www.w3.org/2000/svg" xmlns:xlink="http://www.w3.org/1999/xlink" width="188" zoomAndPan="magnify" viewBox="0 0 141.12 141.750002" height="188" preserveAspectRatio="xMidYMid meet" version="1.0"><defs><clipPath id="id1"><path d="M 0 0.316406 L 140.125 0.316406 L 140.125 141.1875 L 0 141.1875 Z M 0 0.316406 " clip-rule="nonzero"/></clipPath><clipPath id="id2"><path d="M 0 0.316406 L 140.125 0.316406 L 140.125 141 L 0 141 Z M 0 0.316406 " clip-rule="nonzero"/></clipPath><clipPath id="id3"><path d="M 0 0.316406 L 140.125 0.316406 L 140.125 140.441406 L 0 140.441406 Z M 0 0.316406 " clip-rule="nonzero"/></clipPath><clipPath id="id4"><path d="M 42.03125 48.058594 L 98.378906 48.058594 L 98.378906 88 L 42.03125 88 Z M 42.03125 48.058594 " clip-rule="nonzero"/></clipPath><clipPath id="id5"><path d="M 42.03125 90 L 98.378906 90 L 98.378906 92.542969 L 42.03125 92.542969 Z M 42.03125 90 " clip-rule="nonzero"/></clipPath></defs><g clip-path="url(#id1)"><path fill="#ffffff" d="M 0 0.316406 L 140.125 0.316406 L 140.125 147.855469 L 0 147.855469 Z M 0 0.316406 " fill-opacity="1" fill-rule="nonzero"/></g><g clip-path="url(#id2)"><path fill="#ffffff" d="M 0 0.316406 L 140.125 0.316406 L 140.125 140.441406 L 0 140.441406 Z M 0 0.316406 " fill-opacity="1" fill-rule="nonzero"/></g><g clip-path="url(#id3)"><path fill="#ffffff" d="M 0 0.316406 L 140.125 0.316406 L 140.125 140.441406 L 0 140.441406 Z M 0 0.316406 " fill-opacity="1" fill-rule="nonzero"/><path fill="#ffffff" d="M 0 0.316406 L 140.125 0.316406 L 140.125 140.441406 L 0 140.441406 Z M 0 0.316406 " fill-opacity="1" fill-rule="nonzero"/></g><path fill="#000000" d="M 87.816406 53.285156 L 52.585938 53.285156 L 52.585938 74.726562 L 87.816406 74.726562 Z M 86.246094 73.167969 L 54.15625 73.167969 L 54.15625 54.84375 L 86.246094 54.84375 Z M 86.246094 73.167969 " fill-opacity="1" fill-rule="nonzero"/><g clip-path="url(#id4)"><path fill="#000000" d="M 98.296875 87.390625 L 91.980469 78.359375 C 92.644531 77.589844 93.046875 76.59375 93.046875 75.503906 L 93.046875 52.507812 C 93.046875 50.078125 91.050781 48.101562 88.601562 48.101562 L 51.800781 48.101562 C 49.351562 48.101562 47.355469 50.078125 47.355469 52.507812 L 47.355469 75.503906 C 47.355469 76.59375 47.757812 77.589844 48.421875 78.363281 L 42.105469 87.390625 Z M 45.105469 85.835938 L 49.25 79.910156 L 91.15625 79.910156 L 95.296875 85.835938 Z M 48.925781 52.507812 C 48.925781 50.9375 50.214844 49.65625 51.800781 49.65625 L 88.601562 49.65625 C 90.1875 49.65625 91.476562 50.9375 91.476562 52.507812 L 91.476562 75.503906 C 91.476562 77.074219 90.1875 78.355469 88.601562 78.355469 L 51.800781 78.355469 C 50.214844 78.355469 48.925781 77.074219 48.925781 75.503906 Z M 48.925781 52.507812 " fill-opacity="1" fill-rule="nonzero"/></g><g clip-path="url(#id5)"><path fill="#000000" d="M 42.035156 90.996094 L 98.367188 90.996094 L 98.367188 92.550781 L 42.035156 92.550781 Z M 42.035156 90.996094 " fill-opacity="1" fill-rule="nonzero"/></g></svg>