<svg xmlns="http://www.w3.org/2000/svg" xmlns:xlink="http://www.w3.org/1999/xlink" width="1080" zoomAndPan="magnify" viewBox="0 0 810 809.999993" height="1080" preserveAspectRatio="xMidYMid meet" version="1.0"><defs><clipPath id="id1"><path d="M 361 502 L 394 502 L 394 534.511719 L 361 534.511719 Z M 361 502 " clip-rule="nonzero"/></clipPath><clipPath id="id2"><path d="M 494 502 L 527 502 L 527 534.511719 L 494 534.511719 Z M 494 502 " clip-rule="nonzero"/></clipPath><clipPath id="id3"><path d="M 318 315 L 566.195312 315 L 566.195312 454 L 318 454 Z M 318 315 " clip-rule="nonzero"/></clipPath><clipPath id="id4"><path d="M 273.882812 319 L 316 319 L 316 385 L 273.882812 385 Z M 273.882812 319 " clip-rule="nonzero"/></clipPath><clipPath id="id5"><path d="M 494 319 L 536.382812 319 L 536.382812 385 L 494 385 Z M 494 319 " clip-rule="nonzero"/></clipPath></defs><g clip-path="url(#id1)"><path fill="#ffffff" d="M 377.558594 523.328125 C 374.789062 523.328125 372.539062 521.082031 372.539062 518.296875 C 372.539062 515.527344 374.789062 513.28125 377.558594 513.28125 C 380.324219 513.28125 382.582031 515.527344 382.582031 518.296875 C 382.582031 521.082031 380.324219 523.328125 377.558594 523.328125 Z M 377.558594 502.089844 C 368.625 502.089844 361.375 509.34375 361.375 518.296875 C 361.375 527.246094 368.625 534.511719 377.558594 534.511719 C 386.503906 534.511719 393.75 527.246094 393.75 518.296875 C 393.75 509.34375 386.503906 502.089844 377.558594 502.089844 " fill-opacity="1" fill-rule="nonzero"/></g><g clip-path="url(#id2)"><path fill="#ffffff" d="M 510.5625 523.328125 C 507.789062 523.328125 505.542969 521.082031 505.542969 518.296875 C 505.542969 515.527344 507.789062 513.28125 510.5625 513.28125 C 513.335938 513.28125 515.589844 515.527344 515.589844 518.296875 C 515.589844 521.082031 513.335938 523.328125 510.5625 523.328125 Z M 510.5625 502.089844 C 501.625 502.089844 494.378906 509.34375 494.378906 518.296875 C 494.378906 527.246094 501.625 534.511719 510.5625 534.511719 C 519.5 534.511719 526.753906 527.246094 526.753906 518.296875 C 526.753906 509.34375 519.5 502.089844 510.5625 502.089844 " fill-opacity="1" fill-rule="nonzero"/></g><path fill="#ffffff" d="M 271.992188 297.507812 L 300.832031 302.941406 C 301.550781 303.039062 303.230469 303.84375 304.523438 305.128906 C 305.855469 306.375 306.714844 308.015625 306.839844 308.738281 L 336.667969 440.140625 L 336.675781 440.148438 C 336.867188 440.960938 337.019531 442.347656 337.011719 443.894531 C 337.019531 445.824219 336.800781 448.019531 336.398438 449.988281 C 336.015625 451.953125 335.417969 453.71875 334.949219 454.644531 L 326.648438 471.382812 C 325.4375 473.839844 324.667969 476.554688 324.667969 479.449219 C 324.660156 481.496094 325.070312 483.621094 325.953125 485.589844 C 327.261719 488.5625 329.679688 491.015625 332.386719 492.464844 C 335.113281 493.933594 338.070312 494.523438 340.984375 494.523438 L 551.148438 494.523438 C 556.207031 494.523438 560.316406 490.410156 560.316406 485.335938 C 560.316406 480.269531 556.207031 476.152344 551.148438 476.152344 L 340.984375 476.152344 L 340.703125 476.136719 L 340.695312 476.136719 L 340.125 478.777344 L 342.070312 477.105469 C 341.433594 476.351562 340.722656 476.128906 340.695312 476.136719 L 340.125 478.777344 L 342.070312 477.105469 L 339.34375 479.449219 L 343.003906 479.449219 C 343.046875 478.941406 342.734375 477.824219 342.070312 477.105469 L 339.34375 479.449219 L 343.003906 479.449219 L 341.554688 479.449219 L 342.972656 479.808594 L 343.003906 479.449219 L 341.554688 479.449219 L 342.972656 479.808594 L 343.085938 479.546875 L 351.378906 462.808594 C 352.820312 459.875 353.738281 456.789062 354.382812 453.601562 C 355.011719 450.414062 355.355469 447.132812 355.355469 443.894531 C 355.347656 441.265625 355.136719 438.667969 354.554688 436.066406 L 324.71875 304.664062 L 324.726562 304.671875 C 323.507812 299.472656 320.714844 295.285156 317.25 291.90625 C 313.738281 288.5625 309.449219 285.925781 304.234375 284.898438 L 274.316406 279.695312 C 269.339844 278.757812 265.613281 281.792969 264.671875 286.777344 C 263.742188 291.761719 267.015625 296.5625 271.992188 297.507812 " fill-opacity="1" fill-rule="nonzero"/><g clip-path="url(#id3)"><path fill="#ffffff" d="M 318.5625 324.425781 L 552.964844 347.167969 C 554.445312 347.324219 555.386719 347.863281 556.019531 348.527344 C 556.648438 349.207031 557.015625 350.058594 557.027344 351.199219 C 557.027344 351.691406 556.953125 352.25 556.761719 352.855469 L 531.09375 436.984375 C 530.578125 438.730469 529.144531 440.683594 527.246094 442.078125 C 525.355469 443.496094 523.078125 444.296875 521.253906 444.273438 L 349.527344 444.273438 L 349.527344 453.453125 L 521.253906 453.453125 C 525.484375 453.4375 529.4375 451.863281 532.695312 449.460938 C 535.953125 447.035156 538.605469 443.714844 539.859375 439.667969 L 539.671875 440.296875 L 565.53125 355.535156 L 565.53125 355.527344 C 565.972656 354.101562 566.195312 352.644531 566.195312 351.199219 C 566.203125 347.847656 564.957031 344.632812 562.714844 342.25 C 560.496094 339.863281 557.335938 338.355469 553.847656 338.027344 L 319.445312 315.285156 L 318.5625 324.425781 " fill-opacity="1" fill-rule="nonzero"/></g><path fill="#ffffff" d="M 515.039062 341.878906 L 493.820312 447.960938 L 502.808594 449.773438 L 524.027344 343.683594 L 515.039062 341.878906 " fill-opacity="1" fill-rule="nonzero"/><path fill="#ffffff" d="M 464.140625 336.304688 L 457.140625 448.585938 L 466.300781 449.152344 L 473.292969 336.878906 L 464.140625 336.304688 " fill-opacity="1" fill-rule="nonzero"/><path fill="#ffffff" d="M 413.328125 330.671875 L 420.542969 449.144531 L 429.695312 448.585938 L 422.472656 330.117188 L 413.328125 330.671875 " fill-opacity="1" fill-rule="nonzero"/><path fill="#ffffff" d="M 362.570312 324.984375 L 384.007812 449.652344 L 393.035156 448.09375 L 371.605469 323.425781 L 362.570312 324.984375 " fill-opacity="1" fill-rule="nonzero"/><path fill="#ffffff" d="M 333.960938 392.171875 L 548.121094 400.851562 L 548.496094 391.671875 L 334.328125 382.988281 L 333.960938 392.171875 " fill-opacity="1" fill-rule="nonzero"/><path fill="#ffffff" d="M 302.527344 293.589844 C 301.707031 298.546875 296.15625 301.785156 290.1875 300.792969 L 253.84375 294.800781 C 247.882812 293.816406 243.660156 288.964844 244.472656 284.023438 C 245.289062 279.070312 250.839844 275.824219 256.816406 276.808594 L 293.152344 282.800781 C 299.121094 283.792969 303.34375 288.644531 302.527344 293.589844 " fill-opacity="1" fill-rule="nonzero"/><path fill="#ffffff" d="M 324.800781 246.207031 C 281.460938 246.207031 246.207031 281.460938 246.207031 324.800781 L 246.207031 340.839844 C 246.207031 348.800781 252.683594 355.277344 260.644531 355.277344 C 268.605469 355.277344 275.078125 348.800781 275.078125 340.839844 L 275.078125 324.800781 C 275.078125 297.382812 297.382812 275.078125 324.800781 275.078125 L 340.839844 275.078125 C 348.800781 275.078125 355.277344 268.605469 355.277344 260.644531 C 355.277344 252.683594 348.800781 246.207031 340.839844 246.207031 Z M 260.644531 358.484375 C 250.914062 358.484375 243 350.574219 243 340.839844 L 243 324.800781 C 243 279.699219 279.699219 243 324.800781 243 L 340.839844 243 C 350.574219 243 358.484375 250.914062 358.484375 260.644531 C 358.484375 270.371094 350.574219 278.285156 340.839844 278.285156 L 324.800781 278.285156 C 299.152344 278.285156 278.289062 299.152344 278.289062 324.800781 L 278.289062 340.839844 C 278.289062 350.574219 270.371094 358.484375 260.644531 358.484375 " fill-opacity="1" fill-rule="nonzero"/><path fill="#ffffff" d="M 469.160156 246.207031 C 461.203125 246.207031 454.722656 252.683594 454.722656 260.644531 C 454.722656 268.605469 461.203125 275.078125 469.160156 275.078125 L 485.199219 275.078125 C 512.617188 275.078125 534.921875 297.382812 534.921875 324.800781 L 534.921875 340.839844 C 534.921875 348.800781 541.398438 355.277344 549.355469 355.277344 C 557.3125 355.277344 563.792969 348.800781 563.792969 340.839844 L 563.792969 324.800781 C 563.792969 281.460938 528.535156 246.207031 485.199219 246.207031 Z M 549.355469 358.484375 C 539.628906 358.484375 531.714844 350.574219 531.714844 340.839844 L 531.714844 324.800781 C 531.714844 299.152344 510.847656 278.285156 485.199219 278.285156 L 469.160156 278.285156 C 459.425781 278.285156 451.515625 270.371094 451.515625 260.644531 C 451.515625 250.914062 459.425781 243 469.160156 243 L 485.199219 243 C 530.300781 243 567 279.699219 567 324.800781 L 567 340.839844 C 567 350.574219 559.085938 358.484375 549.355469 358.484375 " fill-opacity="1" fill-rule="nonzero"/><path fill="#ffffff" d="M 469.160156 534.921875 C 461.203125 534.921875 454.722656 541.398438 454.722656 549.355469 C 454.722656 557.3125 461.203125 563.792969 469.160156 563.792969 L 485.199219 563.792969 C 528.535156 563.792969 563.792969 528.535156 563.792969 485.199219 L 563.792969 469.160156 C 563.792969 461.203125 557.3125 454.722656 549.355469 454.722656 C 541.398438 454.722656 534.921875 461.203125 534.921875 469.160156 L 534.921875 485.199219 C 534.921875 512.617188 512.617188 534.921875 485.199219 534.921875 Z M 485.199219 567 L 469.160156 567 C 459.425781 567 451.515625 559.085938 451.515625 549.355469 C 451.515625 539.628906 459.425781 531.710938 469.160156 531.710938 L 485.199219 531.710938 C 510.847656 531.710938 531.714844 510.847656 531.714844 485.199219 L 531.714844 469.160156 C 531.714844 459.425781 539.628906 451.515625 549.355469 451.515625 C 559.085938 451.515625 567 459.425781 567 469.160156 L 567 485.199219 C 567 530.300781 530.300781 567 485.199219 567 " fill-opacity="1" fill-rule="nonzero"/><path fill="#ffffff" d="M 260.644531 454.722656 C 252.683594 454.722656 246.207031 461.203125 246.207031 469.160156 L 246.207031 485.199219 C 246.207031 528.535156 281.460938 563.792969 324.800781 563.792969 L 340.839844 563.792969 C 348.800781 563.792969 355.277344 557.3125 355.277344 549.355469 C 355.277344 541.398438 348.800781 534.921875 340.839844 534.921875 L 324.800781 534.921875 C 297.382812 534.921875 275.078125 512.617188 275.078125 485.199219 L 275.078125 469.160156 C 275.078125 461.203125 268.605469 454.722656 260.644531 454.722656 Z M 340.839844 567 L 324.800781 567 C 279.699219 567 243 530.300781 243 485.199219 L 243 469.160156 C 243 459.425781 250.914062 451.515625 260.644531 451.515625 C 270.371094 451.515625 278.289062 459.425781 278.289062 469.160156 L 278.289062 485.199219 C 278.289062 510.847656 299.152344 531.710938 324.800781 531.710938 L 340.839844 531.710938 C 350.574219 531.710938 358.484375 539.628906 358.484375 549.355469 C 358.484375 559.085938 350.574219 567 340.839844 567 " fill-opacity="1" fill-rule="nonzero"/><path fill="#ffffff" d="M 405 310.367188 C 379.351562 310.367188 358.484375 331.234375 358.484375 356.882812 C 358.484375 382.527344 379.351562 403.394531 405 403.394531 C 430.652344 403.394531 451.515625 382.527344 451.515625 356.882812 C 451.515625 331.234375 430.652344 310.367188 405 310.367188 Z M 405 406.605469 C 377.582031 406.605469 355.277344 384.300781 355.277344 356.882812 C 355.277344 329.460938 377.582031 307.160156 405 307.160156 C 432.417969 307.160156 454.722656 329.460938 454.722656 356.882812 C 454.722656 384.300781 432.417969 406.605469 405 406.605469 " fill-opacity="1" fill-rule="nonzero"/><path fill="#ffffff" d="M 388.960938 406.605469 C 354.46875 406.605469 326.40625 434.667969 326.40625 469.160156 C 326.40625 485.960938 340.074219 499.632812 356.882812 499.632812 L 453.117188 499.632812 C 469.925781 499.632812 483.59375 485.960938 483.59375 469.160156 C 483.59375 434.667969 455.53125 406.605469 421.039062 406.605469 Z M 453.117188 502.839844 L 356.882812 502.839844 C 338.304688 502.839844 323.199219 487.730469 323.199219 469.160156 C 323.199219 432.894531 352.699219 403.394531 388.960938 403.394531 L 421.039062 403.394531 C 457.304688 403.394531 486.800781 432.894531 486.800781 469.160156 C 486.800781 487.730469 471.6875 502.839844 453.117188 502.839844 " fill-opacity="1" fill-rule="nonzero"/><path fill="#ffffff" d="M 503.640625 335.695312 C 502.9375 335.695312 502.253906 335.578125 501.589844 335.34375 C 500.925781 335.113281 500.316406 334.777344 499.765625 334.335938 C 499.21875 333.898438 498.753906 333.378906 498.382812 332.78125 C 498.007812 332.1875 497.742188 331.546875 497.585938 330.859375 C 497.011719 328.335938 496.335938 325.84375 495.554688 323.375 C 494.777344 320.910156 493.894531 318.480469 492.917969 316.085938 C 491.9375 313.691406 490.863281 311.339844 489.691406 309.035156 C 488.519531 306.726562 487.253906 304.472656 485.898438 302.269531 C 484.542969 300.066406 483.097656 297.921875 481.566406 295.839844 C 480.035156 293.753906 478.417969 291.734375 476.71875 289.78125 C 475.023438 287.832031 473.246094 285.949219 471.394531 284.144531 C 469.542969 282.335938 467.621094 280.605469 465.628906 278.957031 C 463.632812 277.304688 461.574219 275.742188 459.453125 274.257812 C 457.332031 272.777344 455.152344 271.382812 452.917969 270.082031 C 450.679688 268.777344 448.394531 267.566406 446.058594 266.453125 C 443.722656 265.335938 441.347656 264.316406 438.925781 263.394531 C 436.507812 262.472656 434.054688 261.648438 431.570312 260.929688 C 429.082031 260.207031 426.570312 259.589844 424.035156 259.074219 C 421.496094 258.558594 418.941406 258.148438 416.371094 257.839844 C 413.800781 257.53125 411.222656 257.332031 408.636719 257.234375 C 406.046875 257.140625 403.460938 257.148438 400.875 257.265625 C 398.289062 257.382812 395.710938 257.605469 393.140625 257.929688 C 390.574219 258.257812 388.023438 258.6875 385.492188 259.222656 C 382.957031 259.757812 380.449219 260.398438 377.96875 261.136719 C 375.488281 261.878906 373.042969 262.71875 370.632812 263.660156 C 368.21875 264.601562 365.851562 265.636719 363.523438 266.773438 C 361.199219 267.90625 358.921875 269.136719 356.695312 270.457031 C 354.46875 271.777344 352.300781 273.1875 350.191406 274.683594 C 348.078125 276.183594 346.035156 277.765625 344.054688 279.429688 C 342.074219 281.09375 340.164062 282.839844 338.324219 284.660156 C 336.488281 286.484375 334.726562 288.375 333.046875 290.34375 C 331.363281 292.308594 329.761719 294.339844 328.246094 296.4375 C 326.730469 298.53125 325.304688 300.6875 323.964844 302.902344 C 322.625 305.113281 321.378906 307.378906 320.226562 309.695312 C 319.070312 312.011719 318.015625 314.367188 317.054688 316.769531 C 316.09375 319.171875 315.234375 321.609375 314.472656 324.082031 C 314.359375 324.480469 314.207031 324.859375 314.019531 325.226562 C 313.828125 325.59375 313.605469 325.9375 313.347656 326.261719 C 313.089844 326.582031 312.800781 326.878906 312.484375 327.140625 C 312.167969 327.40625 311.828125 327.636719 311.464844 327.835938 C 311.101562 328.03125 310.722656 328.191406 310.328125 328.3125 C 309.933594 328.433594 309.53125 328.515625 309.117188 328.558594 C 308.707031 328.597656 308.296875 328.601562 307.882812 328.558594 C 307.472656 328.519531 307.070312 328.4375 306.675781 328.316406 C 306.28125 328.195312 305.902344 328.035156 305.539062 327.839844 C 305.171875 327.644531 304.832031 327.414062 304.515625 327.148438 C 304.199219 326.882812 303.910156 326.589844 303.652344 326.269531 C 303.394531 325.945312 303.167969 325.601562 302.980469 325.234375 C 302.789062 324.871094 302.636719 324.488281 302.523438 324.089844 C 302.410156 323.695312 302.335938 323.289062 302.304688 322.878906 C 302.269531 322.464844 302.277344 322.054688 302.328125 321.644531 C 302.375 321.234375 302.464844 320.835938 302.59375 320.441406 C 303.453125 317.644531 304.425781 314.886719 305.511719 312.171875 C 306.597656 309.453125 307.792969 306.785156 309.097656 304.164062 C 310.402344 301.546875 311.8125 298.984375 313.324219 296.480469 C 314.839844 293.976562 316.453125 291.535156 318.167969 289.164062 C 319.882812 286.792969 321.691406 284.496094 323.59375 282.269531 C 325.496094 280.046875 327.488281 277.902344 329.566406 275.84375 C 331.644531 273.78125 333.804688 271.808594 336.046875 269.921875 C 338.285156 268.039062 340.601562 266.25 342.988281 264.554688 C 345.375 262.859375 347.828125 261.265625 350.34375 259.769531 C 352.863281 258.277344 355.4375 256.886719 358.070312 255.601562 C 360.703125 254.320312 363.382812 253.144531 366.109375 252.082031 C 368.839844 251.015625 371.605469 250.066406 374.414062 249.226562 C 377.21875 248.390625 380.054688 247.667969 382.917969 247.0625 C 385.785156 246.457031 388.671875 245.96875 391.574219 245.597656 C 394.480469 245.230469 397.398438 244.980469 400.324219 244.847656 C 403.25 244.71875 406.175781 244.707031 409.101562 244.8125 C 412.027344 244.921875 414.945312 245.152344 417.855469 245.496094 C 420.761719 245.84375 423.652344 246.308594 426.523438 246.894531 C 429.390625 247.476562 432.234375 248.179688 435.046875 248.992188 C 437.859375 249.808594 440.632812 250.738281 443.367188 251.78125 C 446.105469 252.828125 448.792969 253.980469 451.4375 255.242188 C 454.078125 256.507812 456.664062 257.875 459.191406 259.351562 C 461.722656 260.824219 464.1875 262.402344 466.585938 264.078125 C 468.988281 265.753906 471.316406 267.527344 473.570312 269.394531 C 475.824219 271.261719 478 273.214844 480.09375 275.261719 C 482.1875 277.304688 484.195312 279.433594 486.117188 281.644531 C 488.035156 283.851562 489.863281 286.136719 491.597656 288.496094 C 493.328125 290.855469 494.960938 293.28125 496.496094 295.773438 C 498.03125 298.265625 499.460938 300.816406 500.785156 303.425781 C 502.109375 306.035156 503.324219 308.695312 504.429688 311.402344 C 505.539062 314.113281 506.53125 316.863281 507.414062 319.652344 C 508.292969 322.441406 509.058594 325.265625 509.707031 328.117188 C 509.8125 328.570312 509.859375 329.03125 509.859375 329.496094 C 509.859375 329.964844 509.804688 330.421875 509.699219 330.875 C 509.59375 331.332031 509.441406 331.765625 509.238281 332.1875 C 509.035156 332.605469 508.789062 332.996094 508.496094 333.359375 C 508.203125 333.726562 507.878906 334.050781 507.511719 334.339844 C 507.148438 334.632812 506.753906 334.878906 506.335938 335.078125 C 505.914062 335.28125 505.476562 335.433594 505.023438 335.539062 C 504.570312 335.644531 504.109375 335.695312 503.640625 335.695312 Z M 503.640625 335.695312 " fill-opacity="1" fill-rule="nonzero"/><path fill="#ffffff" d="M 405.128906 452.410156 C 394.011719 452.410156 383.0625 448.765625 372.589844 441.578125 C 363.464844 435.3125 354.800781 426.285156 347.539062 415.476562 C 347.3125 415.136719 347.121094 414.78125 346.964844 414.40625 C 346.804688 414.027344 346.6875 413.640625 346.605469 413.242188 C 346.527344 412.839844 346.484375 412.4375 346.484375 412.03125 C 346.484375 411.621094 346.523438 411.21875 346.601562 410.820312 C 346.679688 410.417969 346.796875 410.03125 346.953125 409.652344 C 347.109375 409.277344 347.300781 408.917969 347.527344 408.578125 C 347.753906 408.238281 348.007812 407.925781 348.296875 407.636719 C 348.585938 407.347656 348.898438 407.089844 349.238281 406.863281 C 349.578125 406.636719 349.933594 406.445312 350.3125 406.289062 C 350.6875 406.128906 351.074219 406.011719 351.476562 405.933594 C 351.875 405.851562 352.28125 405.8125 352.6875 405.808594 C 353.097656 405.808594 353.5 405.847656 353.902344 405.925781 C 354.300781 406.007812 354.691406 406.125 355.066406 406.277344 C 355.445312 406.433594 355.800781 406.625 356.140625 406.851562 C 356.480469 407.074219 356.796875 407.332031 357.085938 407.621094 C 357.375 407.90625 357.632812 408.222656 357.859375 408.558594 C 364.25 418.078125 371.78125 425.957031 379.628906 431.34375 C 387.992188 437.085938 396.570312 439.996094 405.128906 439.996094 C 413.398438 439.996094 421.703125 437.269531 429.804688 431.894531 C 437.421875 426.84375 444.792969 419.414062 451.113281 410.40625 C 463.484375 392.820312 471.152344 370.378906 471.152344 351.847656 C 471.15625 350.761719 471.136719 349.679688 471.089844 348.597656 C 471.039062 347.515625 470.964844 346.4375 470.863281 345.359375 C 470.765625 344.277344 470.636719 343.203125 470.480469 342.132812 C 470.328125 341.058594 470.148438 339.992188 469.941406 338.929688 C 469.734375 337.867188 469.5 336.808594 469.242188 335.757812 C 468.984375 334.703125 468.699219 333.660156 468.390625 332.621094 C 468.078125 331.582031 467.742188 330.554688 467.382812 329.53125 C 467.019531 328.511719 466.632812 327.5 466.222656 326.496094 C 465.8125 325.496094 465.378906 324.503906 464.917969 323.523438 C 464.457031 322.542969 463.972656 321.574219 463.464844 320.617188 C 462.957031 319.660156 462.425781 318.714844 461.871094 317.785156 C 461.320312 316.851562 460.742188 315.9375 460.140625 315.035156 C 459.542969 314.132812 458.921875 313.246094 458.277344 312.371094 C 457.636719 311.5 456.972656 310.644531 456.285156 309.804688 C 455.601562 308.964844 454.894531 308.144531 454.167969 307.339844 C 453.441406 306.535156 452.699219 305.75 451.933594 304.980469 C 451.167969 304.214844 450.386719 303.464844 449.582031 302.734375 C 448.78125 302.003906 447.960938 301.296875 447.125 300.609375 C 446.289062 299.917969 445.4375 299.25 444.566406 298.601562 C 443.699219 297.957031 442.8125 297.332031 441.914062 296.726562 C 441.011719 296.125 440.097656 295.542969 439.167969 294.984375 C 438.238281 294.425781 437.296875 293.890625 436.339844 293.378906 C 435.386719 292.867188 434.417969 292.378906 433.4375 291.914062 C 432.460938 291.449219 431.46875 291.007812 430.46875 290.59375 C 429.46875 290.175781 428.457031 289.785156 427.4375 289.421875 C 426.414062 289.054688 425.386719 288.714844 424.347656 288.398438 C 423.3125 288.082031 422.269531 287.792969 421.214844 287.527344 C 420.164062 287.265625 419.105469 287.027344 418.042969 286.816406 C 416.980469 286.601562 415.914062 286.417969 414.839844 286.257812 C 413.769531 286.097656 412.691406 285.964844 411.613281 285.859375 C 410.535156 285.753906 409.453125 285.671875 408.371094 285.621094 C 407.289062 285.566406 406.203125 285.539062 405.121094 285.539062 C 404.035156 285.539062 402.953125 285.566406 401.867188 285.621094 C 400.785156 285.671875 399.703125 285.753906 398.625 285.859375 C 397.546875 285.964844 396.472656 286.097656 395.398438 286.257812 C 394.328125 286.417969 393.257812 286.601562 392.195312 286.816406 C 391.132812 287.027344 390.074219 287.265625 389.023438 287.527344 C 387.972656 287.792969 386.925781 288.082031 385.890625 288.398438 C 384.851562 288.714844 383.824219 289.054688 382.804688 289.421875 C 381.78125 289.785156 380.773438 290.175781 379.769531 290.59375 C 378.769531 291.007812 377.78125 291.449219 376.800781 291.914062 C 375.820312 292.378906 374.851562 292.867188 373.898438 293.378906 C 372.941406 293.890625 372 294.425781 371.070312 294.984375 C 370.140625 295.542969 369.226562 296.125 368.328125 296.726562 C 367.425781 297.332031 366.542969 297.957031 365.671875 298.605469 C 364.804688 299.25 363.949219 299.917969 363.113281 300.609375 C 362.277344 301.296875 361.457031 302.003906 360.65625 302.734375 C 359.855469 303.464844 359.070312 304.214844 358.308594 304.980469 C 357.542969 305.75 356.796875 306.535156 356.070312 307.339844 C 355.34375 308.144531 354.640625 308.964844 353.953125 309.804688 C 353.269531 310.644531 352.605469 311.5 351.960938 312.371094 C 351.316406 313.246094 350.695312 314.132812 350.097656 315.035156 C 349.496094 315.9375 348.921875 316.851562 348.367188 317.785156 C 347.8125 318.714844 347.28125 319.660156 346.773438 320.617188 C 346.265625 321.574219 345.78125 322.542969 345.320312 323.523438 C 344.863281 324.503906 344.425781 325.496094 344.015625 326.496094 C 343.605469 327.5 343.21875 328.511719 342.859375 329.53125 C 342.496094 330.554688 342.160156 331.582031 341.851562 332.621094 C 341.539062 333.660156 341.253906 334.703125 340.996094 335.757812 C 340.738281 336.808594 340.503906 337.867188 340.296875 338.929688 C 340.089844 339.992188 339.910156 341.058594 339.757812 342.132812 C 339.601562 343.203125 339.476562 344.277344 339.375 345.359375 C 339.273438 346.4375 339.199219 347.515625 339.152344 348.597656 C 339.105469 349.679688 339.082031 350.761719 339.089844 351.847656 C 339.089844 363.496094 342.15625 377.019531 347.726562 389.929688 C 347.886719 390.304688 348.011719 390.691406 348.09375 391.089844 C 348.179688 391.488281 348.226562 391.890625 348.230469 392.300781 C 348.238281 392.707031 348.203125 393.109375 348.128906 393.511719 C 348.054688 393.914062 347.941406 394.300781 347.792969 394.679688 C 347.640625 395.058594 347.453125 395.421875 347.234375 395.761719 C 347.011719 396.105469 346.757812 396.421875 346.472656 396.714844 C 346.1875 397.003906 345.878906 397.265625 345.542969 397.5 C 345.207031 397.730469 344.851562 397.925781 344.476562 398.085938 C 344.101562 398.25 343.714844 398.371094 343.316406 398.457031 C 342.917969 398.542969 342.515625 398.585938 342.105469 398.59375 C 341.699219 398.597656 341.292969 398.566406 340.894531 398.492188 C 340.492188 398.417969 340.101562 398.304688 339.722656 398.15625 C 339.34375 398.003906 338.984375 397.820312 338.640625 397.597656 C 338.296875 397.375 337.980469 397.125 337.6875 396.839844 C 337.394531 396.554688 337.132812 396.246094 336.902344 395.910156 C 336.667969 395.574219 336.472656 395.21875 336.3125 394.847656 C 330.089844 380.417969 326.660156 365.148438 326.660156 351.847656 C 326.652344 350.558594 326.679688 349.273438 326.738281 347.988281 C 326.792969 346.703125 326.882812 345.417969 327.003906 344.136719 C 327.125 342.859375 327.277344 341.582031 327.460938 340.308594 C 327.644531 339.035156 327.855469 337.765625 328.101562 336.503906 C 328.347656 335.238281 328.625 333.984375 328.933594 332.734375 C 329.242188 331.484375 329.582031 330.242188 329.949219 329.011719 C 330.320312 327.777344 330.71875 326.554688 331.148438 325.34375 C 331.578125 324.128906 332.035156 322.925781 332.523438 321.738281 C 333.011719 320.546875 333.53125 319.367188 334.078125 318.203125 C 334.625 317.039062 335.199219 315.886719 335.800781 314.75 C 336.40625 313.613281 337.035156 312.492188 337.695312 311.386719 C 338.355469 310.28125 339.039062 309.191406 339.753906 308.121094 C 340.464844 307.046875 341.203125 305.996094 341.96875 304.960938 C 342.730469 303.921875 343.519531 302.90625 344.335938 301.910156 C 345.148438 300.914062 345.988281 299.9375 346.851562 298.980469 C 347.714844 298.027344 348.597656 297.09375 349.507812 296.179688 C 350.414062 295.269531 351.347656 294.378906 352.296875 293.511719 C 353.25 292.648438 354.222656 291.804688 355.21875 290.988281 C 356.210938 290.167969 357.226562 289.375 358.257812 288.605469 C 359.292969 287.839844 360.34375 287.09375 361.414062 286.378906 C 362.480469 285.664062 363.570312 284.972656 364.671875 284.308594 C 365.777344 283.644531 366.894531 283.011719 368.03125 282.402344 C 369.164062 281.792969 370.316406 281.214844 371.476562 280.660156 C 372.640625 280.109375 373.816406 279.585938 375.007812 279.09375 C 376.195312 278.601562 377.398438 278.136719 378.609375 277.699219 C 379.820312 277.265625 381.042969 276.859375 382.277344 276.488281 C 383.507812 276.113281 384.75 275.769531 386 275.453125 C 387.246094 275.140625 388.503906 274.859375 389.765625 274.605469 C 391.03125 274.355469 392.296875 274.132812 393.574219 273.945312 C 394.847656 273.753906 396.125 273.597656 397.40625 273.472656 C 398.6875 273.34375 399.972656 273.25 401.257812 273.1875 C 402.542969 273.121094 403.832031 273.089844 405.121094 273.089844 C 406.40625 273.089844 407.695312 273.121094 408.980469 273.1875 C 410.269531 273.25 411.550781 273.34375 412.832031 273.472656 C 414.117188 273.597656 415.394531 273.753906 416.667969 273.945312 C 417.941406 274.132812 419.210938 274.355469 420.472656 274.605469 C 421.734375 274.859375 422.992188 275.140625 424.242188 275.453125 C 425.488281 275.769531 426.730469 276.113281 427.964844 276.488281 C 429.195312 276.859375 430.417969 277.265625 431.628906 277.699219 C 432.839844 278.136719 434.042969 278.601562 435.230469 279.09375 C 436.421875 279.585938 437.597656 280.109375 438.761719 280.660156 C 439.925781 281.214844 441.074219 281.792969 442.210938 282.402344 C 443.34375 283.011719 444.464844 283.644531 445.566406 284.308594 C 446.671875 284.972656 447.757812 285.664062 448.828125 286.378906 C 449.898438 287.09375 450.949219 287.839844 451.980469 288.605469 C 453.015625 289.375 454.027344 290.167969 455.019531 290.988281 C 456.015625 291.804688 456.988281 292.648438 457.941406 293.511719 C 458.894531 294.378906 459.824219 295.269531 460.730469 296.179688 C 461.640625 297.09375 462.527344 298.027344 463.390625 298.980469 C 464.25 299.9375 465.089844 300.914062 465.902344 301.910156 C 466.71875 302.90625 467.507812 303.921875 468.273438 304.960938 C 469.035156 305.996094 469.773438 307.046875 470.488281 308.121094 C 471.199219 309.191406 471.886719 310.28125 472.542969 311.386719 C 473.203125 312.492188 473.832031 313.613281 474.4375 314.75 C 475.039062 315.886719 475.617188 317.039062 476.164062 318.203125 C 476.707031 319.367188 477.226562 320.546875 477.714844 321.738281 C 478.203125 322.925781 478.664062 324.128906 479.09375 325.34375 C 479.519531 326.554688 479.921875 327.777344 480.289062 329.011719 C 480.660156 330.242188 480.996094 331.484375 481.304688 332.734375 C 481.613281 333.984375 481.890625 335.238281 482.136719 336.503906 C 482.382812 337.765625 482.597656 339.035156 482.78125 340.308594 C 482.964844 341.582031 483.117188 342.859375 483.234375 344.136719 C 483.355469 345.417969 483.445312 346.703125 483.503906 347.988281 C 483.558594 349.273438 483.585938 350.558594 483.578125 351.847656 C 483.578125 362.28125 481.503906 373.886719 477.570312 385.410156 C 473.679688 396.808594 468.050781 407.917969 461.292969 417.539062 C 453.980469 427.945312 445.699219 436.253906 436.679688 442.238281 C 426.503906 448.988281 415.886719 452.410156 405.128906 452.410156 Z M 405.128906 452.410156 " fill-opacity="1" fill-rule="nonzero"/><g clip-path="url(#id4)"><path fill="#ffffff" d="M 309.070312 384.324219 L 306.390625 384.324219 C 288.457031 384.324219 273.882812 369.75 273.882812 351.847656 C 273.882812 333.941406 288.457031 319.367188 306.390625 319.367188 L 309.070312 319.367188 C 309.480469 319.367188 309.882812 319.40625 310.28125 319.488281 C 310.683594 319.566406 311.070312 319.683594 311.449219 319.839844 C 311.824219 319.996094 312.183594 320.1875 312.523438 320.414062 C 312.863281 320.640625 313.175781 320.898438 313.464844 321.1875 C 313.753906 321.472656 314.011719 321.789062 314.238281 322.125 C 314.464844 322.464844 314.65625 322.824219 314.8125 323.199219 C 314.96875 323.578125 315.085938 323.964844 315.164062 324.363281 C 315.246094 324.765625 315.285156 325.167969 315.285156 325.574219 L 315.285156 378.117188 C 315.285156 378.523438 315.246094 378.925781 315.164062 379.328125 C 315.085938 379.726562 314.96875 380.113281 314.8125 380.492188 C 314.65625 380.867188 314.464844 381.226562 314.238281 381.5625 C 314.011719 381.902344 313.753906 382.214844 313.464844 382.503906 C 313.175781 382.792969 312.863281 383.050781 312.523438 383.277344 C 312.183594 383.503906 311.824219 383.695312 311.449219 383.851562 C 311.070312 384.007812 310.683594 384.125 310.28125 384.203125 C 309.882812 384.285156 309.480469 384.324219 309.070312 384.324219 Z M 302.855469 332.09375 C 301.707031 332.300781 300.582031 332.605469 299.484375 333.007812 C 298.386719 333.410156 297.332031 333.902344 296.320312 334.488281 C 295.308594 335.074219 294.355469 335.746094 293.460938 336.496094 C 292.566406 337.25 291.742188 338.074219 290.992188 338.96875 C 290.242188 339.863281 289.574219 340.820312 288.992188 341.832031 C 288.40625 342.84375 287.917969 343.898438 287.515625 344.996094 C 287.117188 346.09375 286.816406 347.21875 286.613281 348.367188 C 286.410156 349.519531 286.308594 350.679688 286.308594 351.847656 C 286.308594 353.015625 286.410156 354.171875 286.613281 355.324219 C 286.816406 356.472656 287.117188 357.597656 287.515625 358.695312 C 287.917969 359.792969 288.40625 360.851562 288.992188 361.863281 C 289.574219 362.875 290.242188 363.828125 290.992188 364.722656 C 291.742188 365.621094 292.566406 366.445312 293.460938 367.195312 C 294.355469 367.949219 295.308594 368.617188 296.320312 369.203125 C 297.332031 369.789062 298.386719 370.285156 299.484375 370.6875 C 300.582031 371.085938 301.707031 371.390625 302.855469 371.597656 Z M 302.855469 332.09375 " fill-opacity="1" fill-rule="nonzero"/></g><g clip-path="url(#id5)"><path fill="#ffffff" d="M 503.863281 384.324219 L 501.183594 384.324219 C 500.773438 384.324219 500.371094 384.285156 499.96875 384.203125 C 499.570312 384.125 499.183594 384.007812 498.804688 383.851562 C 498.429688 383.695312 498.070312 383.503906 497.730469 383.277344 C 497.390625 383.050781 497.078125 382.792969 496.789062 382.503906 C 496.5 382.214844 496.242188 381.902344 496.015625 381.5625 C 495.789062 381.226562 495.597656 380.867188 495.441406 380.492188 C 495.285156 380.113281 495.167969 379.726562 495.089844 379.328125 C 495.007812 378.925781 494.96875 378.523438 494.96875 378.117188 L 494.96875 325.574219 C 494.96875 325.167969 495.007812 324.765625 495.089844 324.363281 C 495.167969 323.964844 495.285156 323.578125 495.441406 323.199219 C 495.597656 322.824219 495.789062 322.464844 496.015625 322.125 C 496.242188 321.789062 496.5 321.472656 496.789062 321.1875 C 497.078125 320.898438 497.390625 320.640625 497.730469 320.414062 C 498.070312 320.1875 498.429688 319.996094 498.804688 319.839844 C 499.183594 319.683594 499.570312 319.566406 499.96875 319.488281 C 500.371094 319.40625 500.773438 319.367188 501.183594 319.367188 L 503.863281 319.367188 C 521.792969 319.367188 536.375 333.9375 536.375 351.847656 C 536.375 369.753906 521.789062 384.324219 503.863281 384.324219 Z M 507.398438 332.09375 L 507.398438 371.597656 C 508.546875 371.390625 509.671875 371.085938 510.769531 370.6875 C 511.867188 370.285156 512.921875 369.789062 513.933594 369.203125 C 514.945312 368.617188 515.898438 367.949219 516.792969 367.195312 C 517.6875 366.445312 518.511719 365.621094 519.261719 364.722656 C 520.011719 363.828125 520.679688 362.875 521.261719 361.863281 C 521.847656 360.851562 522.335938 359.792969 522.738281 358.695312 C 523.136719 357.597656 523.4375 356.472656 523.640625 355.324219 C 523.84375 354.171875 523.945312 353.015625 523.945312 351.847656 C 523.945312 350.679688 523.84375 349.519531 523.640625 348.367188 C 523.4375 347.21875 523.136719 346.09375 522.738281 344.996094 C 522.335938 343.898438 521.847656 342.84375 521.261719 341.832031 C 520.679688 340.820312 520.011719 339.863281 519.261719 338.96875 C 518.511719 338.074219 517.6875 337.25 516.792969 336.496094 C 515.898438 335.746094 514.945312 335.074219 513.933594 334.488281 C 512.921875 333.902344 511.867188 333.410156 510.769531 333.007812 C 509.671875 332.605469 508.546875 332.300781 507.398438 332.09375 Z M 507.398438 332.09375 " fill-opacity="1" fill-rule="nonzero"/></g><path fill="#ffffff" d="M 494.023438 566.957031 L 316.230469 566.957031 C 314.910156 566.957031 313.589844 566.894531 312.273438 566.765625 C 310.957031 566.636719 309.652344 566.441406 308.355469 566.183594 C 307.058594 565.925781 305.777344 565.605469 304.511719 565.222656 C 303.246094 564.839844 302 564.394531 300.777344 563.890625 C 299.558594 563.382812 298.363281 562.820312 297.195312 562.199219 C 296.03125 561.574219 294.898438 560.898438 293.796875 560.164062 C 292.699219 559.429688 291.636719 558.644531 290.613281 557.804688 C 289.59375 556.96875 288.613281 556.082031 287.679688 555.148438 C 286.742188 554.214844 285.855469 553.234375 285.019531 552.214844 C 284.179688 551.195312 283.390625 550.132812 282.65625 549.035156 C 281.921875 547.9375 281.242188 546.804688 280.621094 545.640625 C 279.996094 544.476562 279.433594 543.28125 278.925781 542.0625 C 278.417969 540.839844 277.976562 539.597656 277.589844 538.335938 C 277.207031 537.070312 276.886719 535.792969 276.628906 534.496094 C 276.371094 533.199219 276.175781 531.894531 276.046875 530.578125 C 275.917969 529.265625 275.851562 527.949219 275.851562 526.625 C 275.847656 521.714844 276.125 516.820312 276.679688 511.9375 C 277.234375 507.058594 278.066406 502.226562 279.175781 497.441406 C 280.285156 492.652344 281.664062 487.949219 283.3125 483.320312 C 284.957031 478.691406 286.863281 474.171875 289.03125 469.761719 C 291.195312 465.351562 293.601562 461.078125 296.257812 456.945312 C 298.910156 452.808594 301.789062 448.835938 304.898438 445.03125 C 308.003906 441.226562 311.320312 437.609375 314.84375 434.179688 C 318.363281 430.753906 322.070312 427.535156 325.957031 424.53125 C 326.292969 424.273438 326.648438 424.050781 327.03125 423.863281 C 327.410156 423.675781 327.804688 423.53125 328.214844 423.425781 C 328.621094 423.320312 329.039062 423.257812 329.460938 423.234375 C 329.882812 423.214844 330.304688 423.238281 330.722656 423.300781 C 331.140625 423.367188 331.546875 423.472656 331.941406 423.621094 C 332.339844 423.769531 332.714844 423.957031 333.074219 424.179688 C 333.429688 424.40625 333.761719 424.664062 334.066406 424.957031 C 334.375 425.25 334.644531 425.570312 334.886719 425.917969 C 335.117188 426.25 335.347656 426.582031 335.578125 426.914062 C 344.066406 438.992188 353.804688 448.730469 364.519531 455.824219 C 370.59375 459.851562 376.949219 462.988281 383.414062 465.140625 C 386.90625 466.328125 390.472656 467.21875 394.113281 467.820312 C 397.753906 468.417969 401.421875 468.71875 405.109375 468.71875 C 408.800781 468.71875 412.464844 468.417969 416.105469 467.820312 C 419.746094 467.21875 423.316406 466.328125 426.808594 465.140625 C 433.269531 462.988281 439.628906 459.851562 445.703125 455.824219 C 456.425781 448.710938 466.164062 438.984375 474.644531 426.914062 C 474.878906 426.582031 475.113281 426.25 475.335938 425.914062 C 475.578125 425.566406 475.851562 425.246094 476.15625 424.953125 C 476.460938 424.664062 476.792969 424.402344 477.148438 424.179688 C 477.507812 423.953125 477.886719 423.769531 478.28125 423.621094 C 478.675781 423.472656 479.085938 423.367188 479.503906 423.300781 C 479.917969 423.238281 480.339844 423.214844 480.761719 423.238281 C 481.183594 423.257812 481.601562 423.320312 482.007812 423.425781 C 482.417969 423.53125 482.8125 423.679688 483.191406 423.863281 C 483.570312 424.050781 483.929688 424.273438 484.261719 424.53125 C 491.917969 430.472656 498.820312 437.183594 504.976562 444.664062 C 511.132812 452.144531 516.386719 460.210938 520.746094 468.859375 C 525.238281 477.824219 528.636719 487.1875 530.941406 496.945312 C 533.242188 506.707031 534.386719 516.597656 534.371094 526.625 C 534.371094 527.949219 534.304688 529.265625 534.175781 530.578125 C 534.046875 531.894531 533.855469 533.199219 533.59375 534.496094 C 533.335938 535.789062 533.015625 537.070312 532.632812 538.335938 C 532.25 539.597656 531.804688 540.839844 531.296875 542.0625 C 530.792969 543.28125 530.226562 544.472656 529.605469 545.640625 C 528.980469 546.804688 528.300781 547.933594 527.566406 549.035156 C 526.832031 550.132812 526.046875 551.191406 525.207031 552.210938 C 524.367188 553.234375 523.480469 554.210938 522.546875 555.144531 C 521.609375 556.078125 520.632812 556.964844 519.609375 557.804688 C 518.589844 558.640625 517.527344 559.425781 516.429688 560.160156 C 515.328125 560.894531 514.195312 561.574219 513.03125 562.195312 C 511.863281 562.820312 510.667969 563.382812 509.449219 563.886719 C 508.226562 564.394531 506.984375 564.839844 505.71875 565.222656 C 504.453125 565.605469 503.171875 565.925781 501.875 566.183594 C 500.578125 566.441406 499.269531 566.636719 497.953125 566.765625 C 496.640625 566.894531 495.320312 566.957031 493.996094 566.957031 Z M 328.609375 438.421875 C 322.8125 443.453125 317.558594 449 312.84375 455.058594 C 308.128906 461.113281 304.046875 467.570312 300.597656 474.425781 C 296.601562 482.390625 293.566406 490.707031 291.488281 499.375 C 289.351562 508.335938 288.285156 517.421875 288.292969 526.632812 C 288.292969 542.023438 300.828125 554.546875 316.234375 554.546875 L 494.023438 554.546875 C 509.433594 554.546875 521.96875 542.023438 521.96875 526.632812 C 521.972656 517.421875 520.910156 508.335938 518.773438 499.375 C 516.695312 490.710938 513.660156 482.390625 509.664062 474.425781 C 506.210938 467.570312 502.128906 461.113281 497.414062 455.058594 C 492.703125 449 487.445312 443.453125 481.648438 438.421875 C 473.03125 449.773438 463.273438 459.09375 452.597656 466.175781 C 445.613281 470.808594 438.265625 474.425781 430.761719 476.925781 C 426.632812 478.324219 422.417969 479.375 418.117188 480.082031 C 413.816406 480.789062 409.484375 481.144531 405.125 481.144531 C 400.769531 481.144531 396.4375 480.789062 392.136719 480.082031 C 387.835938 479.375 383.621094 478.324219 379.492188 476.925781 C 371.996094 474.425781 364.648438 470.808594 357.65625 466.175781 C 346.984375 459.09375 337.230469 449.773438 328.609375 438.421875 Z M 328.609375 438.421875 " fill-opacity="1" fill-rule="nonzero"/><path fill="#ffffff" d="M 358.816406 418.359375 C 338.964844 418.359375 324.726562 414.433594 315.566406 406.5 C 310.171875 401.824219 306.628906 395.921875 304.734375 388.453125 C 303.207031 382.433594 303.039062 376.363281 302.90625 371.484375 C 302.890625 370.992188 302.875 370.503906 302.863281 370.023438 C 302.847656 369.617188 302.875 369.210938 302.945312 368.808594 C 303.011719 368.40625 303.117188 368.015625 303.261719 367.632812 C 303.40625 367.253906 303.585938 366.890625 303.804688 366.542969 C 304.019531 366.199219 304.269531 365.875 304.546875 365.578125 C 304.828125 365.28125 305.132812 365.015625 305.464844 364.777344 C 305.796875 364.542969 306.148438 364.339844 306.523438 364.171875 C 306.894531 364.003906 307.28125 363.875 307.675781 363.78125 C 308.074219 363.691406 308.476562 363.640625 308.886719 363.625 C 309.292969 363.613281 309.699219 363.640625 310.101562 363.707031 C 310.503906 363.777344 310.898438 363.882812 311.277344 364.027344 C 311.660156 364.171875 312.023438 364.351562 312.371094 364.566406 C 312.714844 364.785156 313.039062 365.03125 313.335938 365.3125 C 313.632812 365.589844 313.898438 365.894531 314.136719 366.226562 C 314.375 366.558594 314.578125 366.910156 314.746094 367.285156 C 314.910156 367.65625 315.042969 368.039062 315.132812 368.4375 C 315.226562 368.835938 315.277344 369.238281 315.289062 369.644531 C 315.304688 370.136719 315.320312 370.632812 315.332031 371.140625 C 315.582031 380.128906 315.867188 390.3125 323.71875 397.121094 C 333.136719 405.28125 352.125 407.804688 380.132812 404.609375 C 380.539062 404.558594 380.945312 404.550781 381.355469 404.582031 C 381.761719 404.613281 382.164062 404.683594 382.558594 404.792969 C 382.953125 404.902344 383.332031 405.050781 383.699219 405.238281 C 384.0625 405.421875 384.40625 405.644531 384.726562 405.894531 C 385.050781 406.148438 385.34375 406.433594 385.609375 406.742188 C 385.875 407.054688 386.105469 407.390625 386.308594 407.746094 C 386.507812 408.105469 386.667969 408.476562 386.792969 408.867188 C 386.921875 409.257812 387.007812 409.65625 387.054688 410.0625 C 387.101562 410.46875 387.105469 410.875 387.074219 411.28125 C 387.039062 411.691406 386.964844 412.089844 386.851562 412.484375 C 386.738281 412.878906 386.589844 413.257812 386.402344 413.621094 C 386.210938 413.984375 385.992188 414.324219 385.734375 414.644531 C 385.480469 414.964844 385.195312 415.257812 384.882812 415.519531 C 384.566406 415.785156 384.230469 416.011719 383.871094 416.210938 C 383.515625 416.40625 383.140625 416.566406 382.75 416.691406 C 382.359375 416.8125 381.957031 416.898438 381.550781 416.941406 C 373.277344 417.886719 365.699219 418.359375 358.816406 418.359375 Z M 358.816406 418.359375 " fill-opacity="1" fill-rule="nonzero"/><path fill="#ffffff" d="M 390.425781 395.945312 L 413.21875 395.945312 C 414.109375 395.945312 414.992188 396.03125 415.867188 396.207031 C 416.742188 396.378906 417.589844 396.636719 418.414062 396.976562 C 419.238281 397.320312 420.023438 397.738281 420.761719 398.230469 C 421.503906 398.726562 422.191406 399.289062 422.820312 399.917969 C 423.453125 400.550781 424.015625 401.234375 424.511719 401.976562 C 425.003906 402.714844 425.421875 403.496094 425.765625 404.320312 C 426.105469 405.144531 426.363281 405.992188 426.539062 406.867188 C 426.710938 407.738281 426.796875 408.621094 426.796875 409.511719 C 426.796875 410.402344 426.710938 411.285156 426.539062 412.160156 C 426.363281 413.03125 426.105469 413.878906 425.765625 414.703125 C 425.421875 415.527344 425.003906 416.308594 424.511719 417.050781 C 424.015625 417.789062 423.453125 418.476562 422.820312 419.105469 C 422.191406 419.734375 421.503906 420.296875 420.761719 420.792969 C 420.023438 421.285156 419.238281 421.703125 418.414062 422.046875 C 417.589844 422.386719 416.742188 422.644531 415.867188 422.816406 C 414.992188 422.992188 414.109375 423.078125 413.21875 423.078125 L 390.425781 423.078125 C 389.535156 423.078125 388.652344 422.992188 387.777344 422.816406 C 386.902344 422.644531 386.054688 422.386719 385.230469 422.046875 C 384.40625 421.703125 383.625 421.285156 382.882812 420.792969 C 382.140625 420.296875 381.453125 419.734375 380.824219 419.105469 C 380.195312 418.476562 379.628906 417.789062 379.136719 417.050781 C 378.640625 416.308594 378.222656 415.527344 377.878906 414.703125 C 377.539062 413.878906 377.28125 413.03125 377.109375 412.160156 C 376.933594 411.285156 376.847656 410.402344 376.847656 409.511719 C 376.847656 408.621094 376.933594 407.738281 377.109375 406.867188 C 377.28125 405.992188 377.539062 405.144531 377.878906 404.320312 C 378.222656 403.496094 378.640625 402.714844 379.136719 401.976562 C 379.628906 401.234375 380.195312 400.550781 380.824219 399.917969 C 381.453125 399.289062 382.140625 398.726562 382.882812 398.230469 C 383.625 397.738281 384.40625 397.320312 385.230469 396.976562 C 386.054688 396.636719 386.902344 396.378906 387.777344 396.207031 C 388.652344 396.03125 389.535156 395.945312 390.425781 395.945312 Z M 390.425781 395.945312 " fill-opacity="1" fill-rule="nonzero"/></svg>