<svg xmlns="http://www.w3.org/2000/svg" xmlns:xlink="http://www.w3.org/1999/xlink" width="188" zoomAndPan="magnify" viewBox="0 0 141.12 141.750002" height="188" preserveAspectRatio="xMidYMid meet" version="1.0"><defs><clipPath id="id1"><path d="M 0 0.316406 L 140.125 0.316406 L 140.125 141.1875 L 0 141.1875 Z M 0 0.316406 " clip-rule="nonzero"/></clipPath><clipPath id="id2"><path d="M 0 0.316406 L 140.125 0.316406 L 140.125 141 L 0 141 Z M 0 0.316406 " clip-rule="nonzero"/></clipPath><clipPath id="id3"><path d="M 0 0.316406 L 140.125 0.316406 L 140.125 140.441406 L 0 140.441406 Z M 0 0.316406 " clip-rule="nonzero"/></clipPath><clipPath id="id4"><path d="M 39.09375 39 L 93.214844 39 L 93.214844 66 L 39.09375 66 Z M 39.09375 39 " clip-rule="nonzero"/></clipPath><clipPath id="id5"><path d="M 51 24.753906 L 81 24.753906 L 81 42 L 51 42 Z M 51 24.753906 " clip-rule="nonzero"/></clipPath><clipPath id="id6"><path d="M 54 57 L 78 57 L 78 78.132812 L 54 78.132812 Z M 54 57 " clip-rule="nonzero"/></clipPath></defs><g clip-path="url(#id1)"><path fill="#ffffff" d="M 0 0.316406 L 140.125 0.316406 L 140.125 147.855469 L 0 147.855469 Z M 0 0.316406 " fill-opacity="1" fill-rule="nonzero"/></g><g clip-path="url(#id2)"><path fill="#ffffff" d="M 0 0.316406 L 140.125 0.316406 L 140.125 140.441406 L 0 140.441406 Z M 0 0.316406 " fill-opacity="1" fill-rule="nonzero"/></g><g clip-path="url(#id3)"><path fill="#ffffff" d="M 0 0.316406 L 140.125 0.316406 L 140.125 140.441406 L 0 140.441406 Z M 0 0.316406 " fill-opacity="1" fill-rule="nonzero"/><path fill="#ffffff" d="M 0 0.316406 L 140.125 0.316406 L 140.125 140.441406 L 0 140.441406 Z M 0 0.316406 " fill-opacity="1" fill-rule="nonzero"/></g><g clip-path="url(#id4)"><path fill="#000000" d="M 51.878906 39.28125 L 46.546875 39.28125 C 44.492188 39.277344 42.628906 40.109375 41.285156 41.445312 C 39.9375 42.78125 39.105469 44.632812 39.105469 46.671875 L 39.105469 57.867188 C 39.105469 59.902344 39.9375 61.757812 41.285156 63.09375 C 42.628906 64.429688 44.492188 65.257812 46.542969 65.257812 C 46.546875 65.257812 46.546875 65.257812 46.546875 65.257812 L 54.710938 65.257812 L 54.710938 63.410156 L 46.546875 63.410156 C 45 63.410156 43.613281 62.792969 42.601562 61.785156 C 41.589844 60.78125 40.964844 59.398438 40.964844 57.867188 L 40.964844 46.671875 C 40.964844 45.140625 41.589844 43.757812 42.601562 42.753906 C 43.613281 41.746094 45.003906 41.128906 46.546875 41.128906 L 51.878906 41.128906 L 51.878906 39.28125 M 78.570312 39.28125 L 53.738281 39.28125 L 53.738281 41.128906 L 78.570312 41.128906 L 78.570312 39.28125 M 85.765625 39.28125 L 80.433594 39.28125 L 80.433594 41.128906 L 85.765625 41.128906 C 87.308594 41.128906 88.699219 41.746094 89.710938 42.753906 C 90.722656 43.757812 91.34375 45.140625 91.34375 46.671875 L 91.34375 57.867188 C 91.34375 59.398438 90.722656 60.78125 89.710938 61.785156 C 88.699219 62.792969 87.308594 63.410156 85.765625 63.410156 L 77.597656 63.410156 L 77.597656 65.257812 L 85.765625 65.257812 C 87.816406 65.257812 89.683594 64.429688 91.027344 63.09375 C 92.371094 61.757812 93.207031 59.902344 93.207031 57.867188 L 93.207031 46.671875 C 93.207031 44.632812 92.371094 42.78125 91.027344 41.445312 C 89.683594 40.109375 87.816406 39.28125 85.765625 39.28125 " fill-opacity="1" fill-rule="nonzero"/></g><g clip-path="url(#id5)"><path fill="#000000" d="M 53.738281 41.128906 L 51.878906 41.128906 L 51.878906 41.167969 L 53.738281 41.167969 L 53.738281 41.128906 M 80.433594 41.128906 L 78.570312 41.128906 L 78.570312 41.167969 L 80.433594 41.167969 L 80.433594 41.128906 M 79.503906 24.75 L 52.808594 24.75 C 52.5625 24.75 52.324219 24.851562 52.148438 25.023438 C 51.976562 25.195312 51.878906 25.433594 51.878906 25.675781 L 51.878906 39.28125 L 53.738281 39.28125 L 53.738281 26.597656 L 78.570312 26.597656 L 78.570312 39.28125 L 80.433594 39.28125 L 80.433594 25.675781 C 80.433594 25.433594 80.332031 25.195312 80.160156 25.023438 C 79.988281 24.851562 79.746094 24.75 79.503906 24.75 " fill-opacity="1" fill-rule="nonzero"/></g><path fill="#000000" d="M 53.738281 39.28125 L 51.878906 39.28125 L 51.878906 41.128906 L 53.738281 41.128906 L 53.738281 39.28125 M 80.433594 39.28125 L 78.570312 39.28125 L 78.570312 41.128906 L 80.433594 41.128906 L 80.433594 39.28125 " fill-opacity="1" fill-rule="nonzero"/><path fill="#000000" d="M 84.574219 43.429688 C 84.570312 43.429688 84.570312 43.429688 84.570312 43.429688 C 83.675781 43.429688 82.855469 43.792969 82.269531 44.378906 C 81.679688 44.960938 81.316406 45.773438 81.316406 46.664062 C 81.316406 47.554688 81.679688 48.367188 82.269531 48.953125 C 82.855469 49.535156 83.675781 49.898438 84.570312 49.898438 C 85.46875 49.898438 86.289062 49.535156 86.875 48.953125 C 87.460938 48.367188 87.828125 47.554688 87.828125 46.664062 L 85.964844 46.664062 C 85.964844 47.050781 85.8125 47.390625 85.558594 47.644531 C 85.300781 47.898438 84.960938 48.050781 84.570312 48.050781 C 84.183594 48.050781 83.839844 47.898438 83.585938 47.644531 C 83.332031 47.390625 83.175781 47.050781 83.175781 46.664062 C 83.175781 46.277344 83.332031 45.9375 83.585938 45.683594 C 83.839844 45.429688 84.183594 45.277344 84.570312 45.277344 C 84.960938 45.277344 85.300781 45.429688 85.558594 45.683594 C 85.8125 45.9375 85.964844 46.277344 85.964844 46.664062 L 87.828125 46.664062 C 87.828125 45.773438 87.460938 44.960938 86.875 44.378906 C 86.289062 43.792969 85.46875 43.429688 84.574219 43.429688 " fill-opacity="1" fill-rule="nonzero"/><path fill="#000000" d="M 78.15625 44.261719 C 78.15625 44.261719 78.15625 44.261719 78.152344 44.261719 C 77.488281 44.261719 76.878906 44.53125 76.445312 44.964844 C 76.007812 45.398438 75.734375 46.003906 75.738281 46.664062 C 75.734375 47.324219 76.007812 47.929688 76.445312 48.363281 C 76.878906 48.796875 77.488281 49.066406 78.152344 49.066406 C 78.820312 49.066406 79.429688 48.796875 79.863281 48.363281 C 80.300781 47.929688 80.570312 47.324219 80.570312 46.664062 L 78.710938 46.664062 C 78.710938 46.820312 78.652344 46.953125 78.546875 47.054688 C 78.445312 47.15625 78.3125 47.21875 78.15625 47.21875 C 77.996094 47.21875 77.863281 47.15625 77.761719 47.054688 C 77.660156 46.953125 77.597656 46.820312 77.597656 46.664062 C 77.597656 46.507812 77.660156 46.375 77.761719 46.273438 C 77.863281 46.171875 77.996094 46.113281 78.15625 46.109375 C 78.3125 46.113281 78.445312 46.171875 78.546875 46.273438 C 78.652344 46.375 78.710938 46.507812 78.710938 46.664062 L 80.570312 46.664062 C 80.570312 46.003906 80.300781 45.398438 79.863281 44.964844 C 79.429688 44.535156 78.820312 44.261719 78.15625 44.261719 " fill-opacity="1" fill-rule="nonzero"/><g clip-path="url(#id6)"><path fill="#000000" d="M 77.597656 57.074219 L 75.738281 57.074219 L 75.738281 76.285156 L 56.574219 76.285156 L 56.574219 57.074219 L 54.710938 57.074219 L 54.710938 63.410156 L 56.566406 63.410156 L 56.566406 65.257812 L 54.710938 65.257812 L 54.710938 77.210938 C 54.710938 77.453125 54.8125 77.691406 54.984375 77.863281 C 55.160156 78.035156 55.398438 78.136719 55.644531 78.136719 L 76.667969 78.136719 C 76.914062 78.136719 77.152344 78.035156 77.324219 77.863281 C 77.5 77.691406 77.597656 77.453125 77.597656 77.210938 L 77.597656 65.257812 L 75.855469 65.257812 L 75.855469 63.410156 L 77.597656 63.410156 L 77.597656 57.074219 " fill-opacity="1" fill-rule="nonzero"/></g><path fill="#000000" d="M 56.566406 63.410156 L 54.710938 63.410156 L 54.710938 65.257812 L 56.566406 65.257812 L 56.566406 63.410156 M 77.597656 63.410156 L 75.855469 63.410156 L 75.855469 65.257812 L 77.597656 65.257812 L 77.597656 63.410156 " fill-opacity="1" fill-rule="nonzero"/><path fill="#000000" d="M 79.503906 55.222656 L 52.808594 55.222656 L 52.808594 57.074219 L 54.714844 57.074219 L 54.714844 55.277344 L 56.574219 55.277344 L 56.574219 57.074219 L 75.738281 57.074219 L 75.738281 55.277344 L 77.597656 55.277344 L 77.597656 57.074219 L 79.503906 57.074219 L 79.503906 55.222656 " fill-opacity="1" fill-rule="nonzero"/><path fill="#000000" d="M 56.574219 55.277344 L 54.710938 55.277344 L 54.710938 57.074219 L 56.574219 57.074219 L 56.574219 55.277344 M 77.597656 55.277344 L 75.738281 55.277344 L 75.738281 57.074219 L 77.597656 57.074219 L 77.597656 55.277344 " fill-opacity="1" fill-rule="nonzero"/><path fill="#000000" d="M 72.386719 59.285156 L 59.921875 59.285156 L 59.921875 61.132812 L 72.386719 61.132812 L 72.386719 59.285156 " fill-opacity="1" fill-rule="nonzero"/><path fill="#000000" d="M 72.386719 62.519531 L 59.921875 62.519531 L 59.921875 64.371094 L 72.386719 64.371094 L 72.386719 62.519531 " fill-opacity="1" fill-rule="nonzero"/><path fill="#000000" d="M 72.386719 65.753906 L 59.921875 65.753906 L 59.921875 67.605469 L 72.386719 67.605469 L 72.386719 65.753906 " fill-opacity="1" fill-rule="nonzero"/><path fill="#000000" d="M 72.386719 68.992188 L 59.921875 68.992188 L 59.921875 70.839844 L 72.386719 70.839844 L 72.386719 68.992188 " fill-opacity="1" fill-rule="nonzero"/><path fill="#000000" d="M 72.386719 72.226562 L 59.921875 72.226562 L 59.921875 74.074219 L 72.386719 74.074219 L 72.386719 72.226562 " fill-opacity="1" fill-rule="nonzero"/></svg>