<svg xmlns="http://www.w3.org/2000/svg" xmlns:xlink="http://www.w3.org/1999/xlink" width="500" zoomAndPan="magnify" viewBox="0 0 375 374.999991" height="500" preserveAspectRatio="xMidYMid meet" version="1.0"><defs><g/><clipPath id="id1"><path d="M 80 80.882812 L 296.578125 80.882812 L 296.578125 254.882812 L 80 254.882812 Z M 80 80.882812 " clipRule="nonzero"/></clipPath><clipPath id="id2"><path d="M 253 162 L 265 162 L 265 254.882812 L 253 254.882812 Z M 253 162 " clipRule="nonzero"/></clipPath><clipPath id="id3"><path d="M 111 162 L 123 162 L 123 254.882812 L 111 254.882812 Z M 111 162 " clipRule="nonzero"/></clipPath></defs><path fill="#ffffff" d="M 284.824219 169.492188 C 279.683594 120.683594 238.304688 82.515625 188.171875 82.515625 C 138.042969 82.515625 96.660156 120.679688 91.523438 169.488281 C 85.632812 174.195312 81.847656 181.421875 81.847656 189.546875 L 81.847656 227.59375 C 81.847656 241.769531 93.335938 253.257812 107.507812 253.257812 L 107.507812 163.882812 C 106.496094 163.882812 105.503906 163.957031 104.523438 164.066406 C 111.902344 124.582031 146.589844 94.59375 188.171875 94.59375 C 229.753906 94.59375 264.441406 124.582031 271.824219 164.066406 C 270.84375 163.957031 269.847656 163.882812 268.835938 163.882812 L 268.835938 253.257812 C 283.003906 253.257812 294.492188 241.769531 294.492188 227.59375 L 294.492188 189.546875 C 294.492188 181.425781 290.714844 174.195312 284.824219 169.492188 " fillOpacity="1" fillRule="nonzero"/><g clip-path="url(#id1)"><path fill="#ffffff" d="M 284.824219 169.492188 L 286.445312 169.320312 C 283.835938 144.5 272.007812 122.390625 254.46875 106.492188 C 236.929688 90.589844 213.65625 80.882812 188.171875 80.882812 C 162.691406 80.882812 139.417969 90.585938 121.878906 106.488281 C 104.339844 122.386719 92.511719 144.5 89.898438 169.320312 L 91.523438 169.488281 L 90.503906 168.214844 C 84.242188 173.210938 80.214844 180.90625 80.214844 189.546875 L 80.214844 227.59375 C 80.21875 242.671875 92.433594 254.890625 107.507812 254.890625 L 109.140625 254.890625 L 109.140625 162.25 L 107.507812 162.25 C 106.414062 162.25 105.359375 162.328125 104.335938 162.445312 L 104.523438 164.066406 L 106.128906 164.367188 C 109.742188 145.007812 120.0625 127.972656 134.574219 115.773438 C 149.085938 103.578125 167.777344 96.226562 188.171875 96.226562 C 208.566406 96.226562 227.257812 103.578125 241.769531 115.777344 C 256.285156 127.972656 266.601562 145.007812 270.21875 164.367188 L 271.824219 164.066406 L 272.011719 162.445312 C 270.984375 162.328125 269.925781 162.25 268.835938 162.25 L 267.207031 162.25 L 267.207031 254.890625 L 268.835938 254.890625 C 283.910156 254.890625 296.125 242.671875 296.125 227.59375 L 296.125 189.546875 C 296.125 180.910156 292.101562 173.210938 285.84375 168.214844 L 284.824219 169.492188 L 286.445312 169.320312 L 284.824219 169.492188 L 283.804688 170.769531 C 289.324219 175.179688 292.859375 181.9375 292.859375 189.546875 L 292.859375 227.59375 C 292.859375 234.234375 290.175781 240.230469 285.824219 244.585938 C 281.46875 248.9375 275.476562 251.625 268.835938 251.625 L 268.835938 253.257812 L 270.46875 253.257812 L 270.46875 163.882812 L 268.835938 163.882812 L 268.835938 165.515625 C 269.769531 165.515625 270.699219 165.582031 271.636719 165.691406 L 273.835938 165.945312 L 273.429688 163.769531 C 269.667969 143.644531 258.945312 125.941406 243.871094 113.273438 C 228.800781 100.605469 209.359375 92.960938 188.171875 92.960938 C 166.984375 92.960938 147.542969 100.605469 132.472656 113.273438 C 117.398438 125.941406 106.679688 143.640625 102.917969 163.769531 L 102.511719 165.941406 L 104.710938 165.691406 C 105.648438 165.582031 106.574219 165.515625 107.507812 165.515625 L 107.507812 163.882812 L 105.875 163.882812 L 105.875 253.257812 L 107.507812 253.257812 L 107.507812 251.625 C 100.867188 251.625 94.871094 248.9375 90.519531 244.585938 C 86.167969 240.230469 83.484375 234.234375 83.480469 227.59375 L 83.480469 189.546875 C 83.484375 181.933594 87.019531 175.179688 92.539062 170.765625 L 93.074219 170.339844 L 93.144531 169.660156 C 95.671875 145.667969 107.105469 124.292969 124.074219 108.90625 C 141.042969 93.527344 163.523438 84.152344 188.171875 84.148438 C 212.820312 84.152344 235.304688 93.527344 252.273438 108.910156 C 269.242188 124.292969 280.675781 145.671875 283.199219 169.664062 L 283.269531 170.34375 L 283.804688 170.769531 L 284.824219 169.492188 " fillOpacity="1" fillRule="nonzero"/></g><path fill="#ffffff" d="M 255.253906 253.257812 L 263.101562 253.257812 L 263.101562 163.882812 L 255.253906 163.882812 L 255.253906 253.257812 " fillOpacity="1" fillRule="nonzero"/><g clip-path="url(#id2)"><path fill="#ffffff" d="M 255.253906 253.257812 L 255.253906 254.890625 L 264.734375 254.890625 L 264.734375 162.25 L 253.621094 162.25 L 253.621094 254.890625 L 255.253906 254.890625 L 255.253906 253.257812 L 256.886719 253.257812 L 256.886719 165.515625 L 261.46875 165.515625 L 261.46875 251.625 L 255.253906 251.625 L 255.253906 253.257812 L 256.886719 253.257812 L 255.253906 253.257812 " fillOpacity="1" fillRule="nonzero"/></g><path fill="#ffffff" d="M 113.242188 253.257812 L 121.089844 253.257812 L 121.089844 163.882812 L 113.242188 163.882812 L 113.242188 253.257812 " fillOpacity="1" fillRule="nonzero"/><g clip-path="url(#id3)"><path fill="#ffffff" d="M 113.242188 253.257812 L 113.242188 254.890625 L 122.722656 254.890625 L 122.722656 162.25 L 111.609375 162.25 L 111.609375 254.890625 L 113.242188 254.890625 L 113.242188 253.257812 L 114.871094 253.257812 L 114.871094 165.515625 L 119.457031 165.515625 L 119.457031 251.625 L 113.242188 251.625 L 113.242188 253.257812 L 114.871094 253.257812 L 113.242188 253.257812 " fillOpacity="1" fillRule="nonzero"/></g><g fill="#ffffff" fillOpacity="1"><g transform="translate(128.579645, 244.285779)"><g><path d="M 66.546875 -65.84375 L 42.34375 -65.84375 L 42.34375 0 L 26.0625 0 L 26.0625 -65.84375 L 2.171875 -65.84375 L 2.171875 -79.03125 L 66.546875 -79.03125 Z M 66.546875 -65.84375 "/></g></g></g><g fill="#ffffff" fillOpacity="1"><g transform="translate(186.233848, 244.285779)"><g><path d="M 23.34375 -13.078125 L 57.921875 -13.078125 L 57.921875 0 L 7.0625 0 L 7.0625 -79.03125 L 23.34375 -79.03125 Z M 23.34375 -13.078125 "/></g></g></g><g fill="#ffffff" fillOpacity="1"><g transform="translate(110.370422, 288.72877)"><g><path d="M 21.546875 -21.328125 L 13.71875 -21.328125 L 13.71875 0 L 8.4375 0 L 8.4375 -21.328125 L 0.703125 -21.328125 L 0.703125 -25.59375 L 21.546875 -25.59375 Z M 21.546875 -21.328125 "/></g></g></g><g fill="#ffffff" fillOpacity="1"><g transform="translate(132.634661, 288.72877)"><g><path d="M 17.6875 -11.09375 L 7.5625 -11.09375 L 7.5625 -4.234375 L 19.4375 -4.234375 L 19.4375 0 L 2.28125 0 L 2.28125 -25.59375 L 19.40625 -25.59375 L 19.40625 -21.328125 L 7.5625 -21.328125 L 7.5625 -15.21875 L 17.6875 -15.21875 Z M 17.6875 -11.09375 "/></g></g></g><g fill="#ffffff" fillOpacity="1"><g transform="translate(152.878068, 288.72877)"><g><path d="M 22.53125 -3.234375 C 21.582031 -2.097656 20.238281 -1.210938 18.5 -0.578125 C 16.769531 0.046875 14.851562 0.359375 12.75 0.359375 C 10.53125 0.359375 8.582031 -0.125 6.90625 -1.09375 C 5.238281 -2.0625 3.953125 -3.460938 3.046875 -5.296875 C 2.140625 -7.140625 1.675781 -9.304688 1.65625 -11.796875 L 1.65625 -13.53125 C 1.65625 -16.09375 2.082031 -18.304688 2.9375 -20.171875 C 3.800781 -22.035156 5.046875 -23.460938 6.671875 -24.453125 C 8.296875 -25.453125 10.195312 -25.953125 12.375 -25.953125 C 15.40625 -25.953125 17.773438 -25.226562 19.484375 -23.78125 C 21.203125 -22.332031 22.21875 -20.222656 22.53125 -17.453125 L 17.40625 -17.453125 C 17.164062 -18.921875 16.644531 -19.992188 15.84375 -20.671875 C 15.039062 -21.347656 13.9375 -21.6875 12.53125 -21.6875 C 10.738281 -21.6875 9.375 -21.015625 8.4375 -19.671875 C 7.5 -18.328125 7.023438 -16.320312 7.015625 -13.65625 L 7.015625 -12.03125 C 7.015625 -9.34375 7.523438 -7.3125 8.546875 -5.9375 C 9.566406 -4.570312 11.0625 -3.890625 13.03125 -3.890625 C 15.007812 -3.890625 16.421875 -4.3125 17.265625 -5.15625 L 17.265625 -9.5625 L 12.46875 -9.5625 L 12.46875 -13.453125 L 22.53125 -13.453125 Z M 22.53125 -3.234375 "/></g></g></g><g fill="#ffffff" fillOpacity="1"><g transform="translate(177.391574, 288.72877)"><g><path d="M 7.5625 -4.234375 L 18.75 -4.234375 L 18.75 0 L 2.28125 0 L 2.28125 -25.59375 L 7.5625 -25.59375 Z M 7.5625 -4.234375 "/></g></g></g><g fill="#ffffff" fillOpacity="1"><g transform="translate(196.879373, 288.72877)"><g><path d="M 23.3125 -12.21875 C 23.3125 -9.695312 22.863281 -7.488281 21.96875 -5.59375 C 21.082031 -3.695312 19.804688 -2.226562 18.140625 -1.1875 C 16.484375 -0.15625 14.585938 0.359375 12.453125 0.359375 C 10.328125 0.359375 8.429688 -0.148438 6.765625 -1.171875 C 5.097656 -2.191406 3.804688 -3.648438 2.890625 -5.546875 C 1.984375 -7.441406 1.523438 -9.617188 1.515625 -12.078125 L 1.515625 -13.34375 C 1.515625 -15.863281 1.96875 -18.082031 2.875 -20 C 3.78125 -21.914062 5.0625 -23.382812 6.71875 -24.40625 C 8.382812 -25.4375 10.28125 -25.953125 12.40625 -25.953125 C 14.539062 -25.953125 16.4375 -25.4375 18.09375 -24.40625 C 19.75 -23.382812 21.03125 -21.914062 21.9375 -20 C 22.851562 -18.082031 23.3125 -15.867188 23.3125 -13.359375 Z M 17.96875 -13.375 C 17.96875 -16.0625 17.484375 -18.101562 16.515625 -19.5 C 15.554688 -20.894531 14.1875 -21.59375 12.40625 -21.59375 C 10.632812 -21.59375 9.269531 -20.898438 8.3125 -19.515625 C 7.351562 -18.140625 6.867188 -16.125 6.859375 -13.46875 L 6.859375 -12.21875 C 6.859375 -9.601562 7.335938 -7.570312 8.296875 -6.125 C 9.253906 -4.6875 10.640625 -3.96875 12.453125 -3.96875 C 14.210938 -3.96875 15.566406 -4.660156 16.515625 -6.046875 C 17.472656 -7.441406 17.957031 -9.46875 17.96875 -12.125 Z M 17.96875 -13.375 "/></g></g></g><g fill="#ffffff" fillOpacity="1"><g transform="translate(221.726749, 288.72877)"><g><path d="M 12.609375 -25.59375 L 17.875 -25.59375 L 17.875 -7.875 C 17.875 -6.25 17.515625 -4.8125 16.796875 -3.5625 C 16.078125 -2.3125 15.0625 -1.34375 13.75 -0.65625 C 12.4375 0.0195312 10.953125 0.359375 9.296875 0.359375 C 6.585938 0.359375 4.476562 -0.328125 2.96875 -1.703125 C 1.457031 -3.085938 0.703125 -5.039062 0.703125 -7.5625 L 6.015625 -7.5625 C 6.015625 -6.300781 6.273438 -5.375 6.796875 -4.78125 C 7.328125 -4.1875 8.160156 -3.890625 9.296875 -3.890625 C 10.304688 -3.890625 11.109375 -4.234375 11.703125 -4.921875 C 12.304688 -5.609375 12.609375 -6.59375 12.609375 -7.875 Z M 12.609375 -25.59375 "/></g></g></g><g fill="#ffffff" fillOpacity="1"><g transform="translate(241.829577, 288.72877)"><g><path d="M 16.734375 -5.28125 L 7.484375 -5.28125 L 5.734375 0 L 0.125 0 L 9.65625 -25.59375 L 14.53125 -25.59375 L 24.125 0 L 18.515625 0 Z M 8.90625 -9.546875 L 15.3125 -9.546875 L 12.09375 -19.125 Z M 8.90625 -9.546875 "/></g></g></g></svg>